<?xml version="1.0" encoding="UTF-8" standalone="no"?>
<!-- Created with Inkscape (http://www.inkscape.org/) -->
<svg
   xmlns:ns0="http://www.iki.fi/pav/software/textext/"
   xmlns:dc="http://purl.org/dc/elements/1.1/"
   xmlns:cc="http://creativecommons.org/ns#"
   xmlns:rdf="http://www.w3.org/1999/02/22-rdf-syntax-ns#"
   xmlns:svg="http://www.w3.org/2000/svg"
   xmlns="http://www.w3.org/2000/svg"
   xmlns:xlink="http://www.w3.org/1999/xlink"
   xmlns:sodipodi="http://sodipodi.sourceforge.net/DTD/sodipodi-0.dtd"
   xmlns:inkscape="http://www.inkscape.org/namespaces/inkscape"
   width="340.37946"
   height="174.42857"
   id="svg2"
   sodipodi:version="0.32"
   inkscape:version="0.46"
   sodipodi:docname="tfbs_dpdef2.svg"
   inkscape:output_extension="org.inkscape.output.svg.inkscape"
   version="1.0">
  <sodipodi:namedview
     id="base"
     pagecolor="#ffffff"
     bordercolor="#666666"
     borderopacity="1.0"
     gridtolerance="10000"
     guidetolerance="10"
     objecttolerance="10"
     inkscape:pageopacity="0.0"
     inkscape:pageshadow="2"
     inkscape:zoom="1.4"
     inkscape:cx="319.32317"
     inkscape:cy="134.22799"
     inkscape:document-units="px"
     inkscape:current-layer="layer1"
     showgrid="false"
     inkscape:window-width="1280"
     inkscape:window-height="953"
     inkscape:window-x="0"
     inkscape:window-y="25" />
  <defs
     id="defs4">
    <linearGradient
       id="linearGradient4714"
       inkscape:collect="always">
      <stop
         id="stop4716"
         offset="0"
         style="stop-color:#ec7642;stop-opacity:1;" />
      <stop
         id="stop4718"
         offset="1"
         style="stop-color:#ec7642;stop-opacity:0;" />
    </linearGradient>
    <linearGradient
       id="linearGradient4633">
      <stop
         id="stop4635"
         offset="0"
         style="stop-color:#e3e3b9;stop-opacity:1;" />
      <stop
         id="stop4637"
         offset="1"
         style="stop-color:#e3e3b9;stop-opacity:0;" />
    </linearGradient>
    <inkscape:perspective
       sodipodi:type="inkscape:persp3d"
       inkscape:vp_x="0 : 526.18109 : 1"
       inkscape:vp_y="0 : 1000 : 0"
       inkscape:vp_z="744.09448 : 526.18109 : 1"
       inkscape:persp3d-origin="372.04724 : 350.78739 : 1"
       id="perspective10" />
    <radialGradient
       gradientUnits="userSpaceOnUse"
       gradientTransform="matrix(1,0,0,0.5811518,0,84.759029)"
       r="150.07143"
       fy="202.36218"
       fx="255.71429"
       cy="202.36218"
       cx="255.71429"
       id="radialGradient4722"
       xlink:href="#linearGradient4714"
       inkscape:collect="always" />
  </defs>
  <metadata
     id="metadata7">
    <rdf:RDF>
      <cc:Work
         rdf:about="">
        <dc:format>image/svg+xml</dc:format>
        <dc:type
           rdf:resource="http://purl.org/dc/dcmitype/StillImage" />
      </cc:Work>
    </rdf:RDF>
  </metadata>
  <g
     inkscape:label="Layer 1"
     inkscape:groupmode="layer"
     id="layer1"
     transform="translate(-65.406248,-115.1479)">
    <rect
       style="opacity:1;fill:url(#radialGradient4722);fill-opacity:1;stroke:#000000;stroke-width:3;stroke-linejoin:round;stroke-miterlimit:4;stroke-dasharray:none;stroke-opacity:1"
       id="rect2383"
       width="297.14285"
       height="171.42857"
       x="107.14286"
       y="116.6479" />
    <g
       style="font-style:normal;font-variant:normal;font-weight:normal;font-stretch:normal;letter-spacing:normal;word-spacing:normal;text-anchor:start;fill:none;fill-opacity:1;stroke:#000000;stroke-linecap:butt;stroke-linejoin:miter;stroke-miterlimit:10.43299961;stroke-dasharray:none;stroke-dashoffset:0;stroke-opacity:1"
       id="content"
       transform="matrix(4.4832846,0,0,-4.4832846,-938.80467,3385.07)"
       xml:space="preserve"
       stroke-miterlimit="10.433"
       fill-rule="even-odd"
       font-style="normal"
       font-variant="normal"
       font-weight="normal"
       font-stretch="normal"
       font-size-adjust="none"
       letter-spacing="normal"
       word-spacing="normal"
       ns0:text="$\\Theta$"
       ns0:preamble="">
<path
   style="fill:#000000;stroke-width:0"
   d="M 230.62,710.5 L 230.61,710.69 L 230.6,710.88 L 230.58,711.06 L 230.55,711.24 L 230.51,711.42 L 230.47,711.59 L 230.41,711.76 L 230.35,711.93 L 230.29,712.09 L 230.21,712.25 L 230.13,712.4 L 230.04,712.55 L 229.95,712.69 L 229.85,712.83 L 229.75,712.96 L 229.64,713.08 L 229.52,713.21 L 229.4,713.32 L 229.27,713.43 L 229.14,713.53 L 229.01,713.62 L 228.87,713.71 L 228.73,713.79 L 228.58,713.86 L 228.43,713.93 L 228.28,713.98 L 228.12,714.03 L 227.96,714.07 L 227.8,714.1 L 227.63,714.13 L 227.47,714.14 L 227.3,714.15 L 227.3,713.93 C 228.3,713.93 229.65,713.02 229.65,710.5 C 229.65,707.96 228.24,707.13 227.31,707.13 L 227.31,707.13 C 226.32,707.13 224.96,707.99 224.96,710.5 C 224.96,713.06 226.34,713.93 227.3,713.93 L 227.3,714.15 C 225.51,714.15 223.99,712.55 223.99,710.5 C 223.99,708.46 225.52,706.9 227.3,706.9 C 229.11,706.9 230.62,708.49 230.62,710.5 z"
   id="path3163" />
<polygon
   style="fill:#000000;stroke-width:0"
   points="229.08,711.25 228.83,711.25 228.83,710.91 225.77,710.91 225.77,711.25 225.52,711.25 225.52,709.81 225.77,709.81 225.77,710.15 228.83,710.15 228.83,709.81 229.08,709.81 229.08,711.25 "
   id="polygon3165" />
</g>    <g
       style="font-style:normal;font-variant:normal;font-weight:normal;font-stretch:normal;letter-spacing:normal;word-spacing:normal;text-anchor:start;fill:none;fill-opacity:1;stroke:#000000;stroke-linecap:butt;stroke-linejoin:miter;stroke-miterlimit:10.43299961;stroke-dasharray:none;stroke-dashoffset:0;stroke-opacity:1"
       ns0:preamble=""
       ns0:text="$\\cdot \\theta^*_1$"
       word-spacing="normal"
       letter-spacing="normal"
       font-size-adjust="none"
       font-stretch="normal"
       font-weight="normal"
       font-variant="normal"
       font-style="normal"
       fill-rule="even-odd"
       stroke-miterlimit="10.433"
       xml:space="preserve"
       transform="matrix(3.2353218,0,0,-3.2353218,-472.08229,2457.4718)"
       id="g4832">
<path
   id="path4834"
   d="M 225.35,709.61 L 225.34,709.64 L 225.34,709.67 L 225.34,709.69 L 225.33,709.72 L 225.33,709.74 L 225.32,709.77 L 225.31,709.79 L 225.3,709.82 L 225.29,709.84 L 225.28,709.86 L 225.27,709.89 L 225.25,709.91 L 225.24,709.93 L 225.22,709.95 L 225.21,709.97 L 225.19,709.99 L 225.17,710 L 225.15,710.02 L 225.13,710.04 L 225.11,710.05 L 225.09,710.06 L 225.07,710.08 L 225.04,710.09 L 225.02,710.1 L 225,710.11 L 224.97,710.12 L 224.95,710.12 L 224.92,710.13 L 224.9,710.13 L 224.87,710.14 L 224.84,710.14 L 224.82,710.14 C 224.53,710.14 224.29,709.9 224.29,709.61 C 224.29,709.32 224.53,709.09 224.82,709.09 C 225.11,709.09 225.35,709.32 225.35,709.61 z"
   style="fill:#000000;stroke-width:0" />
<path
   id="path4836"
   d="M 230.73,712.1 L 230.73,712.17 L 230.73,712.24 L 230.73,712.31 L 230.72,712.38 L 230.72,712.46 L 230.71,712.54 L 230.7,712.62 L 230.69,712.7 L 230.68,712.78 L 230.66,712.87 L 230.64,712.95 L 230.62,713.04 L 230.6,713.12 L 230.58,713.21 L 230.55,713.29 L 230.52,713.37 L 230.48,713.45 L 230.45,713.53 L 230.41,713.6 L 230.36,713.67 L 230.32,713.74 L 230.27,713.8 L 230.21,713.86 L 230.15,713.92 L 230.09,713.97 L 230.06,713.99 L 230.03,714.01 L 229.99,714.03 L 229.95,714.05 L 229.92,714.07 L 229.88,714.09 L 229.84,714.1 L 229.8,714.11 L 229.76,714.12 L 229.72,714.13 L 229.67,714.14 L 229.63,714.14 L 229.58,714.14 L 229.54,714.15 L 229.53,713.93 C 230.02,713.93 230.07,713.29 230.07,712.72 C 230.07,712.23 230,711.72 229.76,710.74 L 227.67,710.74 C 227.84,711.38 228.04,712.17 228.44,712.88 C 228.71,713.37 229.08,713.93 229.53,713.93 L 229.54,714.15 C 228.15,714.15 226.62,711.34 226.62,709.05 C 226.62,708.12 226.91,707.01 227.81,707.01 L 227.81,707.23 C 227.49,707.23 227.28,707.52 227.28,708.45 C 227.28,708.87 227.34,709.44 227.6,710.42 L 229.67,710.42 C 229.56,709.96 229.35,709.11 228.97,708.4 C 228.62,707.72 228.24,707.23 227.81,707.23 L 227.81,707.01 C 229.22,707.01 230.73,709.87 230.73,712.1 z"
   style="fill:#000000;stroke-width:0" />
<path
   id="path4838"
   d="M 234.43,712.92 L 234.45,712.93 L 234.47,712.94 L 234.49,712.94 L 234.5,712.95 L 234.5,712.95 L 234.51,712.96 L 234.52,712.96 L 234.53,712.96 L 234.53,712.97 L 234.54,712.97 L 234.55,712.98 L 234.55,712.98 L 234.56,712.99 L 234.56,713 L 234.57,713 L 234.57,713.01 L 234.58,713.01 L 234.58,713.02 L 234.59,713.03 L 234.59,713.04 L 234.6,713.04 L 234.6,713.05 L 234.6,713.06 L 234.6,713.07 L 234.61,713.08 L 234.61,713.09 L 234.61,713.1 L 234.61,713.11 L 234.61,713.12 C 234.61,713.22 234.52,713.35 234.39,713.35 C 234.34,713.35 234.32,713.33 234.25,713.28 L 233.28,712.65 L 233.39,713.69 L 233.4,713.78 C 233.4,713.87 233.33,713.98 233.19,713.98 C 233.05,713.98 232.97,713.88 232.97,713.78 L 233.09,712.65 L 232.13,713.28 C 232.04,713.34 232.01,713.35 231.98,713.35 C 231.85,713.35 231.76,713.22 231.76,713.12 C 231.76,713 231.84,712.96 231.94,712.92 L 232.97,712.48 L 231.94,712.03 C 231.84,711.99 231.76,711.96 231.76,711.83 C 231.76,711.73 231.85,711.61 231.98,711.61 C 232.04,711.61 232.06,711.62 232.13,711.67 L 233.08,712.31 L 232.97,711.17 C 232.97,711.08 233.05,710.97 233.19,710.97 C 233.33,710.97 233.4,711.09 233.4,711.17 C 233.4,711.21 233.28,712.28 233.28,712.31 C 233.49,712.17 233.79,711.97 234.14,711.73 C 234.33,711.61 234.34,711.61 234.39,711.61 C 234.52,711.61 234.61,711.73 234.61,711.83 C 234.61,711.97 234.51,712.01 234.47,712.03 C 234.11,712.18 233.76,712.33 233.4,712.47 L 234.43,712.92 z"
   style="fill:#000000;stroke-width:0" />
<path
   id="path4840"
   d="M 233.21,709.09 L 233.21,709.1 L 233.21,709.11 L 233.21,709.12 L 233.21,709.12 L 233.21,709.13 L 233.21,709.14 L 233.21,709.15 L 233.21,709.15 L 233.21,709.16 L 233.21,709.17 L 233.21,709.17 L 233.21,709.18 L 233.21,709.18 L 233.21,709.19 L 233.2,709.2 L 233.2,709.2 L 233.2,709.21 L 233.2,709.21 L 233.2,709.22 L 233.2,709.23 L 233.19,709.24 L 233.19,709.24 L 233.19,709.25 L 233.18,709.25 L 233.18,709.26 L 233.17,709.26 L 233.17,709.27 L 233.16,709.27 L 233.15,709.27 L 233.14,709.28 L 233.13,709.28 L 233.13,709.28 L 233.12,709.28 L 233.11,709.28 L 233.11,709.28 L 233.1,709.28 L 233.1,709.28 L 233.09,709.28 L 233.09,709.28 L 233.08,709.28 L 233.07,709.29 L 233.06,709.29 L 233.06,709.29 L 233.05,709.29 L 233.04,709.29 L 233.03,709.29 L 233.03,709.29 L 233.02,709.29 L 233.01,709.29 L 233,709.29 C 232.55,708.85 231.92,708.84 231.63,708.84 L 231.63,708.59 C 231.8,708.59 232.26,708.59 232.64,708.78 L 232.64,705.23 C 232.64,705 232.64,704.91 231.95,704.91 L 231.68,704.91 L 231.68,704.66 C 231.81,704.66 232.66,704.68 232.92,704.68 C 233.14,704.68 234.02,704.66 234.17,704.66 L 234.17,704.91 L 233.91,704.91 C 233.21,704.91 233.21,705 233.21,705.23 L 233.21,709.09 z"
   style="fill:#000000;stroke-width:0" />
</g>    <g
       id="g4894"
       transform="matrix(3.2353218,0,0,-3.2353218,-454.45112,2510.0992)"
       xml:space="preserve"
       stroke-miterlimit="10.433"
       fill-rule="even-odd"
       font-style="normal"
       font-variant="normal"
       font-weight="normal"
       font-stretch="normal"
       font-size-adjust="none"
       letter-spacing="normal"
       word-spacing="normal"
       ns0:text="$\\cdot \\theta^*_2$"
       ns0:preamble=""
       style="font-style:normal;font-variant:normal;font-weight:normal;font-stretch:normal;letter-spacing:normal;word-spacing:normal;text-anchor:start;fill:none;fill-opacity:1;stroke:#000000;stroke-linecap:butt;stroke-linejoin:miter;stroke-miterlimit:10.43299961;stroke-dasharray:none;stroke-dashoffset:0;stroke-opacity:1">
<path
   d="M 225.35,709.61 L 225.34,709.64 L 225.34,709.67 L 225.34,709.69 L 225.33,709.72 L 225.33,709.74 L 225.32,709.77 L 225.31,709.79 L 225.3,709.82 L 225.29,709.84 L 225.28,709.86 L 225.27,709.89 L 225.25,709.91 L 225.24,709.93 L 225.22,709.95 L 225.21,709.97 L 225.19,709.99 L 225.17,710 L 225.15,710.02 L 225.13,710.04 L 225.11,710.05 L 225.09,710.06 L 225.07,710.08 L 225.04,710.09 L 225.02,710.1 L 225,710.11 L 224.97,710.12 L 224.95,710.12 L 224.92,710.13 L 224.9,710.13 L 224.87,710.14 L 224.84,710.14 L 224.82,710.14 C 224.53,710.14 224.29,709.9 224.29,709.61 C 224.29,709.32 224.53,709.09 224.82,709.09 C 225.11,709.09 225.35,709.32 225.35,709.61 z"
   id="path4896"
   style="fill:#000000;stroke-width:0" />
<path
   d="M 230.73,712.1 L 230.73,712.17 L 230.73,712.24 L 230.73,712.31 L 230.72,712.38 L 230.72,712.46 L 230.71,712.54 L 230.7,712.62 L 230.69,712.7 L 230.68,712.78 L 230.66,712.87 L 230.64,712.95 L 230.62,713.04 L 230.6,713.12 L 230.58,713.21 L 230.55,713.29 L 230.52,713.37 L 230.48,713.45 L 230.45,713.53 L 230.41,713.6 L 230.36,713.67 L 230.32,713.74 L 230.27,713.8 L 230.21,713.86 L 230.15,713.92 L 230.09,713.97 L 230.06,713.99 L 230.03,714.01 L 229.99,714.03 L 229.95,714.05 L 229.92,714.07 L 229.88,714.09 L 229.84,714.1 L 229.8,714.11 L 229.76,714.12 L 229.72,714.13 L 229.67,714.14 L 229.63,714.14 L 229.58,714.14 L 229.54,714.15 L 229.53,713.93 C 230.02,713.93 230.07,713.29 230.07,712.72 C 230.07,712.23 230,711.72 229.76,710.74 L 227.67,710.74 C 227.84,711.38 228.04,712.17 228.44,712.88 C 228.71,713.37 229.08,713.93 229.53,713.93 L 229.54,714.15 C 228.15,714.15 226.62,711.34 226.62,709.05 C 226.62,708.12 226.91,707.01 227.81,707.01 L 227.81,707.23 C 227.49,707.23 227.28,707.52 227.28,708.45 C 227.28,708.87 227.34,709.44 227.6,710.42 L 229.67,710.42 C 229.56,709.96 229.35,709.11 228.97,708.4 C 228.62,707.72 228.24,707.23 227.81,707.23 L 227.81,707.01 C 229.22,707.01 230.73,709.87 230.73,712.1 z"
   id="path4898"
   style="fill:#000000;stroke-width:0" />
<path
   d="M 234.43,712.92 L 234.45,712.93 L 234.47,712.94 L 234.49,712.94 L 234.5,712.95 L 234.5,712.95 L 234.51,712.96 L 234.52,712.96 L 234.53,712.96 L 234.53,712.97 L 234.54,712.97 L 234.55,712.98 L 234.55,712.98 L 234.56,712.99 L 234.56,713 L 234.57,713 L 234.57,713.01 L 234.58,713.01 L 234.58,713.02 L 234.59,713.03 L 234.59,713.04 L 234.6,713.04 L 234.6,713.05 L 234.6,713.06 L 234.6,713.07 L 234.61,713.08 L 234.61,713.09 L 234.61,713.1 L 234.61,713.11 L 234.61,713.12 C 234.61,713.22 234.52,713.35 234.39,713.35 C 234.34,713.35 234.32,713.33 234.25,713.28 L 233.28,712.65 L 233.39,713.69 L 233.4,713.78 C 233.4,713.87 233.33,713.98 233.19,713.98 C 233.05,713.98 232.97,713.88 232.97,713.78 L 233.09,712.65 L 232.13,713.28 C 232.04,713.34 232.01,713.35 231.98,713.35 C 231.85,713.35 231.76,713.22 231.76,713.12 C 231.76,713 231.84,712.96 231.94,712.92 L 232.97,712.48 L 231.94,712.03 C 231.84,711.99 231.76,711.96 231.76,711.83 C 231.76,711.73 231.85,711.61 231.98,711.61 C 232.04,711.61 232.06,711.62 232.13,711.67 L 233.08,712.31 L 232.97,711.17 C 232.97,711.08 233.05,710.97 233.19,710.97 C 233.33,710.97 233.4,711.09 233.4,711.17 C 233.4,711.21 233.28,712.28 233.28,712.31 C 233.49,712.17 233.79,711.97 234.14,711.73 C 234.33,711.61 234.34,711.61 234.39,711.61 C 234.52,711.61 234.61,711.73 234.61,711.83 C 234.61,711.97 234.51,712.01 234.47,712.03 C 234.11,712.18 233.76,712.33 233.4,712.47 L 234.43,712.92 z"
   id="path4900"
   style="fill:#000000;stroke-width:0" />
<path
   d="M 234.39,705.92 L 234.16,705.92 C 234.14,705.77 234.07,705.36 233.98,705.29 C 233.92,705.25 233.38,705.25 233.29,705.25 L 232,705.25 C 232.73,705.9 232.98,706.09 233.4,706.42 C 233.91,706.83 234.39,707.26 234.39,707.93 C 234.39,708.77 233.65,709.29 232.76,709.29 C 231.9,709.29 231.31,708.68 231.31,708.04 C 231.31,707.68 231.61,707.65 231.68,707.65 C 231.85,707.65 232.05,707.77 232.05,708.02 C 232.05,708.14 232,708.39 231.64,708.39 C 231.86,708.88 232.33,709.03 232.66,709.03 C 233.35,709.03 233.72,708.49 233.72,707.93 C 233.72,707.32 233.29,706.84 233.06,706.59 L 231.38,704.93 C 231.31,704.86 231.31,704.85 231.31,704.66 L 234.18,704.66 L 234.39,705.92 z"
   id="path4902"
   style="fill:#000000;stroke-width:0" />
</g>    <g
       style="font-style:normal;font-variant:normal;font-weight:normal;font-stretch:normal;letter-spacing:normal;word-spacing:normal;text-anchor:start;fill:none;fill-opacity:1;stroke:#000000;stroke-linecap:butt;stroke-linejoin:miter;stroke-miterlimit:10.43299961;stroke-dasharray:none;stroke-dashoffset:0;stroke-opacity:1"
       ns0:preamble=""
       ns0:text="$\\cdot \\theta^*_3$"
       word-spacing="normal"
       letter-spacing="normal"
       font-size-adjust="none"
       font-stretch="normal"
       font-weight="normal"
       font-variant="normal"
       font-style="normal"
       fill-rule="even-odd"
       stroke-miterlimit="10.433"
       xml:space="preserve"
       transform="matrix(3.2353218,0,0,-3.2353218,-491.82675,2490.9062)"
       id="g4966">
<path
   id="path4968"
   d="M 225.35,709.61 L 225.34,709.64 L 225.34,709.67 L 225.34,709.69 L 225.33,709.72 L 225.33,709.74 L 225.32,709.77 L 225.31,709.79 L 225.3,709.82 L 225.29,709.84 L 225.28,709.86 L 225.27,709.89 L 225.25,709.91 L 225.24,709.93 L 225.22,709.95 L 225.21,709.97 L 225.19,709.99 L 225.17,710 L 225.15,710.02 L 225.13,710.04 L 225.11,710.05 L 225.09,710.06 L 225.07,710.08 L 225.04,710.09 L 225.02,710.1 L 225,710.11 L 224.97,710.12 L 224.95,710.12 L 224.92,710.13 L 224.9,710.13 L 224.87,710.14 L 224.84,710.14 L 224.82,710.14 C 224.53,710.14 224.29,709.9 224.29,709.61 C 224.29,709.32 224.53,709.09 224.82,709.09 C 225.11,709.09 225.35,709.32 225.35,709.61 z"
   style="fill:#000000;stroke-width:0" />
<path
   id="path4970"
   d="M 230.73,712.1 L 230.73,712.17 L 230.73,712.24 L 230.73,712.31 L 230.72,712.38 L 230.72,712.46 L 230.71,712.54 L 230.7,712.62 L 230.69,712.7 L 230.68,712.78 L 230.66,712.87 L 230.64,712.95 L 230.62,713.04 L 230.6,713.12 L 230.58,713.21 L 230.55,713.29 L 230.52,713.37 L 230.48,713.45 L 230.45,713.53 L 230.41,713.6 L 230.36,713.67 L 230.32,713.74 L 230.27,713.8 L 230.21,713.86 L 230.15,713.92 L 230.09,713.97 L 230.06,713.99 L 230.03,714.01 L 229.99,714.03 L 229.95,714.05 L 229.92,714.07 L 229.88,714.09 L 229.84,714.1 L 229.8,714.11 L 229.76,714.12 L 229.72,714.13 L 229.67,714.14 L 229.63,714.14 L 229.58,714.14 L 229.54,714.15 L 229.53,713.93 C 230.02,713.93 230.07,713.29 230.07,712.72 C 230.07,712.23 230,711.72 229.76,710.74 L 227.67,710.74 C 227.84,711.38 228.04,712.17 228.44,712.88 C 228.71,713.37 229.08,713.93 229.53,713.93 L 229.54,714.15 C 228.15,714.15 226.62,711.34 226.62,709.05 C 226.62,708.12 226.91,707.01 227.81,707.01 L 227.81,707.23 C 227.49,707.23 227.28,707.52 227.28,708.45 C 227.28,708.87 227.34,709.44 227.6,710.42 L 229.67,710.42 C 229.56,709.96 229.35,709.11 228.97,708.4 C 228.62,707.72 228.24,707.23 227.81,707.23 L 227.81,707.01 C 229.22,707.01 230.73,709.87 230.73,712.1 z"
   style="fill:#000000;stroke-width:0" />
<path
   id="path4972"
   d="M 234.43,712.92 L 234.45,712.93 L 234.47,712.94 L 234.49,712.94 L 234.5,712.95 L 234.5,712.95 L 234.51,712.96 L 234.52,712.96 L 234.53,712.96 L 234.53,712.97 L 234.54,712.97 L 234.55,712.98 L 234.55,712.98 L 234.56,712.99 L 234.56,713 L 234.57,713 L 234.57,713.01 L 234.58,713.01 L 234.58,713.02 L 234.59,713.03 L 234.59,713.04 L 234.6,713.04 L 234.6,713.05 L 234.6,713.06 L 234.6,713.07 L 234.61,713.08 L 234.61,713.09 L 234.61,713.1 L 234.61,713.11 L 234.61,713.12 C 234.61,713.22 234.52,713.35 234.39,713.35 C 234.34,713.35 234.32,713.33 234.25,713.28 L 233.28,712.65 L 233.39,713.69 L 233.4,713.78 C 233.4,713.87 233.33,713.98 233.19,713.98 C 233.05,713.98 232.97,713.88 232.97,713.78 L 233.09,712.65 L 232.13,713.28 C 232.04,713.34 232.01,713.35 231.98,713.35 C 231.85,713.35 231.76,713.22 231.76,713.12 C 231.76,713 231.84,712.96 231.94,712.92 L 232.97,712.48 L 231.94,712.03 C 231.84,711.99 231.76,711.96 231.76,711.83 C 231.76,711.73 231.85,711.61 231.98,711.61 C 232.04,711.61 232.06,711.62 232.13,711.67 L 233.08,712.31 L 232.97,711.17 C 232.97,711.08 233.05,710.97 233.19,710.97 C 233.33,710.97 233.4,711.09 233.4,711.17 C 233.4,711.21 233.28,712.28 233.28,712.31 C 233.49,712.17 233.79,711.97 234.14,711.73 C 234.33,711.61 234.34,711.61 234.39,711.61 C 234.52,711.61 234.61,711.73 234.61,711.83 C 234.61,711.97 234.51,712.01 234.47,712.03 C 234.11,712.18 233.76,712.33 233.4,712.47 L 234.43,712.92 z"
   style="fill:#000000;stroke-width:0" />
<path
   id="path4974"
   d="M 232.78,706.98 L 232.83,706.98 L 232.88,706.98 L 232.92,706.97 L 232.97,706.97 L 233.02,706.96 L 233.06,706.94 L 233.11,706.93 L 233.15,706.91 L 233.19,706.89 L 233.23,706.87 L 233.27,706.85 L 233.31,706.83 L 233.35,706.8 L 233.38,706.77 L 233.42,706.74 L 233.45,706.7 L 233.48,706.67 L 233.51,706.63 L 233.53,706.59 L 233.56,706.54 L 233.58,706.5 L 233.6,706.45 L 233.62,706.4 L 233.64,706.35 L 233.66,706.3 L 233.67,706.24 L 233.68,706.18 L 233.69,706.12 L 233.7,706.06 L 233.71,706 L 233.71,705.93 L 233.71,705.86 C 233.71,705 233.21,704.74 232.8,704.74 C 232.52,704.74 231.91,704.82 231.62,705.23 C 231.95,705.24 232.02,705.47 232.02,705.62 C 232.02,705.84 231.86,706 231.64,706 C 231.44,706 231.25,705.88 231.25,705.6 C 231.25,704.94 231.97,704.52 232.82,704.52 C 233.79,704.52 234.46,705.16 234.46,705.86 C 234.46,706.41 234.01,706.95 233.24,707.11 C 233.98,707.38 234.24,707.9 234.24,708.32 C 234.24,708.87 233.61,709.29 232.83,709.29 C 232.06,709.29 231.46,708.91 231.46,708.35 C 231.46,708.11 231.62,707.98 231.83,707.98 C 232.04,707.98 232.18,708.14 232.18,708.34 C 232.18,708.54 232.04,708.69 231.83,708.7 C 232.07,709.01 232.55,709.08 232.81,709.08 C 233.12,709.08 233.56,708.93 233.56,708.32 C 233.56,708.03 233.47,707.71 233.29,707.49 C 233.05,707.23 232.86,707.21 232.51,707.19 C 232.34,707.18 232.32,707.18 232.29,707.17 C 232.27,707.17 232.22,707.16 232.22,707.08 C 232.22,706.98 232.28,706.98 232.4,706.98 L 232.78,706.98 z"
   style="fill:#000000;stroke-width:0" />
</g>    <g
       id="g5048"
       transform="matrix(3.2353218,0,0,-3.2353218,-529.2024,2523.2312)"
       xml:space="preserve"
       stroke-miterlimit="10.433"
       fill-rule="even-odd"
       font-style="normal"
       font-variant="normal"
       font-weight="normal"
       font-stretch="normal"
       font-size-adjust="none"
       letter-spacing="normal"
       word-spacing="normal"
       ns0:text="$\\cdot \\theta^*_4$"
       ns0:preamble=""
       style="font-style:normal;font-variant:normal;font-weight:normal;font-stretch:normal;letter-spacing:normal;word-spacing:normal;text-anchor:start;fill:none;fill-opacity:1;stroke:#000000;stroke-linecap:butt;stroke-linejoin:miter;stroke-miterlimit:10.43299961;stroke-dasharray:none;stroke-dashoffset:0;stroke-opacity:1">
<path
   d="M 225.35,709.61 L 225.34,709.64 L 225.34,709.67 L 225.34,709.69 L 225.33,709.72 L 225.33,709.74 L 225.32,709.77 L 225.31,709.79 L 225.3,709.82 L 225.29,709.84 L 225.28,709.86 L 225.27,709.89 L 225.25,709.91 L 225.24,709.93 L 225.22,709.95 L 225.21,709.97 L 225.19,709.99 L 225.17,710 L 225.15,710.02 L 225.13,710.04 L 225.11,710.05 L 225.09,710.06 L 225.07,710.08 L 225.04,710.09 L 225.02,710.1 L 225,710.11 L 224.97,710.12 L 224.95,710.12 L 224.92,710.13 L 224.9,710.13 L 224.87,710.14 L 224.84,710.14 L 224.82,710.14 C 224.53,710.14 224.29,709.9 224.29,709.61 C 224.29,709.32 224.53,709.09 224.82,709.09 C 225.11,709.09 225.35,709.32 225.35,709.61 z"
   id="path5050"
   style="fill:#000000;stroke-width:0" />
<path
   d="M 230.73,712.1 L 230.73,712.17 L 230.73,712.24 L 230.73,712.31 L 230.72,712.38 L 230.72,712.46 L 230.71,712.54 L 230.7,712.62 L 230.69,712.7 L 230.68,712.78 L 230.66,712.87 L 230.64,712.95 L 230.62,713.04 L 230.6,713.12 L 230.58,713.21 L 230.55,713.29 L 230.52,713.37 L 230.48,713.45 L 230.45,713.53 L 230.41,713.6 L 230.36,713.67 L 230.32,713.74 L 230.27,713.8 L 230.21,713.86 L 230.15,713.92 L 230.09,713.97 L 230.06,713.99 L 230.03,714.01 L 229.99,714.03 L 229.95,714.05 L 229.92,714.07 L 229.88,714.09 L 229.84,714.1 L 229.8,714.11 L 229.76,714.12 L 229.72,714.13 L 229.67,714.14 L 229.63,714.14 L 229.58,714.14 L 229.54,714.15 L 229.53,713.93 C 230.02,713.93 230.07,713.29 230.07,712.72 C 230.07,712.23 230,711.72 229.76,710.74 L 227.67,710.74 C 227.84,711.38 228.04,712.17 228.44,712.88 C 228.71,713.37 229.08,713.93 229.53,713.93 L 229.54,714.15 C 228.15,714.15 226.62,711.34 226.62,709.05 C 226.62,708.12 226.91,707.01 227.81,707.01 L 227.81,707.23 C 227.49,707.23 227.28,707.52 227.28,708.45 C 227.28,708.87 227.34,709.44 227.6,710.42 L 229.67,710.42 C 229.56,709.96 229.35,709.11 228.97,708.4 C 228.62,707.72 228.24,707.23 227.81,707.23 L 227.81,707.01 C 229.22,707.01 230.73,709.87 230.73,712.1 z"
   id="path5052"
   style="fill:#000000;stroke-width:0" />
<path
   d="M 234.43,712.92 L 234.45,712.93 L 234.47,712.94 L 234.49,712.94 L 234.5,712.95 L 234.5,712.95 L 234.51,712.96 L 234.52,712.96 L 234.53,712.96 L 234.53,712.97 L 234.54,712.97 L 234.55,712.98 L 234.55,712.98 L 234.56,712.99 L 234.56,713 L 234.57,713 L 234.57,713.01 L 234.58,713.01 L 234.58,713.02 L 234.59,713.03 L 234.59,713.04 L 234.6,713.04 L 234.6,713.05 L 234.6,713.06 L 234.6,713.07 L 234.61,713.08 L 234.61,713.09 L 234.61,713.1 L 234.61,713.11 L 234.61,713.12 C 234.61,713.22 234.52,713.35 234.39,713.35 C 234.34,713.35 234.32,713.33 234.25,713.28 L 233.28,712.65 L 233.39,713.69 L 233.4,713.78 C 233.4,713.87 233.33,713.98 233.19,713.98 C 233.05,713.98 232.97,713.88 232.97,713.78 L 233.09,712.65 L 232.13,713.28 C 232.04,713.34 232.01,713.35 231.98,713.35 C 231.85,713.35 231.76,713.22 231.76,713.12 C 231.76,713 231.84,712.96 231.94,712.92 L 232.97,712.48 L 231.94,712.03 C 231.84,711.99 231.76,711.96 231.76,711.83 C 231.76,711.73 231.85,711.61 231.98,711.61 C 232.04,711.61 232.06,711.62 232.13,711.67 L 233.08,712.31 L 232.97,711.17 C 232.97,711.08 233.05,710.97 233.19,710.97 C 233.33,710.97 233.4,711.09 233.4,711.17 C 233.4,711.21 233.28,712.28 233.28,712.31 C 233.49,712.17 233.79,711.97 234.14,711.73 C 234.33,711.61 234.34,711.61 234.39,711.61 C 234.52,711.61 234.61,711.73 234.61,711.83 C 234.61,711.97 234.51,712.01 234.47,712.03 C 234.11,712.18 233.76,712.33 233.4,712.47 L 234.43,712.92 z"
   id="path5054"
   style="fill:#000000;stroke-width:0" />
<path
   d="M 234.56,705.8 L 234.56,706.05 L 233.79,706.05 L 233.79,709.16 C 233.79,709.31 233.79,709.35 233.63,709.35 C 233.55,709.35 233.52,709.35 233.45,709.26 L 231.15,706.05 L 231.15,705.8 L 233.2,705.8 L 233.24,706.05 L 231.4,706.05 L 233.24,708.6 L 233.24,706.05 L 233.2,705.8 L 233.2,705.23 C 233.2,704.99 233.2,704.91 232.63,704.91 L 232.44,704.91 L 232.44,704.66 C 232.79,704.67 233.24,704.68 233.49,704.68 C 233.75,704.68 234.19,704.67 234.54,704.66 L 234.54,704.91 L 234.35,704.91 C 233.79,704.91 233.79,704.99 233.79,705.23 L 233.79,705.8 L 234.56,705.8 z"
   id="path5056"
   style="fill:#000000;stroke-width:0" />
</g>    <g
       style="font-style:normal;font-variant:normal;font-weight:normal;font-stretch:normal;letter-spacing:normal;word-spacing:normal;text-anchor:start;fill:none;fill-opacity:1;stroke:#000000;stroke-linecap:butt;stroke-linejoin:miter;stroke-miterlimit:10.43299961;stroke-dasharray:none;stroke-dashoffset:0;stroke-opacity:1"
       ns0:preamble=""
       ns0:text="$\\cdot \\theta^*_5$"
       word-spacing="normal"
       letter-spacing="normal"
       font-size-adjust="none"
       font-stretch="normal"
       font-weight="normal"
       font-variant="normal"
       font-style="normal"
       fill-rule="even-odd"
       stroke-miterlimit="10.433"
       xml:space="preserve"
       transform="matrix(3.2353218,0,0,-3.2353218,-380.70998,2535.353)"
       id="g5140">
<path
   id="path5142"
   d="M 225.35,709.61 L 225.34,709.64 L 225.34,709.67 L 225.34,709.69 L 225.33,709.72 L 225.33,709.74 L 225.32,709.77 L 225.31,709.79 L 225.3,709.82 L 225.29,709.84 L 225.28,709.86 L 225.27,709.89 L 225.25,709.91 L 225.24,709.93 L 225.22,709.95 L 225.21,709.97 L 225.19,709.99 L 225.17,710 L 225.15,710.02 L 225.13,710.04 L 225.11,710.05 L 225.09,710.06 L 225.07,710.08 L 225.04,710.09 L 225.02,710.1 L 225,710.11 L 224.97,710.12 L 224.95,710.12 L 224.92,710.13 L 224.9,710.13 L 224.87,710.14 L 224.84,710.14 L 224.82,710.14 C 224.53,710.14 224.29,709.9 224.29,709.61 C 224.29,709.32 224.53,709.09 224.82,709.09 C 225.11,709.09 225.35,709.32 225.35,709.61 z"
   style="fill:#000000;stroke-width:0" />
<path
   id="path5144"
   d="M 230.73,712.1 L 230.73,712.17 L 230.73,712.24 L 230.73,712.31 L 230.72,712.38 L 230.72,712.46 L 230.71,712.54 L 230.7,712.62 L 230.69,712.7 L 230.68,712.78 L 230.66,712.87 L 230.64,712.95 L 230.62,713.04 L 230.6,713.12 L 230.58,713.21 L 230.55,713.29 L 230.52,713.37 L 230.48,713.45 L 230.45,713.53 L 230.41,713.6 L 230.36,713.67 L 230.32,713.74 L 230.27,713.8 L 230.21,713.86 L 230.15,713.92 L 230.09,713.97 L 230.06,713.99 L 230.03,714.01 L 229.99,714.03 L 229.95,714.05 L 229.92,714.07 L 229.88,714.09 L 229.84,714.1 L 229.8,714.11 L 229.76,714.12 L 229.72,714.13 L 229.67,714.14 L 229.63,714.14 L 229.58,714.14 L 229.54,714.15 L 229.53,713.93 C 230.02,713.93 230.07,713.29 230.07,712.72 C 230.07,712.23 230,711.72 229.76,710.74 L 227.67,710.74 C 227.84,711.38 228.04,712.17 228.44,712.88 C 228.71,713.37 229.08,713.93 229.53,713.93 L 229.54,714.15 C 228.15,714.15 226.62,711.34 226.62,709.05 C 226.62,708.12 226.91,707.01 227.81,707.01 L 227.81,707.23 C 227.49,707.23 227.28,707.52 227.28,708.45 C 227.28,708.87 227.34,709.44 227.6,710.42 L 229.67,710.42 C 229.56,709.96 229.35,709.11 228.97,708.4 C 228.62,707.72 228.24,707.23 227.81,707.23 L 227.81,707.01 C 229.22,707.01 230.73,709.87 230.73,712.1 z"
   style="fill:#000000;stroke-width:0" />
<path
   id="path5146"
   d="M 234.43,712.92 L 234.45,712.93 L 234.47,712.94 L 234.49,712.94 L 234.5,712.95 L 234.5,712.95 L 234.51,712.96 L 234.52,712.96 L 234.53,712.96 L 234.53,712.97 L 234.54,712.97 L 234.55,712.98 L 234.55,712.98 L 234.56,712.99 L 234.56,713 L 234.57,713 L 234.57,713.01 L 234.58,713.01 L 234.58,713.02 L 234.59,713.03 L 234.59,713.04 L 234.6,713.04 L 234.6,713.05 L 234.6,713.06 L 234.6,713.07 L 234.61,713.08 L 234.61,713.09 L 234.61,713.1 L 234.61,713.11 L 234.61,713.12 C 234.61,713.22 234.52,713.35 234.39,713.35 C 234.34,713.35 234.32,713.33 234.25,713.28 L 233.28,712.65 L 233.39,713.69 L 233.4,713.78 C 233.4,713.87 233.33,713.98 233.19,713.98 C 233.05,713.98 232.97,713.88 232.97,713.78 L 233.09,712.65 L 232.13,713.28 C 232.04,713.34 232.01,713.35 231.98,713.35 C 231.85,713.35 231.76,713.22 231.76,713.12 C 231.76,713 231.84,712.96 231.94,712.92 L 232.97,712.48 L 231.94,712.03 C 231.84,711.99 231.76,711.96 231.76,711.83 C 231.76,711.73 231.85,711.61 231.98,711.61 C 232.04,711.61 232.06,711.62 232.13,711.67 L 233.08,712.31 L 232.97,711.17 C 232.97,711.08 233.05,710.97 233.19,710.97 C 233.33,710.97 233.4,711.09 233.4,711.17 C 233.4,711.21 233.28,712.28 233.28,712.31 C 233.49,712.17 233.79,711.97 234.14,711.73 C 234.33,711.61 234.34,711.61 234.39,711.61 C 234.52,711.61 234.61,711.73 234.61,711.83 C 234.61,711.97 234.51,712.01 234.47,712.03 C 234.11,712.18 233.76,712.33 233.4,712.47 L 234.43,712.92 z"
   style="fill:#000000;stroke-width:0" />
<path
   id="path5148"
   d="M 231.95,708.55 L 231.99,708.54 L 232.02,708.53 L 232.05,708.52 L 232.08,708.52 L 232.11,708.51 L 232.14,708.5 L 232.17,708.5 L 232.19,708.49 L 232.22,708.49 L 232.25,708.49 L 232.27,708.48 L 232.29,708.48 L 232.32,708.47 L 232.34,708.47 L 232.36,708.47 L 232.38,708.47 L 232.4,708.47 L 232.42,708.46 L 232.44,708.46 L 232.46,708.46 L 232.48,708.46 L 232.5,708.46 L 232.51,708.46 L 232.53,708.46 L 232.54,708.46 L 232.56,708.46 L 232.57,708.46 L 232.58,708.46 L 232.6,708.46 L 232.61,708.46 L 232.62,708.46 L 232.63,708.46 C 233.55,708.46 234.09,709.08 234.09,709.19 C 234.09,709.27 234.05,709.29 234.01,709.29 C 234,709.29 233.98,709.29 233.96,709.27 C 233.79,709.2 233.42,709.06 232.9,709.06 C 232.71,709.06 232.34,709.08 231.88,709.25 C 231.81,709.29 231.8,709.29 231.79,709.29 C 231.7,709.29 231.7,709.21 231.7,709.1 L 231.7,707.04 C 231.7,706.92 231.7,706.84 231.81,706.84 C 231.88,706.84 231.88,706.85 231.95,706.93 C 232.25,707.32 232.68,707.38 232.92,707.38 C 233.34,707.38 233.53,707.04 233.56,706.98 C 233.69,706.75 233.73,706.49 233.73,706.09 C 233.73,705.88 233.73,705.46 233.52,705.16 C 233.35,704.91 233.05,704.74 232.71,704.74 C 232.25,704.74 231.79,704.99 231.61,705.45 C 231.88,705.43 232.01,705.6 232.01,705.79 C 232.01,706.09 231.75,706.15 231.66,706.15 C 231.65,706.15 231.31,706.15 231.31,705.77 C 231.31,705.14 231.88,704.52 232.72,704.52 C 233.61,704.52 234.39,705.18 234.39,706.06 C 234.39,706.84 233.79,707.57 232.93,707.57 C 232.62,707.57 232.26,707.49 231.95,707.23 L 231.95,708.55 z"
   style="fill:#000000;stroke-width:0" />
</g>    <path
       style="fill:none;fill-rule:evenodd;stroke:#000000;stroke-width:1px;stroke-linecap:butt;stroke-linejoin:miter;stroke-opacity:1"
       d="M 107.14286,208.79075 L 187.85714,204.50504 L 261.42857,213.07647 L 297.85714,287.36218 M 279.28571,251.6479 L 345.71429,213.07647 L 371.42857,116.6479"
       id="path5345" />
    <path
       style="fill:none;fill-rule:evenodd;stroke:#000000;stroke-width:1px;stroke-linecap:butt;stroke-linejoin:miter;stroke-opacity:1"
       d="M 186.42857,205.07647 L 209.28571,117.93361"
       id="path5347" />
    <g
       style="font-style:normal;font-variant:normal;font-weight:normal;font-stretch:normal;letter-spacing:normal;word-spacing:normal;text-anchor:start;fill:#338000;fill-opacity:1;stroke:#000000;stroke-linecap:butt;stroke-linejoin:miter;stroke-miterlimit:10.43299961;stroke-dasharray:none;stroke-dashoffset:0;stroke-opacity:1"
       id="g5393"
       transform="matrix(2.3709899,0,0,-2.3709899,-417.5144,1814.2433)"
       xml:space="preserve"
       stroke-miterlimit="10.433"
       fill-rule="even-odd"
       font-style="normal"
       font-variant="normal"
       font-weight="normal"
       font-stretch="normal"
       font-size-adjust="none"
       letter-spacing="normal"
       word-spacing="normal"
       ns0:text="$A_1$"
       ns0:preamble="">
<path
   style="fill:#338000;stroke-width:0"
   d="M 225.22,708.27 L 225.18,708.21 L 225.14,708.15 L 225.1,708.09 L 225.07,708.04 L 225.03,707.99 L 224.99,707.95 L 224.96,707.9 L 224.92,707.86 L 224.88,707.82 L 224.84,707.78 L 224.81,707.75 L 224.77,707.72 L 224.73,707.69 L 224.69,707.66 L 224.66,707.63 L 224.62,707.61 L 224.58,707.59 L 224.54,707.57 L 224.5,707.55 L 224.47,707.53 L 224.43,707.52 L 224.39,707.5 L 224.35,707.49 L 224.31,707.48 L 224.27,707.47 L 224.23,707.46 L 224.19,707.45 L 224.15,707.45 L 224.07,707.44 L 223.99,707.43 C 223.87,707.42 223.78,707.42 223.78,707.23 C 223.78,707.17 223.83,707.12 223.91,707.12 C 224.18,707.12 224.49,707.15 224.77,707.15 C 225.1,707.15 225.45,707.12 225.76,707.12 C 225.82,707.12 225.95,707.12 225.95,707.31 C 225.95,707.42 225.86,707.43 225.79,707.43 C 225.56,707.45 225.32,707.53 225.32,707.78 C 225.32,707.9 225.38,708.01 225.46,708.15 C 225.54,708.27 225.54,708.27 226.22,709.42 L 228.72,709.42 L 228.69,709.73 L 226.41,709.73 L 228.37,713.02 L 228.69,709.73 L 228.72,709.42 C 228.74,709.22 228.88,707.86 228.88,707.76 C 228.88,707.46 228.36,707.43 228.16,707.43 C 228.02,707.43 227.93,707.43 227.93,707.23 C 227.93,707.12 228.04,707.12 228.07,707.12 C 228.47,707.12 228.9,707.15 229.31,707.15 C 229.56,707.15 230.19,707.12 230.44,707.12 C 230.5,707.12 230.62,707.12 230.62,707.32 C 230.62,707.43 230.52,707.43 230.39,707.43 C 229.77,707.43 229.77,707.5 229.74,707.79 L 229.13,714.02 C 229.11,714.22 229.11,714.26 228.94,714.26 C 228.78,714.26 228.74,714.19 228.68,714.09 L 225.22,708.27 z"
   id="path5395" />
<path
   style="fill:#338000;stroke-width:0"
   d="M 233.24,710.07 L 233.24,710.07 L 233.24,710.08 L 233.24,710.09 L 233.24,710.1 L 233.24,710.11 L 233.24,710.11 L 233.24,710.12 L 233.24,710.13 L 233.24,710.13 L 233.24,710.14 L 233.24,710.15 L 233.24,710.15 L 233.24,710.16 L 233.24,710.16 L 233.23,710.17 L 233.23,710.18 L 233.23,710.18 L 233.23,710.19 L 233.23,710.19 L 233.23,710.2 L 233.22,710.21 L 233.22,710.22 L 233.22,710.22 L 233.21,710.23 L 233.21,710.23 L 233.2,710.24 L 233.2,710.24 L 233.19,710.25 L 233.18,710.25 L 233.17,710.25 L 233.16,710.25 L 233.16,710.26 L 233.15,710.26 L 233.14,710.26 L 233.14,710.26 L 233.13,710.26 L 233.13,710.26 L 233.12,710.26 L 233.12,710.26 L 233.11,710.26 L 233.1,710.26 L 233.09,710.26 L 233.09,710.26 L 233.08,710.26 L 233.07,710.26 L 233.06,710.26 L 233.06,710.26 L 233.05,710.26 L 233.04,710.26 L 233.03,710.26 C 232.58,709.82 231.95,709.81 231.66,709.81 L 231.66,709.56 C 231.83,709.56 232.29,709.56 232.67,709.76 L 232.67,706.2 C 232.67,705.97 232.67,705.88 231.98,705.88 L 231.71,705.88 L 231.71,705.63 C 231.84,705.64 232.7,705.66 232.95,705.66 C 233.17,705.66 234.05,705.64 234.2,705.63 L 234.2,705.88 L 233.94,705.88 C 233.24,705.88 233.24,705.97 233.24,706.2 L 233.24,710.07 z"
   id="path5397" />
</g>    <g
       style="font-style:normal;font-variant:normal;font-weight:normal;font-stretch:normal;letter-spacing:normal;word-spacing:normal;text-anchor:start;fill:#338000;fill-opacity:1;stroke:#000000;stroke-linecap:butt;stroke-linejoin:miter;stroke-miterlimit:10.43299961;stroke-dasharray:none;stroke-dashoffset:0;stroke-opacity:1"
       ns0:preamble=""
       ns0:text="$A_2$"
       word-spacing="normal"
       letter-spacing="normal"
       font-size-adjust="none"
       font-stretch="normal"
       font-weight="normal"
       font-variant="normal"
       font-style="normal"
       fill-rule="even-odd"
       stroke-miterlimit="10.433"
       xml:space="preserve"
       transform="matrix(2.3709899,0,0,-2.3709899,-318.64726,1813.4918)"
       id="g5497">
<path
   id="path5499"
   d="M 225.22,708.27 L 225.18,708.21 L 225.14,708.15 L 225.1,708.09 L 225.07,708.04 L 225.03,707.99 L 224.99,707.95 L 224.96,707.9 L 224.92,707.86 L 224.88,707.82 L 224.84,707.78 L 224.81,707.75 L 224.77,707.72 L 224.73,707.69 L 224.69,707.66 L 224.66,707.63 L 224.62,707.61 L 224.58,707.59 L 224.54,707.57 L 224.5,707.55 L 224.47,707.53 L 224.43,707.52 L 224.39,707.5 L 224.35,707.49 L 224.31,707.48 L 224.27,707.47 L 224.23,707.46 L 224.19,707.45 L 224.15,707.45 L 224.07,707.44 L 223.99,707.43 C 223.87,707.42 223.78,707.42 223.78,707.23 C 223.78,707.17 223.83,707.12 223.91,707.12 C 224.18,707.12 224.49,707.15 224.77,707.15 C 225.1,707.15 225.45,707.12 225.76,707.12 C 225.82,707.12 225.95,707.12 225.95,707.31 C 225.95,707.42 225.86,707.43 225.79,707.43 C 225.56,707.45 225.32,707.53 225.32,707.78 C 225.32,707.9 225.38,708.01 225.46,708.15 C 225.54,708.27 225.54,708.27 226.22,709.42 L 228.72,709.42 L 228.69,709.73 L 226.41,709.73 L 228.37,713.02 L 228.69,709.73 L 228.72,709.42 C 228.74,709.22 228.88,707.86 228.88,707.76 C 228.88,707.46 228.36,707.43 228.16,707.43 C 228.02,707.43 227.93,707.43 227.93,707.23 C 227.93,707.12 228.04,707.12 228.07,707.12 C 228.47,707.12 228.9,707.15 229.31,707.15 C 229.56,707.15 230.19,707.12 230.44,707.12 C 230.5,707.12 230.62,707.12 230.62,707.32 C 230.62,707.43 230.52,707.43 230.39,707.43 C 229.77,707.43 229.77,707.5 229.74,707.79 L 229.13,714.02 C 229.11,714.22 229.11,714.26 228.94,714.26 C 228.78,714.26 228.74,714.19 228.68,714.09 L 225.22,708.27 z"
   style="fill:#338000;stroke-width:0" />
<path
   id="path5501"
   d="M 234.42,706.9 L 234.19,706.9 C 234.17,706.75 234.1,706.33 234.01,706.27 C 233.95,706.22 233.41,706.22 233.32,706.22 L 232.03,706.22 C 232.76,706.87 233.01,707.07 233.43,707.39 C 233.94,707.81 234.42,708.24 234.42,708.9 C 234.42,709.74 233.68,710.26 232.79,710.26 C 231.93,710.26 231.34,709.65 231.34,709.01 C 231.34,708.66 231.64,708.62 231.71,708.62 C 231.88,708.62 232.08,708.74 232.08,708.99 C 232.08,709.12 232.03,709.36 231.67,709.36 C 231.89,709.86 232.36,710.01 232.69,710.01 C 233.38,710.01 233.75,709.47 233.75,708.9 C 233.75,708.29 233.32,707.81 233.09,707.56 L 231.41,705.9 C 231.34,705.84 231.34,705.83 231.34,705.63 L 234.21,705.63 L 234.42,706.9 z"
   style="fill:#338000;stroke-width:0" />
</g>    <g
       id="g5607"
       transform="matrix(2.3709899,0,0,-2.3709899,-156.05092,1812.7774)"
       xml:space="preserve"
       stroke-miterlimit="10.433"
       fill-rule="even-odd"
       font-style="normal"
       font-variant="normal"
       font-weight="normal"
       font-stretch="normal"
       font-size-adjust="none"
       letter-spacing="normal"
       word-spacing="normal"
       ns0:text="$A_3$"
       ns0:preamble=""
       style="font-style:normal;font-variant:normal;font-weight:normal;font-stretch:normal;letter-spacing:normal;word-spacing:normal;text-anchor:start;fill:#338000;fill-opacity:1;stroke:#000000;stroke-linecap:butt;stroke-linejoin:miter;stroke-miterlimit:10.43299961;stroke-dasharray:none;stroke-dashoffset:0;stroke-opacity:1">
<path
   d="M 225.22,708.27 L 225.18,708.21 L 225.14,708.15 L 225.1,708.09 L 225.07,708.04 L 225.03,707.99 L 224.99,707.95 L 224.96,707.9 L 224.92,707.86 L 224.88,707.82 L 224.84,707.78 L 224.81,707.75 L 224.77,707.72 L 224.73,707.69 L 224.69,707.66 L 224.66,707.63 L 224.62,707.61 L 224.58,707.59 L 224.54,707.57 L 224.5,707.55 L 224.47,707.53 L 224.43,707.52 L 224.39,707.5 L 224.35,707.49 L 224.31,707.48 L 224.27,707.47 L 224.23,707.46 L 224.19,707.45 L 224.15,707.45 L 224.07,707.44 L 223.99,707.43 C 223.87,707.42 223.78,707.42 223.78,707.23 C 223.78,707.17 223.83,707.12 223.91,707.12 C 224.18,707.12 224.49,707.15 224.77,707.15 C 225.1,707.15 225.45,707.12 225.76,707.12 C 225.82,707.12 225.95,707.12 225.95,707.31 C 225.95,707.42 225.86,707.43 225.79,707.43 C 225.56,707.45 225.32,707.53 225.32,707.78 C 225.32,707.9 225.38,708.01 225.46,708.15 C 225.54,708.27 225.54,708.27 226.22,709.42 L 228.72,709.42 L 228.69,709.73 L 226.41,709.73 L 228.37,713.02 L 228.69,709.73 L 228.72,709.42 C 228.74,709.22 228.88,707.86 228.88,707.76 C 228.88,707.46 228.36,707.43 228.16,707.43 C 228.02,707.43 227.93,707.43 227.93,707.23 C 227.93,707.12 228.04,707.12 228.07,707.12 C 228.47,707.12 228.9,707.15 229.31,707.15 C 229.56,707.15 230.19,707.12 230.44,707.12 C 230.5,707.12 230.62,707.12 230.62,707.32 C 230.62,707.43 230.52,707.43 230.39,707.43 C 229.77,707.43 229.77,707.5 229.74,707.79 L 229.13,714.02 C 229.11,714.22 229.11,714.26 228.94,714.26 C 228.78,714.26 228.74,714.19 228.68,714.09 L 225.22,708.27 z"
   id="path5609"
   style="fill:#338000;stroke-width:0" />
<path
   d="M 232.81,707.96 L 232.86,707.96 L 232.91,707.95 L 232.95,707.95 L 233,707.94 L 233.05,707.93 L 233.09,707.92 L 233.14,707.91 L 233.18,707.89 L 233.22,707.87 L 233.26,707.85 L 233.3,707.83 L 233.34,707.8 L 233.38,707.77 L 233.41,707.74 L 233.45,707.71 L 233.48,707.68 L 233.51,707.64 L 233.54,707.6 L 233.56,707.56 L 233.59,707.52 L 233.61,707.47 L 233.63,707.43 L 233.65,707.38 L 233.67,707.33 L 233.69,707.27 L 233.7,707.22 L 233.71,707.16 L 233.72,707.1 L 233.73,707.04 L 233.74,706.97 L 233.74,706.9 L 233.74,706.84 C 233.74,705.97 233.24,705.71 232.83,705.71 C 232.55,705.71 231.94,705.79 231.65,706.2 C 231.98,706.22 232.05,706.45 232.05,706.59 C 232.05,706.82 231.89,706.98 231.67,706.98 C 231.47,706.98 231.28,706.86 231.28,706.57 C 231.28,705.92 232,705.49 232.85,705.49 C 233.82,705.49 234.49,706.14 234.49,706.84 C 234.49,707.38 234.04,707.92 233.27,708.09 C 234.01,708.35 234.27,708.87 234.27,709.3 C 234.27,709.85 233.64,710.26 232.86,710.26 C 232.09,710.26 231.49,709.88 231.49,709.33 C 231.49,709.09 231.65,708.96 231.86,708.96 C 232.07,708.96 232.21,709.12 232.21,709.31 C 232.21,709.51 232.07,709.66 231.86,709.67 C 232.1,709.98 232.58,710.06 232.84,710.06 C 233.15,710.06 233.59,709.91 233.59,709.3 C 233.59,709.01 233.5,708.68 233.32,708.47 C 233.09,708.2 232.89,708.19 232.54,708.17 C 232.37,708.16 232.35,708.16 232.32,708.15 C 232.3,708.15 232.25,708.13 232.25,708.06 C 232.25,707.96 232.31,707.96 232.43,707.96 L 232.81,707.96 z"
   id="path5611"
   style="fill:#338000;stroke-width:0" />
</g>    <g
       style="font-style:normal;font-variant:normal;font-weight:normal;font-stretch:normal;letter-spacing:normal;word-spacing:normal;text-anchor:start;fill:#338000;fill-opacity:1;stroke:#000000;stroke-linecap:butt;stroke-linejoin:miter;stroke-miterlimit:10.43299961;stroke-dasharray:none;stroke-dashoffset:0;stroke-opacity:1"
       ns0:preamble=""
       ns0:text="$A_4$"
       word-spacing="normal"
       letter-spacing="normal"
       font-size-adjust="none"
       font-stretch="normal"
       font-weight="normal"
       font-variant="normal"
       font-style="normal"
       fill-rule="even-odd"
       stroke-miterlimit="10.433"
       xml:space="preserve"
       transform="matrix(2.3709899,0,0,-2.3709899,-418.41963,1905.4686)"
       id="g5723">
<path
   id="path5725"
   d="M 225.22,708.27 L 225.18,708.21 L 225.14,708.15 L 225.1,708.09 L 225.07,708.04 L 225.03,707.99 L 224.99,707.95 L 224.96,707.9 L 224.92,707.86 L 224.88,707.82 L 224.84,707.78 L 224.81,707.75 L 224.77,707.72 L 224.73,707.69 L 224.69,707.66 L 224.66,707.63 L 224.62,707.61 L 224.58,707.59 L 224.54,707.57 L 224.5,707.55 L 224.47,707.53 L 224.43,707.52 L 224.39,707.5 L 224.35,707.49 L 224.31,707.48 L 224.27,707.47 L 224.23,707.46 L 224.19,707.45 L 224.15,707.45 L 224.07,707.44 L 223.99,707.43 C 223.87,707.42 223.78,707.42 223.78,707.23 C 223.78,707.17 223.83,707.12 223.91,707.12 C 224.18,707.12 224.49,707.15 224.77,707.15 C 225.1,707.15 225.45,707.12 225.76,707.12 C 225.82,707.12 225.95,707.12 225.95,707.31 C 225.95,707.42 225.86,707.43 225.79,707.43 C 225.56,707.45 225.32,707.53 225.32,707.78 C 225.32,707.9 225.38,708.01 225.46,708.15 C 225.54,708.27 225.54,708.27 226.22,709.42 L 228.72,709.42 L 228.69,709.73 L 226.41,709.73 L 228.37,713.02 L 228.69,709.73 L 228.72,709.42 C 228.74,709.22 228.88,707.86 228.88,707.76 C 228.88,707.46 228.36,707.43 228.16,707.43 C 228.02,707.43 227.93,707.43 227.93,707.23 C 227.93,707.12 228.04,707.12 228.07,707.12 C 228.47,707.12 228.9,707.15 229.31,707.15 C 229.56,707.15 230.19,707.12 230.44,707.12 C 230.5,707.12 230.62,707.12 230.62,707.32 C 230.62,707.43 230.52,707.43 230.39,707.43 C 229.77,707.43 229.77,707.5 229.74,707.79 L 229.13,714.02 C 229.11,714.22 229.11,714.26 228.94,714.26 C 228.78,714.26 228.74,714.19 228.68,714.09 L 225.22,708.27 z"
   style="fill:#338000;stroke-width:0" />
<path
   id="path5727"
   d="M 234.59,706.77 L 234.59,707.03 L 233.82,707.03 L 233.82,710.14 C 233.82,710.28 233.82,710.33 233.66,710.33 C 233.58,710.33 233.55,710.33 233.48,710.23 L 231.17,707.03 L 231.17,706.77 L 233.23,706.77 L 233.27,707.03 L 231.43,707.03 L 233.27,709.58 L 233.27,707.03 L 233.23,706.77 L 233.23,706.2 C 233.23,705.97 233.23,705.88 232.66,705.88 L 232.47,705.88 L 232.47,705.63 C 232.82,705.64 233.27,705.66 233.52,705.66 C 233.78,705.66 234.22,705.64 234.57,705.63 L 234.57,705.88 L 234.38,705.88 C 233.82,705.88 233.82,705.97 233.82,706.2 L 233.82,706.77 L 234.59,706.77 z"
   style="fill:#338000;stroke-width:0" />
</g>  </g>
</svg>
