<?xml version="1.0" encoding="UTF-8" standalone="no"?>
<!-- Created with Inkscape (http://www.inkscape.org/) -->
<svg
   xmlns:ns0="http://www.iki.fi/pav/software/textext/"
   xmlns:dc="http://purl.org/dc/elements/1.1/"
   xmlns:cc="http://creativecommons.org/ns#"
   xmlns:rdf="http://www.w3.org/1999/02/22-rdf-syntax-ns#"
   xmlns:svg="http://www.w3.org/2000/svg"
   xmlns="http://www.w3.org/2000/svg"
   xmlns:sodipodi="http://sodipodi.sourceforge.net/DTD/sodipodi-0.dtd"
   xmlns:inkscape="http://www.inkscape.org/namespaces/inkscape"
   width="744.09448819"
   height="1052.3622047"
   id="svg2"
   sodipodi:version="0.32"
   inkscape:version="0.46"
   sodipodi:docname="tfbs_crf.svg"
   inkscape:output_extension="org.inkscape.output.svg.inkscape">
  <sodipodi:namedview
     id="base"
     pagecolor="#ffffff"
     bordercolor="#666666"
     borderopacity="1.0"
     gridtolerance="10000"
     guidetolerance="10"
     objecttolerance="10"
     inkscape:pageopacity="0.0"
     inkscape:pageshadow="2"
     inkscape:zoom="1"
     inkscape:cx="343.12326"
     inkscape:cy="803.01001"
     inkscape:document-units="px"
     inkscape:current-layer="layer1"
     showgrid="true"
     inkscape:window-width="1280"
     inkscape:window-height="953"
     inkscape:window-x="0"
     inkscape:window-y="25">
    <inkscape:grid
       type="xygrid"
       id="grid2403"
       visible="true"
       enabled="true" />
  </sodipodi:namedview>
  <defs
     id="defs4">
    <marker
       style="overflow:visible;"
       id="Arrow1Lend"
       refX="0.0"
       refY="0.0"
       orient="auto"
       inkscape:stockid="Arrow1Lend">
      <path
         transform="scale(0.8) rotate(180) translate(12.5,0)"
         style="fill-rule:evenodd;stroke:#000000;stroke-width:1.0pt;marker-start:none;"
         d="M 0.0,0.0 L 5.0,-5.0 L -12.5,0.0 L 5.0,5.0 L 0.0,0.0 z "
         id="path3198" />
    </marker>
    <marker
       style="overflow:visible;"
       id="Arrow2Lend"
       refX="0.0"
       refY="0.0"
       orient="auto"
       inkscape:stockid="Arrow2Lend">
      <path
         transform="scale(1.1) rotate(180) translate(1,0)"
         d="M 8.7185878,4.0337352 L -2.2072895,0.016013256 L 8.7185884,-4.0017078 C 6.9730900,-1.6296469 6.9831476,1.6157441 8.7185878,4.0337352 z "
         style="font-size:12.0;fill-rule:evenodd;stroke-width:0.62500000;stroke-linejoin:round;"
         id="path3216" />
    </marker>
    <inkscape:perspective
       sodipodi:type="inkscape:persp3d"
       inkscape:vp_x="0 : 526.18109 : 1"
       inkscape:vp_y="0 : 1000 : 0"
       inkscape:vp_z="744.09448 : 526.18109 : 1"
       inkscape:persp3d-origin="372.04724 : 350.78739 : 1"
       id="perspective10" />
  </defs>
  <metadata
     id="metadata7">
    <rdf:RDF>
      <cc:Work
         rdf:about="">
        <dc:format>image/svg+xml</dc:format>
        <dc:type
           rdf:resource="http://purl.org/dc/dcmitype/StillImage" />
      </cc:Work>
    </rdf:RDF>
  </metadata>
  <g
     inkscape:label="Layer 1"
     inkscape:groupmode="layer"
     id="layer1">
    <svg
       version="1.1"
       baseProfile="full"
       id="body"
       width="8in"
       height="8in"
       viewBox="0 0 1 1"
       preserveAspectRatio="none" />
    <svg
       preserveAspectRatio="none"
       viewBox="0 0 1 1"
       height="8in"
       width="8in"
       id="svg3233"
       baseProfile="full"
       version="1.1" />
    <path
       transform="matrix(0.8990258,0,0,1.0011398,-150.63955,-190.31044)"
       d="M 420,317.36218 A 50,45 0 1 1 320,317.36218 A 50,45 0 1 1 420,317.36218 z"
       sodipodi:ry="45"
       sodipodi:rx="50"
       sodipodi:cy="317.36218"
       sodipodi:cx="370"
       id="path6719"
       style="opacity:1;fill:#000000;fill-opacity:0.39484977;stroke:#000000;stroke-width:2;stroke-linejoin:round;stroke-miterlimit:4;stroke-dasharray:none;stroke-opacity:1"
       sodipodi:type="arc" />
    <path
       id="path2545"
       d="M 720,212.36218 L 80,212.36218 L 80,42.362183 L 720,42.362183"
       style="fill:none;fill-rule:evenodd;stroke:#000000;stroke-width:3;stroke-linecap:butt;stroke-linejoin:miter;stroke-opacity:1;stroke-miterlimit:4;stroke-dasharray:none" />
    <path
       transform="matrix(0.8990258,0,0,1.0011398,49.360454,-190.41302)"
       d="M 420,317.36218 A 50,45 0 1 1 320,317.36218 A 50,45 0 1 1 420,317.36218 z"
       sodipodi:ry="45"
       sodipodi:rx="50"
       sodipodi:cy="317.36218"
       sodipodi:cx="370"
       id="path2547"
       style="opacity:1;fill:#000000;fill-opacity:0.39484977;stroke:#000000;stroke-width:2;stroke-linejoin:round;stroke-miterlimit:4;stroke-dasharray:none;stroke-opacity:1"
       sodipodi:type="arc" />
    <path
       transform="matrix(0.8990258,0,0,1.0011398,244.31174,-185.36173)"
       d="M 420,317.36218 A 50,45 0 1 1 320,317.36218 A 50,45 0 1 1 420,317.36218 z"
       sodipodi:ry="45"
       sodipodi:rx="50"
       sodipodi:cy="317.36218"
       sodipodi:cx="370"
       id="path2549"
       style="opacity:1;fill:#000000;fill-opacity:0.39484977;stroke:#000000;stroke-width:2;stroke-linejoin:round;stroke-miterlimit:4;stroke-dasharray:none;stroke-opacity:1"
       sodipodi:type="arc" />
    <text
       transform="matrix(-1.9015918e-2,-0.9998192,0.9998192,-1.9015918e-2,0,0)"
       id="text3333"
       y="65.949081"
       x="-213.65489"
       style="font-size:40px;font-style:normal;font-weight:normal;fill:#000000;fill-opacity:1;stroke:none;stroke-width:1px;stroke-linecap:butt;stroke-linejoin:miter;stroke-opacity:1;font-family:Bitstream Vera Sans"
       xml:space="preserve"><tspan
         style="font-size:27"
         y="65.949081"
         x="-213.65489"
         id="tspan3335"
         sodipodi:role="line">Restaurant 1</tspan></text>
    <path
       transform="matrix(0.8990258,0,0,1.0011398,-150.63955,29.58698)"
       d="M 420,317.36218 A 50,45 0 1 1 320,317.36218 A 50,45 0 1 1 420,317.36218 z"
       sodipodi:ry="45"
       sodipodi:rx="50"
       sodipodi:cy="317.36218"
       sodipodi:cx="370"
       id="path3337"
       style="opacity:1;fill:#000000;fill-opacity:0.39484977;stroke:#000000;stroke-width:2;stroke-linejoin:round;stroke-miterlimit:4;stroke-dasharray:none;stroke-opacity:1"
       sodipodi:type="arc" />
    <path
       id="path3339"
       d="M 720.00004,432.2596 L 80.000004,432.2596 L 80.000004,262.2596 L 720.00004,262.2596"
       style="fill:none;fill-rule:evenodd;stroke:#000000;stroke-width:3;stroke-linecap:butt;stroke-linejoin:miter;stroke-miterlimit:4;stroke-dasharray:none;stroke-opacity:1" />
    <path
       transform="matrix(0.8990258,0,0,1.0011398,49.360454,29.4844)"
       d="M 420,317.36218 A 50,45 0 1 1 320,317.36218 A 50,45 0 1 1 420,317.36218 z"
       sodipodi:ry="45"
       sodipodi:rx="50"
       sodipodi:cy="317.36218"
       sodipodi:cx="370"
       id="path3341"
       style="opacity:1;fill:#000000;fill-opacity:0.39484977;stroke:#000000;stroke-width:2;stroke-linejoin:round;stroke-miterlimit:4;stroke-dasharray:none;stroke-opacity:1"
       sodipodi:type="arc" />
    <path
       transform="matrix(0.8990258,0,0,1.0011398,244.31174,34.53569)"
       d="M 420,317.36218 A 50,45 0 1 1 320,317.36218 A 50,45 0 1 1 420,317.36218 z"
       sodipodi:ry="45"
       sodipodi:rx="50"
       sodipodi:cy="317.36218"
       sodipodi:cx="370"
       id="path3343"
       style="opacity:1;fill:#000000;fill-opacity:0.39484977;stroke:#000000;stroke-width:2;stroke-linejoin:round;stroke-miterlimit:4;stroke-dasharray:none;stroke-opacity:1"
       sodipodi:type="arc" />
    <text
       transform="matrix(-1.9015918e-2,-0.9998192,0.9998192,-1.9015918e-2,0,0)"
       id="text3345"
       y="61.767532"
       x="-433.51254"
       style="font-size:40px;font-style:normal;font-weight:normal;fill:#000000;fill-opacity:1;stroke:none;stroke-width:1px;stroke-linecap:butt;stroke-linejoin:miter;stroke-opacity:1;font-family:Bitstream Vera Sans"
       xml:space="preserve"><tspan
         style="font-size:27px"
         y="61.767532"
         x="-433.51254"
         id="tspan3347"
         sodipodi:role="line">Restaurant 2</tspan></text>
    <g
       ns0:preamble=""
       ns0:text="$\\theta_{11}$"
       word-spacing="normal"
       letter-spacing="normal"
       font-size-adjust="none"
       font-stretch="normal"
       font-weight="normal"
       font-variant="normal"
       font-style="normal"
       fill-rule="even-odd"
       stroke-miterlimit="10.433"
       xml:space="preserve"
       transform="matrix(3.5211299,0,0,-3.5211299,-678.80356,2576.9771)"
       id="content"
       style="font-style:normal;font-variant:normal;font-weight:normal;font-stretch:normal;letter-spacing:normal;word-spacing:normal;text-anchor:start;fill:none;fill-opacity:1;stroke:#000000;stroke-linecap:butt;stroke-linejoin:miter;stroke-miterlimit:10.43299961;stroke-dasharray:none;stroke-dashoffset:0;stroke-opacity:1">
<path
   id="path3395"
   d="M 227.96,712.1 L 227.96,712.17 L 227.96,712.24 L 227.96,712.31 L 227.96,712.38 L 227.95,712.46 L 227.94,712.54 L 227.93,712.62 L 227.92,712.7 L 227.91,712.78 L 227.89,712.87 L 227.87,712.95 L 227.85,713.04 L 227.83,713.12 L 227.81,713.21 L 227.78,713.29 L 227.75,713.37 L 227.71,713.45 L 227.68,713.53 L 227.64,713.6 L 227.59,713.67 L 227.55,713.74 L 227.5,713.8 L 227.44,713.86 L 227.39,713.92 L 227.32,713.97 L 227.29,713.99 L 227.26,714.01 L 227.22,714.03 L 227.19,714.05 L 227.15,714.07 L 227.11,714.09 L 227.07,714.1 L 227.03,714.11 L 226.99,714.12 L 226.95,714.13 L 226.91,714.14 L 226.86,714.14 L 226.82,714.14 L 226.77,714.15 L 226.76,713.93 C 227.25,713.93 227.31,713.29 227.31,712.72 C 227.31,712.23 227.23,711.72 226.99,710.74 L 224.91,710.74 C 225.08,711.38 225.28,712.17 225.67,712.88 C 225.94,713.37 226.31,713.93 226.76,713.93 L 226.77,714.15 C 225.38,714.15 223.85,711.34 223.85,709.05 C 223.85,708.12 224.14,707.01 225.05,707.01 L 225.05,707.23 C 224.72,707.23 224.51,707.52 224.51,708.45 C 224.51,708.87 224.57,709.44 224.83,710.42 L 226.9,710.42 C 226.79,709.96 226.58,709.11 226.2,708.4 C 225.85,707.72 225.48,707.23 225.05,707.23 L 225.05,707.01 C 226.45,707.01 227.96,709.87 227.96,712.1 z"
   style="fill:#000000;stroke-width:0" />
<path
   id="path3397"
   d="M 230.45,710.07 L 230.45,710.07 L 230.45,710.08 L 230.45,710.09 L 230.45,710.1 L 230.45,710.11 L 230.45,710.11 L 230.45,710.12 L 230.45,710.13 L 230.45,710.13 L 230.45,710.14 L 230.45,710.15 L 230.45,710.15 L 230.45,710.16 L 230.45,710.16 L 230.44,710.17 L 230.44,710.18 L 230.44,710.18 L 230.44,710.19 L 230.44,710.19 L 230.44,710.2 L 230.43,710.21 L 230.43,710.22 L 230.43,710.22 L 230.42,710.23 L 230.42,710.23 L 230.41,710.24 L 230.41,710.24 L 230.4,710.25 L 230.39,710.25 L 230.38,710.25 L 230.37,710.25 L 230.37,710.26 L 230.36,710.26 L 230.35,710.26 L 230.35,710.26 L 230.34,710.26 L 230.34,710.26 L 230.33,710.26 L 230.33,710.26 L 230.32,710.26 L 230.31,710.26 L 230.3,710.26 L 230.3,710.26 L 230.29,710.26 L 230.28,710.26 L 230.27,710.26 L 230.27,710.26 L 230.26,710.26 L 230.25,710.26 L 230.24,710.26 C 229.79,709.82 229.16,709.81 228.87,709.81 L 228.87,709.56 C 229.04,709.56 229.5,709.56 229.88,709.76 L 229.88,706.2 C 229.88,705.97 229.88,705.88 229.19,705.88 L 228.92,705.88 L 228.92,705.63 C 229.05,705.64 229.9,705.66 230.16,705.66 C 230.38,705.66 231.26,705.64 231.41,705.63 L 231.41,705.88 L 231.15,705.88 C 230.45,705.88 230.45,705.97 230.45,706.2 L 230.45,710.07 z"
   style="fill:#000000;stroke-width:0" />
<path
   id="path3399"
   d="M 234.42,710.07 L 234.42,710.07 L 234.42,710.08 L 234.42,710.09 L 234.42,710.1 L 234.42,710.11 L 234.42,710.11 L 234.42,710.12 L 234.42,710.13 L 234.41,710.13 L 234.41,710.14 L 234.41,710.15 L 234.41,710.15 L 234.41,710.16 L 234.41,710.16 L 234.41,710.17 L 234.41,710.18 L 234.41,710.18 L 234.41,710.19 L 234.41,710.19 L 234.4,710.2 L 234.4,710.21 L 234.4,710.22 L 234.39,710.22 L 234.39,710.23 L 234.38,710.23 L 234.38,710.24 L 234.37,710.24 L 234.37,710.25 L 234.36,710.25 L 234.35,710.25 L 234.34,710.25 L 234.33,710.26 L 234.33,710.26 L 234.32,710.26 L 234.32,710.26 L 234.31,710.26 L 234.3,710.26 L 234.3,710.26 L 234.29,710.26 L 234.29,710.26 L 234.28,710.26 L 234.27,710.26 L 234.26,710.26 L 234.26,710.26 L 234.25,710.26 L 234.24,710.26 L 234.23,710.26 L 234.22,710.26 L 234.22,710.26 L 234.21,710.26 C 233.76,709.82 233.13,709.81 232.84,709.81 L 232.84,709.56 C 233.01,709.56 233.47,709.56 233.85,709.76 L 233.85,706.2 C 233.85,705.97 233.85,705.88 233.15,705.88 L 232.89,705.88 L 232.89,705.63 C 233.01,705.64 233.87,705.66 234.13,705.66 C 234.35,705.66 235.23,705.64 235.38,705.63 L 235.38,705.88 L 235.11,705.88 C 234.42,705.88 234.42,705.97 234.42,706.2 L 234.42,710.07 z"
   style="fill:#000000;stroke-width:0" />
</g>    <g
       id="g3513"
       transform="matrix(3.5211299,0,0,-3.5211299,-678.80356,2676.9771)"
       xml:space="preserve"
       stroke="black"
       stroke-linecap="butt"
       stroke-linejoin="miter"
       stroke-miterlimit="10.433"
       stroke-dasharray="none"
       stroke-dashoffset="0"
       stroke-opacity="1"
       fill="none"
       fill-rule="even-odd"
       fill-opacity="1"
       font-style="normal"
       font-variant="normal"
       font-weight="normal"
       font-stretch="normal"
       font-size-adjust="none"
       letter-spacing="normal"
       word-spacing="normal"
       text-anchor="start"
       ns0:text="$\\theta_{12}$"
       ns0:preamble=""
       style="font-style:normal;font-variant:normal;font-weight:normal;font-stretch:normal;letter-spacing:normal;word-spacing:normal;text-anchor:start;fill:none;fill-opacity:1;stroke:#000000;stroke-linecap:butt;stroke-linejoin:miter;stroke-miterlimit:10.43299961;stroke-dasharray:none;stroke-dashoffset:0;stroke-opacity:1">
<path
   d="M227.96,712.1 L227.96,712.17 L227.96,712.24 L227.96,712.31 L227.96,712.38 L227.95,712.46 L227.94,712.54 L227.93,712.62 L227.92,712.7 L227.91,712.78 L227.89,712.87 L227.87,712.95 L227.85,713.04 L227.83,713.12 L227.81,713.21 L227.78,713.29 L227.75,713.37 L227.71,713.45 L227.68,713.53 L227.64,713.6 L227.59,713.67 L227.55,713.74 L227.5,713.8 L227.44,713.86 L227.39,713.92 L227.32,713.97 L227.29,713.99 L227.26,714.01 L227.22,714.03 L227.19,714.05 L227.15,714.07 L227.11,714.09 L227.07,714.1 L227.03,714.11 L226.99,714.12 L226.95,714.13 L226.91,714.14 L226.86,714.14 L226.82,714.14 L226.77,714.15 L226.76,713.93 C227.25,713.93,227.31,713.29,227.31,712.72 C227.31,712.23,227.23,711.72,226.99,710.74 H224.91 C225.08,711.38,225.28,712.17,225.67,712.88 C225.94,713.37,226.31,713.93,226.76,713.93 L226.77,714.15 C225.38,714.15,223.85,711.34,223.85,709.05 C223.85,708.12,224.14,707.01,225.05,707.01 V707.23 C224.72,707.23,224.51,707.52,224.51,708.45 C224.51,708.87,224.57,709.44,224.83,710.42 H226.9 C226.79,709.96,226.58,709.11,226.2,708.4 C225.85,707.72,225.48,707.23,225.05,707.23 V707.01 C226.45,707.01,227.96,709.87,227.96,712.1 Z "
   stroke-width="0"
   fill="black"
   id="path3515" />
<path
   d="M230.45,710.07 L230.45,710.07 L230.45,710.08 L230.45,710.09 L230.45,710.1 L230.45,710.11 L230.45,710.11 L230.45,710.12 L230.45,710.13 L230.45,710.13 L230.45,710.14 L230.45,710.15 L230.45,710.15 L230.45,710.16 L230.45,710.16 L230.44,710.17 L230.44,710.18 L230.44,710.18 L230.44,710.19 L230.44,710.19 L230.44,710.2 L230.43,710.21 L230.43,710.22 L230.43,710.22 L230.42,710.23 L230.42,710.23 L230.41,710.24 L230.41,710.24 L230.4,710.25 L230.39,710.25 L230.38,710.25 L230.37,710.25 L230.37,710.26 L230.36,710.26 L230.35,710.26 L230.35,710.26 L230.34,710.26 L230.34,710.26 L230.33,710.26 L230.33,710.26 L230.32,710.26 L230.31,710.26 L230.3,710.26 L230.3,710.26 L230.29,710.26 L230.28,710.26 L230.27,710.26 L230.27,710.26 L230.26,710.26 L230.25,710.26 L230.24,710.26 C229.79,709.82,229.16,709.81,228.87,709.81 V709.56 C229.04,709.56,229.5,709.56,229.88,709.76 V706.2 C229.88,705.97,229.88,705.88,229.19,705.88 H228.92 V705.63 C229.05,705.64,229.9,705.66,230.16,705.66 C230.38,705.66,231.26,705.64,231.41,705.63 V705.88 H231.15 C230.45,705.88,230.45,705.97,230.45,706.2 Z "
   stroke-width="0"
   fill="black"
   id="path3517" />
<path
   d="M235.6,706.9 H235.37 C235.34,706.75,235.27,706.33,235.18,706.27 C235.13,706.22,234.59,706.22,234.49,706.22 H233.21 C233.94,706.87,234.19,707.07,234.6,707.39 C235.12,707.81,235.6,708.24,235.6,708.9 C235.6,709.74,234.86,710.26,233.97,710.26 C233.1,710.26,232.52,709.65,232.52,709.01 C232.52,708.66,232.82,708.62,232.89,708.62 C233.06,708.62,233.26,708.74,233.26,708.99 C233.26,709.12,233.21,709.36,232.85,709.36 C233.06,709.86,233.54,710.01,233.87,710.01 C234.56,710.01,234.93,709.47,234.93,708.9 C234.93,708.29,234.49,707.81,234.27,707.56 L232.59,705.9 C232.52,705.84,232.52,705.83,232.52,705.63 H235.39 Z "
   stroke-width="0"
   fill="black"
   id="path3519" />
</g>    <g
       style="font-style:normal;font-variant:normal;font-weight:normal;font-stretch:normal;letter-spacing:normal;word-spacing:normal;text-anchor:start;fill:none;fill-opacity:1;stroke:#000000;stroke-linecap:butt;stroke-linejoin:miter;stroke-miterlimit:10.43299961;stroke-dasharray:none;stroke-dashoffset:0;stroke-opacity:1"
       ns0:preamble=""
       ns0:text="$\\theta_{13}$"
       word-spacing="normal"
       letter-spacing="normal"
       font-size-adjust="none"
       font-stretch="normal"
       font-weight="normal"
       font-variant="normal"
       font-style="normal"
       fill-rule="even-odd"
       stroke-miterlimit="10.433"
       xml:space="preserve"
       transform="matrix(3.5211299,0,0,-3.5211299,-301.65564,2576.9771)"
       id="g3613">
<path
   style="fill:#000000;stroke-width:0"
   id="path3615"
   d="M 227.96,712.1 L 227.96,712.17 L 227.96,712.24 L 227.96,712.31 L 227.96,712.38 L 227.95,712.46 L 227.94,712.54 L 227.93,712.62 L 227.92,712.7 L 227.91,712.78 L 227.89,712.87 L 227.87,712.95 L 227.85,713.04 L 227.83,713.12 L 227.81,713.21 L 227.78,713.29 L 227.75,713.37 L 227.71,713.45 L 227.68,713.53 L 227.64,713.6 L 227.59,713.67 L 227.55,713.74 L 227.5,713.8 L 227.44,713.86 L 227.39,713.92 L 227.32,713.97 L 227.29,713.99 L 227.26,714.01 L 227.22,714.03 L 227.19,714.05 L 227.15,714.07 L 227.11,714.09 L 227.07,714.1 L 227.03,714.11 L 226.99,714.12 L 226.95,714.13 L 226.91,714.14 L 226.86,714.14 L 226.82,714.14 L 226.77,714.15 L 226.76,713.93 C 227.25,713.93 227.31,713.29 227.31,712.72 C 227.31,712.23 227.23,711.72 226.99,710.74 L 224.91,710.74 C 225.08,711.38 225.28,712.17 225.67,712.88 C 225.94,713.37 226.31,713.93 226.76,713.93 L 226.77,714.15 C 225.38,714.15 223.85,711.34 223.85,709.05 C 223.85,708.12 224.14,707.01 225.05,707.01 L 225.05,707.23 C 224.72,707.23 224.51,707.52 224.51,708.45 C 224.51,708.87 224.57,709.44 224.83,710.42 L 226.9,710.42 C 226.79,709.96 226.58,709.11 226.2,708.4 C 225.85,707.72 225.48,707.23 225.05,707.23 L 225.05,707.01 C 226.45,707.01 227.96,709.87 227.96,712.1 z" />
<path
   style="fill:#000000;stroke-width:0"
   id="path3617"
   d="M 230.45,710.07 L 230.45,710.07 L 230.45,710.08 L 230.45,710.09 L 230.45,710.1 L 230.45,710.11 L 230.45,710.11 L 230.45,710.12 L 230.45,710.13 L 230.45,710.13 L 230.45,710.14 L 230.45,710.15 L 230.45,710.15 L 230.45,710.16 L 230.45,710.16 L 230.44,710.17 L 230.44,710.18 L 230.44,710.18 L 230.44,710.19 L 230.44,710.19 L 230.44,710.2 L 230.43,710.21 L 230.43,710.22 L 230.43,710.22 L 230.42,710.23 L 230.42,710.23 L 230.41,710.24 L 230.41,710.24 L 230.4,710.25 L 230.39,710.25 L 230.38,710.25 L 230.37,710.25 L 230.37,710.26 L 230.36,710.26 L 230.35,710.26 L 230.35,710.26 L 230.34,710.26 L 230.34,710.26 L 230.33,710.26 L 230.33,710.26 L 230.32,710.26 L 230.31,710.26 L 230.3,710.26 L 230.3,710.26 L 230.29,710.26 L 230.28,710.26 L 230.27,710.26 L 230.27,710.26 L 230.26,710.26 L 230.25,710.26 L 230.24,710.26 C 229.79,709.82 229.16,709.81 228.87,709.81 L 228.87,709.56 C 229.04,709.56 229.5,709.56 229.88,709.76 L 229.88,706.2 C 229.88,705.97 229.88,705.88 229.19,705.88 L 228.92,705.88 L 228.92,705.63 C 229.05,705.64 229.9,705.66 230.16,705.66 C 230.38,705.66 231.26,705.64 231.41,705.63 L 231.41,705.88 L 231.15,705.88 C 230.45,705.88 230.45,705.97 230.45,706.2 L 230.45,710.07 z" />
<path
   style="fill:#000000;stroke-width:0"
   id="path3619"
   d="M 233.98,707.96 L 234.03,707.96 L 234.08,707.95 L 234.13,707.95 L 234.18,707.94 L 234.23,707.93 L 234.27,707.92 L 234.32,707.91 L 234.36,707.89 L 234.4,707.87 L 234.44,707.85 L 234.48,707.83 L 234.52,707.8 L 234.55,707.77 L 234.59,707.74 L 234.62,707.71 L 234.65,707.68 L 234.69,707.64 L 234.71,707.6 L 234.74,707.56 L 234.77,707.52 L 234.79,707.47 L 234.81,707.43 L 234.83,707.38 L 234.85,707.33 L 234.86,707.27 L 234.88,707.22 L 234.89,707.16 L 234.9,707.1 L 234.91,707.04 L 234.91,706.97 L 234.92,706.9 L 234.92,706.84 C 234.92,705.97 234.42,705.71 234.01,705.71 C 233.73,705.71 233.12,705.79 232.83,706.2 C 233.15,706.22 233.23,706.45 233.23,706.59 C 233.23,706.82 233.06,706.98 232.85,706.98 C 232.65,706.98 232.46,706.86 232.46,706.57 C 232.46,705.92 233.18,705.49 234.03,705.49 C 234.99,705.49 235.66,706.14 235.66,706.84 C 235.66,707.38 235.22,707.92 234.45,708.09 C 235.18,708.35 235.45,708.87 235.45,709.3 C 235.45,709.85 234.81,710.26 234.04,710.26 C 233.27,710.26 232.67,709.88 232.67,709.33 C 232.67,709.09 232.83,708.96 233.04,708.96 C 233.25,708.96 233.39,709.12 233.39,709.31 C 233.39,709.51 233.25,709.66 233.04,709.67 C 233.28,709.98 233.76,710.06 234.02,710.06 C 234.33,710.06 234.77,709.91 234.77,709.3 C 234.77,709.01 234.67,708.68 234.49,708.47 C 234.26,708.2 234.07,708.19 233.72,708.17 C 233.54,708.16 233.53,708.16 233.5,708.15 C 233.48,708.15 233.43,708.13 233.43,708.06 C 233.43,707.96 233.49,707.96 233.61,707.96 L 233.98,707.96 z" />
</g>    <g
       id="g3713"
       transform="matrix(3.5211299,0,0,-3.5211299,-481.65564,2576.9771)"
       xml:space="preserve"
       stroke="black"
       stroke-linecap="butt"
       stroke-linejoin="miter"
       stroke-miterlimit="10.433"
       stroke-dasharray="none"
       stroke-dashoffset="0"
       stroke-opacity="1"
       fill="none"
       fill-rule="even-odd"
       fill-opacity="1"
       font-style="normal"
       font-variant="normal"
       font-weight="normal"
       font-stretch="normal"
       font-size-adjust="none"
       letter-spacing="normal"
       word-spacing="normal"
       text-anchor="start"
       ns0:text="$\\theta_{14}$"
       ns0:preamble=""
       style="font-style:normal;font-variant:normal;font-weight:normal;font-stretch:normal;letter-spacing:normal;word-spacing:normal;text-anchor:start;fill:none;fill-opacity:1;stroke:#000000;stroke-linecap:butt;stroke-linejoin:miter;stroke-miterlimit:10.43299961;stroke-dasharray:none;stroke-dashoffset:0;stroke-opacity:1">
<path
   d="M227.96,712.1 L227.96,712.17 L227.96,712.24 L227.96,712.31 L227.96,712.38 L227.95,712.46 L227.94,712.54 L227.93,712.62 L227.92,712.7 L227.91,712.78 L227.89,712.87 L227.87,712.95 L227.85,713.04 L227.83,713.12 L227.81,713.21 L227.78,713.29 L227.75,713.37 L227.71,713.45 L227.68,713.53 L227.64,713.6 L227.59,713.67 L227.55,713.74 L227.5,713.8 L227.44,713.86 L227.39,713.92 L227.32,713.97 L227.29,713.99 L227.26,714.01 L227.22,714.03 L227.19,714.05 L227.15,714.07 L227.11,714.09 L227.07,714.1 L227.03,714.11 L226.99,714.12 L226.95,714.13 L226.91,714.14 L226.86,714.14 L226.82,714.14 L226.77,714.15 L226.76,713.93 C227.25,713.93,227.31,713.29,227.31,712.72 C227.31,712.23,227.23,711.72,226.99,710.74 H224.91 C225.08,711.38,225.28,712.17,225.67,712.88 C225.94,713.37,226.31,713.93,226.76,713.93 L226.77,714.15 C225.38,714.15,223.85,711.34,223.85,709.05 C223.85,708.12,224.14,707.01,225.05,707.01 V707.23 C224.72,707.23,224.51,707.52,224.51,708.45 C224.51,708.87,224.57,709.44,224.83,710.42 H226.9 C226.79,709.96,226.58,709.11,226.2,708.4 C225.85,707.72,225.48,707.23,225.05,707.23 V707.01 C226.45,707.01,227.96,709.87,227.96,712.1 Z "
   stroke-width="0"
   fill="black"
   id="path3715" />
<path
   d="M230.45,710.07 L230.45,710.07 L230.45,710.08 L230.45,710.09 L230.45,710.1 L230.45,710.11 L230.45,710.11 L230.45,710.12 L230.45,710.13 L230.45,710.13 L230.45,710.14 L230.45,710.15 L230.45,710.15 L230.45,710.16 L230.45,710.16 L230.44,710.17 L230.44,710.18 L230.44,710.18 L230.44,710.19 L230.44,710.19 L230.44,710.2 L230.43,710.21 L230.43,710.22 L230.43,710.22 L230.42,710.23 L230.42,710.23 L230.41,710.24 L230.41,710.24 L230.4,710.25 L230.39,710.25 L230.38,710.25 L230.37,710.25 L230.37,710.26 L230.36,710.26 L230.35,710.26 L230.35,710.26 L230.34,710.26 L230.34,710.26 L230.33,710.26 L230.33,710.26 L230.32,710.26 L230.31,710.26 L230.3,710.26 L230.3,710.26 L230.29,710.26 L230.28,710.26 L230.27,710.26 L230.27,710.26 L230.26,710.26 L230.25,710.26 L230.24,710.26 C229.79,709.82,229.16,709.81,228.87,709.81 V709.56 C229.04,709.56,229.5,709.56,229.88,709.76 V706.2 C229.88,705.97,229.88,705.88,229.19,705.88 H228.92 V705.63 C229.05,705.64,229.9,705.66,230.16,705.66 C230.38,705.66,231.26,705.64,231.41,705.63 V705.88 H231.15 C230.45,705.88,230.45,705.97,230.45,706.2 Z "
   stroke-width="0"
   fill="black"
   id="path3717" />
<path
   d="M235.77,706.77 V707.03 H234.99 V710.14 C234.99,710.28,234.99,710.33,234.84,710.33 C234.76,710.33,234.73,710.33,234.66,710.23 L232.35,707.03 V706.77 H234.4 L234.45,707.03 H232.61 L234.45,709.58 V707.03 L234.4,706.77 V706.2 C234.4,705.97,234.4,705.88,233.84,705.88 H233.65 V705.63 C234,705.64,234.44,705.66,234.7,705.66 C234.95,705.66,235.4,705.64,235.75,705.63 V705.88 H235.56 C234.99,705.88,234.99,705.97,234.99,706.2 V706.77 Z "
   stroke-width="0"
   fill="black"
   id="path3719" />
</g>    <g
       style="font-style:normal;font-variant:normal;font-weight:normal;font-stretch:normal;letter-spacing:normal;word-spacing:normal;text-anchor:start;fill:none;fill-opacity:1;stroke:#000000;stroke-linecap:butt;stroke-linejoin:miter;stroke-miterlimit:10.43299961;stroke-dasharray:none;stroke-dashoffset:0;stroke-opacity:1"
       ns0:preamble=""
       ns0:text="$\\theta_{15}$"
       word-spacing="normal"
       letter-spacing="normal"
       font-size-adjust="none"
       font-stretch="normal"
       font-weight="normal"
       font-variant="normal"
       font-style="normal"
       fill-rule="even-odd"
       stroke-miterlimit="10.433"
       xml:space="preserve"
       transform="matrix(3.5211299,0,0,-3.5211299,-303.38102,2666.9771)"
       id="g3813">
<path
   style="fill:#000000;stroke-width:0"
   id="path3815"
   d="M 227.96,712.1 L 227.96,712.17 L 227.96,712.24 L 227.96,712.31 L 227.96,712.38 L 227.95,712.46 L 227.94,712.54 L 227.93,712.62 L 227.92,712.7 L 227.91,712.78 L 227.89,712.87 L 227.87,712.95 L 227.85,713.04 L 227.83,713.12 L 227.81,713.21 L 227.78,713.29 L 227.75,713.37 L 227.71,713.45 L 227.68,713.53 L 227.64,713.6 L 227.59,713.67 L 227.55,713.74 L 227.5,713.8 L 227.44,713.86 L 227.39,713.92 L 227.32,713.97 L 227.29,713.99 L 227.26,714.01 L 227.22,714.03 L 227.19,714.05 L 227.15,714.07 L 227.11,714.09 L 227.07,714.1 L 227.03,714.11 L 226.99,714.12 L 226.95,714.13 L 226.91,714.14 L 226.86,714.14 L 226.82,714.14 L 226.77,714.15 L 226.76,713.93 C 227.25,713.93 227.31,713.29 227.31,712.72 C 227.31,712.23 227.23,711.72 226.99,710.74 L 224.91,710.74 C 225.08,711.38 225.28,712.17 225.67,712.88 C 225.94,713.37 226.31,713.93 226.76,713.93 L 226.77,714.15 C 225.38,714.15 223.85,711.34 223.85,709.05 C 223.85,708.12 224.14,707.01 225.05,707.01 L 225.05,707.23 C 224.72,707.23 224.51,707.52 224.51,708.45 C 224.51,708.87 224.57,709.44 224.83,710.42 L 226.9,710.42 C 226.79,709.96 226.58,709.11 226.2,708.4 C 225.85,707.72 225.48,707.23 225.05,707.23 L 225.05,707.01 C 226.45,707.01 227.96,709.87 227.96,712.1 z" />
<path
   style="fill:#000000;stroke-width:0"
   id="path3817"
   d="M 230.45,710.07 L 230.45,710.07 L 230.45,710.08 L 230.45,710.09 L 230.45,710.1 L 230.45,710.11 L 230.45,710.11 L 230.45,710.12 L 230.45,710.13 L 230.45,710.13 L 230.45,710.14 L 230.45,710.15 L 230.45,710.15 L 230.45,710.16 L 230.45,710.16 L 230.44,710.17 L 230.44,710.18 L 230.44,710.18 L 230.44,710.19 L 230.44,710.19 L 230.44,710.2 L 230.43,710.21 L 230.43,710.22 L 230.43,710.22 L 230.42,710.23 L 230.42,710.23 L 230.41,710.24 L 230.41,710.24 L 230.4,710.25 L 230.39,710.25 L 230.38,710.25 L 230.37,710.25 L 230.37,710.26 L 230.36,710.26 L 230.35,710.26 L 230.35,710.26 L 230.34,710.26 L 230.34,710.26 L 230.33,710.26 L 230.33,710.26 L 230.32,710.26 L 230.31,710.26 L 230.3,710.26 L 230.3,710.26 L 230.29,710.26 L 230.28,710.26 L 230.27,710.26 L 230.27,710.26 L 230.26,710.26 L 230.25,710.26 L 230.24,710.26 C 229.79,709.82 229.16,709.81 228.87,709.81 L 228.87,709.56 C 229.04,709.56 229.5,709.56 229.88,709.76 L 229.88,706.2 C 229.88,705.97 229.88,705.88 229.19,705.88 L 228.92,705.88 L 228.92,705.63 C 229.05,705.64 229.9,705.66 230.16,705.66 C 230.38,705.66 231.26,705.64 231.41,705.63 L 231.41,705.88 L 231.15,705.88 C 230.45,705.88 230.45,705.97 230.45,706.2 L 230.45,710.07 z" />
<path
   style="fill:#000000;stroke-width:0"
   id="path3819"
   d="M 233.16,709.52 L 233.19,709.51 L 233.23,709.51 L 233.26,709.5 L 233.29,709.49 L 233.32,709.49 L 233.35,709.48 L 233.37,709.47 L 233.4,709.47 L 233.43,709.46 L 233.45,709.46 L 233.48,709.46 L 233.5,709.45 L 233.53,709.45 L 233.55,709.45 L 233.57,709.44 L 233.59,709.44 L 233.61,709.44 L 233.63,709.44 L 233.65,709.44 L 233.67,709.44 L 233.69,709.43 L 233.7,709.43 L 233.72,709.43 L 233.73,709.43 L 233.75,709.43 L 233.76,709.43 L 233.78,709.43 L 233.79,709.43 L 233.8,709.43 L 233.82,709.43 L 233.83,709.43 L 233.84,709.43 C 234.76,709.43 235.3,710.06 235.3,710.16 C 235.3,710.24 235.25,710.26 235.22,710.26 C 235.2,710.26 235.19,710.26 235.16,710.24 C 234.99,710.18 234.62,710.04 234.11,710.04 C 233.91,710.04 233.54,710.05 233.09,710.23 C 233.02,710.26 233.01,710.26 233,710.26 C 232.91,710.26 232.91,710.18 232.91,710.07 L 232.91,708.02 C 232.91,707.9 232.91,707.81 233.02,707.81 C 233.08,707.81 233.09,707.83 233.16,707.91 C 233.46,708.29 233.89,708.35 234.13,708.35 C 234.55,708.35 234.74,708.02 234.77,707.96 C 234.9,707.73 234.94,707.46 234.94,707.06 C 234.94,706.85 234.94,706.44 234.73,706.13 C 234.56,705.88 234.26,705.71 233.91,705.71 C 233.46,705.71 232.99,705.97 232.82,706.42 C 233.08,706.4 233.22,706.58 233.22,706.77 C 233.22,707.07 232.96,707.12 232.87,707.12 C 232.85,707.12 232.52,707.12 232.52,706.75 C 232.52,706.12 233.09,705.49 233.93,705.49 C 234.82,705.49 235.6,706.15 235.6,707.03 C 235.6,707.82 235,708.54 234.14,708.54 C 233.83,708.54 233.47,708.47 233.16,708.2 L 233.16,709.52 z" />
</g>    <g
       id="g3913"
       transform="matrix(3.5211299,0,0,-3.5211299,-571.65564,2576.9771)"
       xml:space="preserve"
       stroke-miterlimit="10.433"
       fill-rule="even-odd"
       font-style="normal"
       font-variant="normal"
       font-weight="normal"
       font-stretch="normal"
       font-size-adjust="none"
       letter-spacing="normal"
       word-spacing="normal"
       ns0:text="$\\theta_{16}$"
       ns0:preamble=""
       style="font-style:normal;font-variant:normal;font-weight:normal;font-stretch:normal;letter-spacing:normal;word-spacing:normal;text-anchor:start;fill:none;fill-opacity:1;stroke:#000000;stroke-linecap:butt;stroke-linejoin:miter;stroke-miterlimit:10.43299961;stroke-dasharray:none;stroke-dashoffset:0;stroke-opacity:1">
<path
   style="fill:#000000;stroke-width:0"
   d="M 227.96,712.1 L 227.96,712.17 L 227.96,712.24 L 227.96,712.31 L 227.96,712.38 L 227.95,712.46 L 227.94,712.54 L 227.93,712.62 L 227.92,712.7 L 227.91,712.78 L 227.89,712.87 L 227.87,712.95 L 227.85,713.04 L 227.83,713.12 L 227.81,713.21 L 227.78,713.29 L 227.75,713.37 L 227.71,713.45 L 227.68,713.53 L 227.64,713.6 L 227.59,713.67 L 227.55,713.74 L 227.5,713.8 L 227.44,713.86 L 227.39,713.92 L 227.32,713.97 L 227.29,713.99 L 227.26,714.01 L 227.22,714.03 L 227.19,714.05 L 227.15,714.07 L 227.11,714.09 L 227.07,714.1 L 227.03,714.11 L 226.99,714.12 L 226.95,714.13 L 226.91,714.14 L 226.86,714.14 L 226.82,714.14 L 226.77,714.15 L 226.76,713.93 C 227.25,713.93 227.31,713.29 227.31,712.72 C 227.31,712.23 227.23,711.72 226.99,710.74 L 224.91,710.74 C 225.08,711.38 225.28,712.17 225.67,712.88 C 225.94,713.37 226.31,713.93 226.76,713.93 L 226.77,714.15 C 225.38,714.15 223.85,711.34 223.85,709.05 C 223.85,708.12 224.14,707.01 225.05,707.01 L 225.05,707.23 C 224.72,707.23 224.51,707.52 224.51,708.45 C 224.51,708.87 224.57,709.44 224.83,710.42 L 226.9,710.42 C 226.79,709.96 226.58,709.11 226.2,708.4 C 225.85,707.72 225.48,707.23 225.05,707.23 L 225.05,707.01 C 226.45,707.01 227.96,709.87 227.96,712.1 z"
   id="path3915" />
<path
   style="fill:#000000;stroke-width:0"
   d="M 230.45,710.07 L 230.45,710.07 L 230.45,710.08 L 230.45,710.09 L 230.45,710.1 L 230.45,710.11 L 230.45,710.11 L 230.45,710.12 L 230.45,710.13 L 230.45,710.13 L 230.45,710.14 L 230.45,710.15 L 230.45,710.15 L 230.45,710.16 L 230.45,710.16 L 230.44,710.17 L 230.44,710.18 L 230.44,710.18 L 230.44,710.19 L 230.44,710.19 L 230.44,710.2 L 230.43,710.21 L 230.43,710.22 L 230.43,710.22 L 230.42,710.23 L 230.42,710.23 L 230.41,710.24 L 230.41,710.24 L 230.4,710.25 L 230.39,710.25 L 230.38,710.25 L 230.37,710.25 L 230.37,710.26 L 230.36,710.26 L 230.35,710.26 L 230.35,710.26 L 230.34,710.26 L 230.34,710.26 L 230.33,710.26 L 230.33,710.26 L 230.32,710.26 L 230.31,710.26 L 230.3,710.26 L 230.3,710.26 L 230.29,710.26 L 230.28,710.26 L 230.27,710.26 L 230.27,710.26 L 230.26,710.26 L 230.25,710.26 L 230.24,710.26 C 229.79,709.82 229.16,709.81 228.87,709.81 L 228.87,709.56 C 229.04,709.56 229.5,709.56 229.88,709.76 L 229.88,706.2 C 229.88,705.97 229.88,705.88 229.19,705.88 L 228.92,705.88 L 228.92,705.63 C 229.05,705.64 229.9,705.66 230.16,705.66 C 230.38,705.66 231.26,705.64 231.41,705.63 L 231.41,705.88 L 231.15,705.88 C 230.45,705.88 230.45,705.97 230.45,706.2 L 230.45,710.07 z"
   id="path3917" />
<path
   style="fill:#000000;stroke-width:0"
   d="M 233.13,707.91 L 233.13,708.02 L 233.13,708.12 L 233.13,708.23 L 233.14,708.33 L 233.15,708.43 L 233.16,708.53 L 233.17,708.63 L 233.18,708.72 L 233.2,708.82 L 233.22,708.91 L 233.25,709 L 233.28,709.09 L 233.3,709.13 L 233.31,709.18 L 233.33,709.22 L 233.35,709.26 L 233.37,709.3 L 233.39,709.34 L 233.42,709.38 L 233.44,709.42 C 233.68,709.8 234.05,710.06 234.5,710.06 C 234.71,710.06 234.99,710 235.13,709.81 C 234.95,709.8 234.81,709.68 234.81,709.48 C 234.81,709.3 234.93,709.15 235.13,709.15 C 235.34,709.15 235.47,709.29 235.47,709.49 C 235.47,709.9 235.18,710.26 234.49,710.26 C 233.48,710.26 232.46,709.34 232.46,707.84 C 232.46,706.03 233.31,705.49 234.07,705.49 C 234.93,705.49 235.66,706.14 235.66,707.05 C 235.66,707.94 234.96,708.59 234.14,708.59 L 234.11,708.4 C 234.43,708.4 234.65,708.27 234.82,708.02 C 234.99,707.75 234.99,707.46 234.99,707.05 C 234.99,706.66 234.99,706.36 234.81,706.09 C 234.64,705.85 234.42,705.71 234.07,705.71 L 234.07,705.71 C 233.73,705.71 233.45,705.92 233.31,706.22 C 233.2,706.43 233.15,706.78 233.15,707.2 C 233.15,707.88 233.55,708.4 234.11,708.4 L 234.14,708.59 C 233.59,708.59 233.28,708.22 233.13,707.91 z"
   id="path3919" />
</g>    <g
       style="font-style:normal;font-variant:normal;font-weight:normal;font-stretch:normal;letter-spacing:normal;word-spacing:normal;text-anchor:start;fill:none;fill-opacity:1;stroke:#000000;stroke-linecap:butt;stroke-linejoin:miter;stroke-miterlimit:10.43299961;stroke-dasharray:none;stroke-dashoffset:0;stroke-opacity:1"
       ns0:preamble=""
       ns0:text="$\\phi_{3}$"
       word-spacing="normal"
       letter-spacing="normal"
       font-size-adjust="none"
       font-stretch="normal"
       font-weight="normal"
       font-variant="normal"
       font-style="normal"
       fill-rule="even-odd"
       stroke-miterlimit="10.433"
       xml:space="preserve"
       transform="matrix(3.5211299,0,0,-3.5211299,-419.35282,2626.5757)"
       id="g4089">


<g
   id="g4168"
   transform="matrix(1.000000,0,0,-1.000000,-200.000000,750.000000)"
   xml:space="preserve"
   stroke="black"
   stroke-linecap="butt"
   stroke-linejoin="miter"
   stroke-miterlimit="10.433"
   stroke-dasharray="none"
   stroke-dashoffset="0"
   stroke-opacity="1"
   fill="none"
   fill-rule="even-odd"
   fill-opacity="1"
   font-style="normal"
   font-variant="normal"
   font-weight="normal"
   font-stretch="normal"
   font-size-adjust="none"
   letter-spacing="normal"
   word-spacing="normal"
   text-anchor="start"
   ns0:text="$\\phi_2$"
   ns0:preamble="">
<path
   d="M227.79,713.8 L227.79,713.8 L227.79,713.8 L227.79,713.8 L227.79,713.8 L227.79,713.8 L227.79,713.8 L227.79,713.81 L227.79,713.81 L227.79,713.81 L227.79,713.82 L227.79,713.82 L227.79,713.83 L227.79,713.83 L227.79,713.84 L227.79,713.84 L227.8,713.85 L227.8,713.85 L227.8,713.86 L227.8,713.87 L227.8,713.88 L227.81,713.89 L227.81,713.89 L227.81,713.9 L227.81,713.9 L227.81,713.91 L227.81,713.91 L227.81,713.92 L227.81,713.92 L227.81,713.93 L227.81,713.93 L227.81,713.93 L227.81,713.93 L227.82,713.93 L227.82,713.93 L227.82,713.93 L227.82,713.93 L227.82,713.94 L227.82,713.94 L227.82,713.94 C227.82,713.95,227.82,714.04,227.7,714.04 C227.6,714.04,227.59,714.01,227.55,713.84 L226.97,711.54 C225.38,711.49,223.92,710.16,223.92,708.81 C223.92,707.86,224.62,707.07,225.83,707 L225.88,707.22 C225.29,707.25,224.57,707.6,224.57,708.6 C224.57,709.79,225.43,711.19,226.91,711.32 L225.88,707.22 L225.83,707 C225.75,706.69,225.68,706.38,225.6,706.07 C225.49,705.6,225.38,705.22,225.38,705.19 C225.38,705.09,225.46,705.08,225.51,705.08 C225.55,705.08,225.57,705.09,225.6,705.12 C225.62,705.14,225.68,705.38,225.71,705.52 C225.84,706.01,225.96,706.51,226.09,707 L226.14,707.22 L227.17,711.32 C227.93,711.28,228.49,710.82,228.49,709.94 C228.49,708.77,227.64,707.34,226.14,707.22 L226.09,707 C227.7,707.05,229.14,708.4,229.14,709.73 C229.14,710.52,228.61,711.44,227.23,711.54 Z "
   stroke-width="0"
   fill="black"
   id="path4170" />
<path
   d="M232.89,706.9 H232.65 C232.63,706.75,232.56,706.33,232.47,706.27 C232.41,706.22,231.88,706.22,231.78,706.22 H230.49 C231.23,706.87,231.47,707.07,231.89,707.39 C232.41,707.81,232.89,708.24,232.89,708.9 C232.89,709.74,232.15,710.26,231.26,710.26 C230.39,710.26,229.8,709.65,229.8,709.01 C229.8,708.66,230.1,708.62,230.17,708.62 C230.34,708.62,230.54,708.74,230.54,708.99 C230.54,709.12,230.49,709.36,230.13,709.36 C230.35,709.86,230.82,710.01,231.15,710.01 C231.85,710.01,232.21,709.47,232.21,708.9 C232.21,708.29,231.78,707.81,231.55,707.56 L229.87,705.9 C229.8,705.84,229.8,705.83,229.8,705.63 H232.68 Z "
   stroke-width="0"
   fill="black"
   id="path4172" />
</g>
</g>    <g
       id="g4802"
       transform="matrix(3.5211299,0,0,-3.5211299,-681.65564,2886.9771)"
       xml:space="preserve"
       stroke-miterlimit="10.433"
       fill-rule="even-odd"
       font-style="normal"
       font-variant="normal"
       font-weight="normal"
       font-stretch="normal"
       font-size-adjust="none"
       letter-spacing="normal"
       word-spacing="normal"
       ns0:text="$\\theta_{14}$"
       ns0:preamble=""
       style="font-style:normal;font-variant:normal;font-weight:normal;font-stretch:normal;letter-spacing:normal;word-spacing:normal;text-anchor:start;fill:none;fill-opacity:1;stroke:#000000;stroke-linecap:butt;stroke-linejoin:miter;stroke-miterlimit:10.43299961;stroke-dasharray:none;stroke-dashoffset:0;stroke-opacity:1">
<path
   style="fill:#000000;stroke-width:0"
   d="M 227.96,712.1 L 227.96,712.17 L 227.96,712.24 L 227.96,712.31 L 227.96,712.38 L 227.95,712.46 L 227.94,712.54 L 227.93,712.62 L 227.92,712.7 L 227.91,712.78 L 227.89,712.87 L 227.87,712.95 L 227.85,713.04 L 227.83,713.12 L 227.81,713.21 L 227.78,713.29 L 227.75,713.37 L 227.71,713.45 L 227.68,713.53 L 227.64,713.6 L 227.59,713.67 L 227.55,713.74 L 227.5,713.8 L 227.44,713.86 L 227.39,713.92 L 227.32,713.97 L 227.29,713.99 L 227.26,714.01 L 227.22,714.03 L 227.19,714.05 L 227.15,714.07 L 227.11,714.09 L 227.07,714.1 L 227.03,714.11 L 226.99,714.12 L 226.95,714.13 L 226.91,714.14 L 226.86,714.14 L 226.82,714.14 L 226.77,714.15 L 226.76,713.93 C 227.25,713.93 227.31,713.29 227.31,712.72 C 227.31,712.23 227.23,711.72 226.99,710.74 L 224.91,710.74 C 225.08,711.38 225.28,712.17 225.67,712.88 C 225.94,713.37 226.31,713.93 226.76,713.93 L 226.77,714.15 C 225.38,714.15 223.85,711.34 223.85,709.05 C 223.85,708.12 224.14,707.01 225.05,707.01 L 225.05,707.23 C 224.72,707.23 224.51,707.52 224.51,708.45 C 224.51,708.87 224.57,709.44 224.83,710.42 L 226.9,710.42 C 226.79,709.96 226.58,709.11 226.2,708.4 C 225.85,707.72 225.48,707.23 225.05,707.23 L 225.05,707.01 C 226.45,707.01 227.96,709.87 227.96,712.1 z"
   id="path4804" />
<path
   style="fill:#000000;stroke-width:0"
   d="M 230.45,710.07 L 230.45,710.07 L 230.45,710.08 L 230.45,710.09 L 230.45,710.1 L 230.45,710.11 L 230.45,710.11 L 230.45,710.12 L 230.45,710.13 L 230.45,710.13 L 230.45,710.14 L 230.45,710.15 L 230.45,710.15 L 230.45,710.16 L 230.45,710.16 L 230.44,710.17 L 230.44,710.18 L 230.44,710.18 L 230.44,710.19 L 230.44,710.19 L 230.44,710.2 L 230.43,710.21 L 230.43,710.22 L 230.43,710.22 L 230.42,710.23 L 230.42,710.23 L 230.41,710.24 L 230.41,710.24 L 230.4,710.25 L 230.39,710.25 L 230.38,710.25 L 230.37,710.25 L 230.37,710.26 L 230.36,710.26 L 230.35,710.26 L 230.35,710.26 L 230.34,710.26 L 230.34,710.26 L 230.33,710.26 L 230.33,710.26 L 230.32,710.26 L 230.31,710.26 L 230.3,710.26 L 230.3,710.26 L 230.29,710.26 L 230.28,710.26 L 230.27,710.26 L 230.27,710.26 L 230.26,710.26 L 230.25,710.26 L 230.24,710.26 C 229.79,709.82 229.16,709.81 228.87,709.81 L 228.87,709.56 C 229.04,709.56 229.5,709.56 229.88,709.76 L 229.88,706.2 C 229.88,705.97 229.88,705.88 229.19,705.88 L 228.92,705.88 L 228.92,705.63 C 229.05,705.64 229.9,705.66 230.16,705.66 C 230.38,705.66 231.26,705.64 231.41,705.63 L 231.41,705.88 L 231.15,705.88 C 230.45,705.88 230.45,705.97 230.45,706.2 L 230.45,710.07 z"
   id="path4806" />
<path
   style="fill:#000000;stroke-width:0"
   d="M 235.77,706.77 L 235.77,707.03 L 234.99,707.03 L 234.99,710.14 C 234.99,710.28 234.99,710.33 234.84,710.33 C 234.76,710.33 234.73,710.33 234.66,710.23 L 232.35,707.03 L 232.35,706.77 L 234.4,706.77 L 234.45,707.03 L 232.61,707.03 L 234.45,709.58 L 234.45,707.03 L 234.4,706.77 L 234.4,706.2 C 234.4,705.97 234.4,705.88 233.84,705.88 L 233.65,705.88 L 233.65,705.63 C 234,705.64 234.44,705.66 234.7,705.66 C 234.95,705.66 235.4,705.64 235.75,705.63 L 235.75,705.88 L 235.56,705.88 C 234.99,705.88 234.99,705.97 234.99,706.2 L 234.99,706.77 L 235.77,706.77 z"
   id="path4808" />
</g>    <g
       id="g4810"
       transform="matrix(3.5211299,0,0,-3.5211299,-489.5782,2796.9771)"
       xml:space="preserve"
       stroke-miterlimit="10.433"
       fill-rule="even-odd"
       font-style="normal"
       font-variant="normal"
       font-weight="normal"
       font-stretch="normal"
       font-size-adjust="none"
       letter-spacing="normal"
       word-spacing="normal"
       ns0:text="$\\theta_{12}$"
       ns0:preamble=""
       style="font-style:normal;font-variant:normal;font-weight:normal;font-stretch:normal;letter-spacing:normal;word-spacing:normal;text-anchor:start;fill:none;fill-opacity:1;stroke:#000000;stroke-linecap:butt;stroke-linejoin:miter;stroke-miterlimit:10.43299961;stroke-dasharray:none;stroke-dashoffset:0;stroke-opacity:1">
<path
   style="fill:#000000;stroke-width:0"
   d="M 227.96,712.1 L 227.96,712.17 L 227.96,712.24 L 227.96,712.31 L 227.96,712.38 L 227.95,712.46 L 227.94,712.54 L 227.93,712.62 L 227.92,712.7 L 227.91,712.78 L 227.89,712.87 L 227.87,712.95 L 227.85,713.04 L 227.83,713.12 L 227.81,713.21 L 227.78,713.29 L 227.75,713.37 L 227.71,713.45 L 227.68,713.53 L 227.64,713.6 L 227.59,713.67 L 227.55,713.74 L 227.5,713.8 L 227.44,713.86 L 227.39,713.92 L 227.32,713.97 L 227.29,713.99 L 227.26,714.01 L 227.22,714.03 L 227.19,714.05 L 227.15,714.07 L 227.11,714.09 L 227.07,714.1 L 227.03,714.11 L 226.99,714.12 L 226.95,714.13 L 226.91,714.14 L 226.86,714.14 L 226.82,714.14 L 226.77,714.15 L 226.76,713.93 C 227.25,713.93 227.31,713.29 227.31,712.72 C 227.31,712.23 227.23,711.72 226.99,710.74 L 224.91,710.74 C 225.08,711.38 225.28,712.17 225.67,712.88 C 225.94,713.37 226.31,713.93 226.76,713.93 L 226.77,714.15 C 225.38,714.15 223.85,711.34 223.85,709.05 C 223.85,708.12 224.14,707.01 225.05,707.01 L 225.05,707.23 C 224.72,707.23 224.51,707.52 224.51,708.45 C 224.51,708.87 224.57,709.44 224.83,710.42 L 226.9,710.42 C 226.79,709.96 226.58,709.11 226.2,708.4 C 225.85,707.72 225.48,707.23 225.05,707.23 L 225.05,707.01 C 226.45,707.01 227.96,709.87 227.96,712.1 z"
   id="path4812" />
<path
   style="fill:#000000;stroke-width:0"
   d="M 230.45,710.07 L 230.45,710.07 L 230.45,710.08 L 230.45,710.09 L 230.45,710.1 L 230.45,710.11 L 230.45,710.11 L 230.45,710.12 L 230.45,710.13 L 230.45,710.13 L 230.45,710.14 L 230.45,710.15 L 230.45,710.15 L 230.45,710.16 L 230.45,710.16 L 230.44,710.17 L 230.44,710.18 L 230.44,710.18 L 230.44,710.19 L 230.44,710.19 L 230.44,710.2 L 230.43,710.21 L 230.43,710.22 L 230.43,710.22 L 230.42,710.23 L 230.42,710.23 L 230.41,710.24 L 230.41,710.24 L 230.4,710.25 L 230.39,710.25 L 230.38,710.25 L 230.37,710.25 L 230.37,710.26 L 230.36,710.26 L 230.35,710.26 L 230.35,710.26 L 230.34,710.26 L 230.34,710.26 L 230.33,710.26 L 230.33,710.26 L 230.32,710.26 L 230.31,710.26 L 230.3,710.26 L 230.3,710.26 L 230.29,710.26 L 230.28,710.26 L 230.27,710.26 L 230.27,710.26 L 230.26,710.26 L 230.25,710.26 L 230.24,710.26 C 229.79,709.82 229.16,709.81 228.87,709.81 L 228.87,709.56 C 229.04,709.56 229.5,709.56 229.88,709.76 L 229.88,706.2 C 229.88,705.97 229.88,705.88 229.19,705.88 L 228.92,705.88 L 228.92,705.63 C 229.05,705.64 229.9,705.66 230.16,705.66 C 230.38,705.66 231.26,705.64 231.41,705.63 L 231.41,705.88 L 231.15,705.88 C 230.45,705.88 230.45,705.97 230.45,706.2 L 230.45,710.07 z"
   id="path4814" />
<path
   style="fill:#000000;stroke-width:0"
   d="M 235.6,706.9 L 235.37,706.9 C 235.34,706.75 235.27,706.33 235.18,706.27 C 235.13,706.22 234.59,706.22 234.49,706.22 L 233.21,706.22 C 233.94,706.87 234.19,707.07 234.6,707.39 C 235.12,707.81 235.6,708.24 235.6,708.9 C 235.6,709.74 234.86,710.26 233.97,710.26 C 233.1,710.26 232.52,709.65 232.52,709.01 C 232.52,708.66 232.82,708.62 232.89,708.62 C 233.06,708.62 233.26,708.74 233.26,708.99 C 233.26,709.12 233.21,709.36 232.85,709.36 C 233.06,709.86 233.54,710.01 233.87,710.01 C 234.56,710.01 234.93,709.47 234.93,708.9 C 234.93,708.29 234.49,707.81 234.27,707.56 L 232.59,705.9 C 232.52,705.84 232.52,705.83 232.52,705.63 L 235.39,705.63 L 235.6,706.9 z"
   id="path4816" />
</g>    <g
       ns0:preamble=""
       ns0:text="$\\theta_{11}$"
       word-spacing="normal"
       letter-spacing="normal"
       font-size-adjust="none"
       font-stretch="normal"
       font-weight="normal"
       font-variant="normal"
       font-style="normal"
       fill-rule="even-odd"
       stroke-miterlimit="10.433"
       xml:space="preserve"
       transform="matrix(3.5211299,0,0,-3.5211299,-681.65564,2796.9771)"
       id="g4818"
       style="font-style:normal;font-variant:normal;font-weight:normal;font-stretch:normal;letter-spacing:normal;word-spacing:normal;text-anchor:start;fill:none;fill-opacity:1;stroke:#000000;stroke-linecap:butt;stroke-linejoin:miter;stroke-miterlimit:10.43299961;stroke-dasharray:none;stroke-dashoffset:0;stroke-opacity:1">
<path
   id="path4820"
   d="M 227.96,712.1 L 227.96,712.17 L 227.96,712.24 L 227.96,712.31 L 227.96,712.38 L 227.95,712.46 L 227.94,712.54 L 227.93,712.62 L 227.92,712.7 L 227.91,712.78 L 227.89,712.87 L 227.87,712.95 L 227.85,713.04 L 227.83,713.12 L 227.81,713.21 L 227.78,713.29 L 227.75,713.37 L 227.71,713.45 L 227.68,713.53 L 227.64,713.6 L 227.59,713.67 L 227.55,713.74 L 227.5,713.8 L 227.44,713.86 L 227.39,713.92 L 227.32,713.97 L 227.29,713.99 L 227.26,714.01 L 227.22,714.03 L 227.19,714.05 L 227.15,714.07 L 227.11,714.09 L 227.07,714.1 L 227.03,714.11 L 226.99,714.12 L 226.95,714.13 L 226.91,714.14 L 226.86,714.14 L 226.82,714.14 L 226.77,714.15 L 226.76,713.93 C 227.25,713.93 227.31,713.29 227.31,712.72 C 227.31,712.23 227.23,711.72 226.99,710.74 L 224.91,710.74 C 225.08,711.38 225.28,712.17 225.67,712.88 C 225.94,713.37 226.31,713.93 226.76,713.93 L 226.77,714.15 C 225.38,714.15 223.85,711.34 223.85,709.05 C 223.85,708.12 224.14,707.01 225.05,707.01 L 225.05,707.23 C 224.72,707.23 224.51,707.52 224.51,708.45 C 224.51,708.87 224.57,709.44 224.83,710.42 L 226.9,710.42 C 226.79,709.96 226.58,709.11 226.2,708.4 C 225.85,707.72 225.48,707.23 225.05,707.23 L 225.05,707.01 C 226.45,707.01 227.96,709.87 227.96,712.1 z"
   style="fill:#000000;stroke-width:0" />
<path
   id="path4822"
   d="M 230.45,710.07 L 230.45,710.07 L 230.45,710.08 L 230.45,710.09 L 230.45,710.1 L 230.45,710.11 L 230.45,710.11 L 230.45,710.12 L 230.45,710.13 L 230.45,710.13 L 230.45,710.14 L 230.45,710.15 L 230.45,710.15 L 230.45,710.16 L 230.45,710.16 L 230.44,710.17 L 230.44,710.18 L 230.44,710.18 L 230.44,710.19 L 230.44,710.19 L 230.44,710.2 L 230.43,710.21 L 230.43,710.22 L 230.43,710.22 L 230.42,710.23 L 230.42,710.23 L 230.41,710.24 L 230.41,710.24 L 230.4,710.25 L 230.39,710.25 L 230.38,710.25 L 230.37,710.25 L 230.37,710.26 L 230.36,710.26 L 230.35,710.26 L 230.35,710.26 L 230.34,710.26 L 230.34,710.26 L 230.33,710.26 L 230.33,710.26 L 230.32,710.26 L 230.31,710.26 L 230.3,710.26 L 230.3,710.26 L 230.29,710.26 L 230.28,710.26 L 230.27,710.26 L 230.27,710.26 L 230.26,710.26 L 230.25,710.26 L 230.24,710.26 C 229.79,709.82 229.16,709.81 228.87,709.81 L 228.87,709.56 C 229.04,709.56 229.5,709.56 229.88,709.76 L 229.88,706.2 C 229.88,705.97 229.88,705.88 229.19,705.88 L 228.92,705.88 L 228.92,705.63 C 229.05,705.64 229.9,705.66 230.16,705.66 C 230.38,705.66 231.26,705.64 231.41,705.63 L 231.41,705.88 L 231.15,705.88 C 230.45,705.88 230.45,705.97 230.45,706.2 L 230.45,710.07 z"
   style="fill:#000000;stroke-width:0" />
<path
   id="path4824"
   d="M 234.42,710.07 L 234.42,710.07 L 234.42,710.08 L 234.42,710.09 L 234.42,710.1 L 234.42,710.11 L 234.42,710.11 L 234.42,710.12 L 234.42,710.13 L 234.41,710.13 L 234.41,710.14 L 234.41,710.15 L 234.41,710.15 L 234.41,710.16 L 234.41,710.16 L 234.41,710.17 L 234.41,710.18 L 234.41,710.18 L 234.41,710.19 L 234.41,710.19 L 234.4,710.2 L 234.4,710.21 L 234.4,710.22 L 234.39,710.22 L 234.39,710.23 L 234.38,710.23 L 234.38,710.24 L 234.37,710.24 L 234.37,710.25 L 234.36,710.25 L 234.35,710.25 L 234.34,710.25 L 234.33,710.26 L 234.33,710.26 L 234.32,710.26 L 234.32,710.26 L 234.31,710.26 L 234.3,710.26 L 234.3,710.26 L 234.29,710.26 L 234.29,710.26 L 234.28,710.26 L 234.27,710.26 L 234.26,710.26 L 234.26,710.26 L 234.25,710.26 L 234.24,710.26 L 234.23,710.26 L 234.22,710.26 L 234.22,710.26 L 234.21,710.26 C 233.76,709.82 233.13,709.81 232.84,709.81 L 232.84,709.56 C 233.01,709.56 233.47,709.56 233.85,709.76 L 233.85,706.2 C 233.85,705.97 233.85,705.88 233.15,705.88 L 232.89,705.88 L 232.89,705.63 C 233.01,705.64 233.87,705.66 234.13,705.66 C 234.35,705.66 235.23,705.64 235.38,705.63 L 235.38,705.88 L 235.11,705.88 C 234.42,705.88 234.42,705.97 234.42,706.2 L 234.42,710.07 z"
   style="fill:#000000;stroke-width:0" />
</g>    <g
       style="font-style:normal;font-variant:normal;font-weight:normal;font-stretch:normal;letter-spacing:normal;word-spacing:normal;text-anchor:start;fill:none;fill-opacity:1;stroke:#000000;stroke-linecap:butt;stroke-linejoin:miter;stroke-miterlimit:10.43299961;stroke-dasharray:none;stroke-dashoffset:0;stroke-opacity:1"
       ns0:preamble=""
       ns0:text="$\\theta_{13}$"
       word-spacing="normal"
       letter-spacing="normal"
       font-size-adjust="none"
       font-stretch="normal"
       font-weight="normal"
       font-variant="normal"
       font-style="normal"
       fill-rule="even-odd"
       stroke-miterlimit="10.433"
       xml:space="preserve"
       transform="matrix(3.5211299,0,0,-3.5211299,-491.65564,2886.9771)"
       id="g4826">
<path
   style="fill:#000000;stroke-width:0"
   id="path4828"
   d="M 227.96,712.1 L 227.96,712.17 L 227.96,712.24 L 227.96,712.31 L 227.96,712.38 L 227.95,712.46 L 227.94,712.54 L 227.93,712.62 L 227.92,712.7 L 227.91,712.78 L 227.89,712.87 L 227.87,712.95 L 227.85,713.04 L 227.83,713.12 L 227.81,713.21 L 227.78,713.29 L 227.75,713.37 L 227.71,713.45 L 227.68,713.53 L 227.64,713.6 L 227.59,713.67 L 227.55,713.74 L 227.5,713.8 L 227.44,713.86 L 227.39,713.92 L 227.32,713.97 L 227.29,713.99 L 227.26,714.01 L 227.22,714.03 L 227.19,714.05 L 227.15,714.07 L 227.11,714.09 L 227.07,714.1 L 227.03,714.11 L 226.99,714.12 L 226.95,714.13 L 226.91,714.14 L 226.86,714.14 L 226.82,714.14 L 226.77,714.15 L 226.76,713.93 C 227.25,713.93 227.31,713.29 227.31,712.72 C 227.31,712.23 227.23,711.72 226.99,710.74 L 224.91,710.74 C 225.08,711.38 225.28,712.17 225.67,712.88 C 225.94,713.37 226.31,713.93 226.76,713.93 L 226.77,714.15 C 225.38,714.15 223.85,711.34 223.85,709.05 C 223.85,708.12 224.14,707.01 225.05,707.01 L 225.05,707.23 C 224.72,707.23 224.51,707.52 224.51,708.45 C 224.51,708.87 224.57,709.44 224.83,710.42 L 226.9,710.42 C 226.79,709.96 226.58,709.11 226.2,708.4 C 225.85,707.72 225.48,707.23 225.05,707.23 L 225.05,707.01 C 226.45,707.01 227.96,709.87 227.96,712.1 z" />
<path
   style="fill:#000000;stroke-width:0"
   id="path4830"
   d="M 230.45,710.07 L 230.45,710.07 L 230.45,710.08 L 230.45,710.09 L 230.45,710.1 L 230.45,710.11 L 230.45,710.11 L 230.45,710.12 L 230.45,710.13 L 230.45,710.13 L 230.45,710.14 L 230.45,710.15 L 230.45,710.15 L 230.45,710.16 L 230.45,710.16 L 230.44,710.17 L 230.44,710.18 L 230.44,710.18 L 230.44,710.19 L 230.44,710.19 L 230.44,710.2 L 230.43,710.21 L 230.43,710.22 L 230.43,710.22 L 230.42,710.23 L 230.42,710.23 L 230.41,710.24 L 230.41,710.24 L 230.4,710.25 L 230.39,710.25 L 230.38,710.25 L 230.37,710.25 L 230.37,710.26 L 230.36,710.26 L 230.35,710.26 L 230.35,710.26 L 230.34,710.26 L 230.34,710.26 L 230.33,710.26 L 230.33,710.26 L 230.32,710.26 L 230.31,710.26 L 230.3,710.26 L 230.3,710.26 L 230.29,710.26 L 230.28,710.26 L 230.27,710.26 L 230.27,710.26 L 230.26,710.26 L 230.25,710.26 L 230.24,710.26 C 229.79,709.82 229.16,709.81 228.87,709.81 L 228.87,709.56 C 229.04,709.56 229.5,709.56 229.88,709.76 L 229.88,706.2 C 229.88,705.97 229.88,705.88 229.19,705.88 L 228.92,705.88 L 228.92,705.63 C 229.05,705.64 229.9,705.66 230.16,705.66 C 230.38,705.66 231.26,705.64 231.41,705.63 L 231.41,705.88 L 231.15,705.88 C 230.45,705.88 230.45,705.97 230.45,706.2 L 230.45,710.07 z" />
<path
   style="fill:#000000;stroke-width:0"
   id="path4832"
   d="M 233.98,707.96 L 234.03,707.96 L 234.08,707.95 L 234.13,707.95 L 234.18,707.94 L 234.23,707.93 L 234.27,707.92 L 234.32,707.91 L 234.36,707.89 L 234.4,707.87 L 234.44,707.85 L 234.48,707.83 L 234.52,707.8 L 234.55,707.77 L 234.59,707.74 L 234.62,707.71 L 234.65,707.68 L 234.69,707.64 L 234.71,707.6 L 234.74,707.56 L 234.77,707.52 L 234.79,707.47 L 234.81,707.43 L 234.83,707.38 L 234.85,707.33 L 234.86,707.27 L 234.88,707.22 L 234.89,707.16 L 234.9,707.1 L 234.91,707.04 L 234.91,706.97 L 234.92,706.9 L 234.92,706.84 C 234.92,705.97 234.42,705.71 234.01,705.71 C 233.73,705.71 233.12,705.79 232.83,706.2 C 233.15,706.22 233.23,706.45 233.23,706.59 C 233.23,706.82 233.06,706.98 232.85,706.98 C 232.65,706.98 232.46,706.86 232.46,706.57 C 232.46,705.92 233.18,705.49 234.03,705.49 C 234.99,705.49 235.66,706.14 235.66,706.84 C 235.66,707.38 235.22,707.92 234.45,708.09 C 235.18,708.35 235.45,708.87 235.45,709.3 C 235.45,709.85 234.81,710.26 234.04,710.26 C 233.27,710.26 232.67,709.88 232.67,709.33 C 232.67,709.09 232.83,708.96 233.04,708.96 C 233.25,708.96 233.39,709.12 233.39,709.31 C 233.39,709.51 233.25,709.66 233.04,709.67 C 233.28,709.98 233.76,710.06 234.02,710.06 C 234.33,710.06 234.77,709.91 234.77,709.3 C 234.77,709.01 234.67,708.68 234.49,708.47 C 234.26,708.2 234.07,708.19 233.72,708.17 C 233.54,708.16 233.53,708.16 233.5,708.15 C 233.48,708.15 233.43,708.13 233.43,708.06 C 233.43,707.96 233.49,707.96 233.61,707.96 L 233.98,707.96 z" />
</g>    <g
       style="font-style:normal;font-variant:normal;font-weight:normal;font-stretch:normal;letter-spacing:normal;word-spacing:normal;text-anchor:start;fill:none;fill-opacity:1;stroke:#000000;stroke-linecap:butt;stroke-linejoin:miter;stroke-miterlimit:10.43299961;stroke-dasharray:none;stroke-dashoffset:0;stroke-opacity:1"
       ns0:preamble=""
       ns0:text="$\\theta^*_{3}$"
       text-anchor="start"
       word-spacing="normal"
       letter-spacing="normal"
       font-size-adjust="none"
       font-stretch="normal"
       font-weight="normal"
       font-variant="normal"
       font-style="normal"
       fill-opacity="1"
       fill-rule="even-odd"
       fill="none"
       stroke-opacity="1"
       stroke-dashoffset="0"
       stroke-dasharray="none"
       stroke-miterlimit="10.433"
       stroke-linejoin="miter"
       stroke-linecap="butt"
       stroke="black"
       xml:space="preserve"
       transform="matrix(3.5211299,0,0,-3.5211299,-618.97959,2627.0123)"
       id="g4915">
<path
   id="path4917"
   fill="black"
   stroke-width="0"
   d="M227.96,712.1 L227.96,712.17 L227.96,712.24 L227.96,712.31 L227.96,712.38 L227.95,712.46 L227.94,712.54 L227.93,712.62 L227.92,712.7 L227.91,712.78 L227.89,712.87 L227.87,712.95 L227.85,713.04 L227.83,713.12 L227.81,713.21 L227.78,713.29 L227.75,713.37 L227.71,713.45 L227.68,713.53 L227.64,713.6 L227.59,713.67 L227.55,713.74 L227.5,713.8 L227.44,713.86 L227.39,713.92 L227.32,713.97 L227.29,713.99 L227.26,714.01 L227.22,714.03 L227.19,714.05 L227.15,714.07 L227.11,714.09 L227.07,714.1 L227.03,714.11 L226.99,714.12 L226.95,714.13 L226.91,714.14 L226.86,714.14 L226.82,714.14 L226.77,714.15 L226.76,713.93 C227.25,713.93,227.31,713.29,227.31,712.72 C227.31,712.23,227.23,711.72,226.99,710.74 H224.91 C225.08,711.38,225.28,712.17,225.67,712.88 C225.94,713.37,226.31,713.93,226.76,713.93 L226.77,714.15 C225.38,714.15,223.85,711.34,223.85,709.05 C223.85,708.12,224.14,707.01,225.05,707.01 V707.23 C224.72,707.23,224.51,707.52,224.51,708.45 C224.51,708.87,224.57,709.44,224.83,710.42 H226.9 C226.79,709.96,226.58,709.11,226.2,708.4 C225.85,707.72,225.48,707.23,225.05,707.23 V707.01 C226.45,707.01,227.96,709.87,227.96,712.1 Z " />
<path
   id="path4919"
   fill="black"
   stroke-width="0"
   d="M231.67,712.92 L231.69,712.93 L231.7,712.94 L231.72,712.94 L231.73,712.95 L231.74,712.95 L231.74,712.96 L231.75,712.96 L231.76,712.96 L231.77,712.97 L231.77,712.97 L231.78,712.98 L231.79,712.98 L231.79,712.99 L231.8,713 L231.8,713 L231.81,713.01 L231.81,713.01 L231.82,713.02 L231.82,713.03 L231.82,713.04 L231.83,713.04 L231.83,713.05 L231.83,713.06 L231.84,713.07 L231.84,713.08 L231.84,713.09 L231.84,713.1 L231.84,713.11 L231.84,713.12 C231.84,713.22,231.76,713.35,231.62,713.35 C231.57,713.35,231.55,713.33,231.48,713.28 L230.52,712.65 L230.62,713.69 L230.63,713.78 C230.63,713.87,230.56,713.98,230.42,713.98 C230.28,713.98,230.2,713.88,230.2,713.78 L230.32,712.65 L229.37,713.28 C229.27,713.34,229.24,713.35,229.21,713.35 C229.08,713.35,229,713.22,229,713.12 C229,713,229.07,712.96,229.17,712.92 L230.2,712.48 L229.17,712.03 C229.07,711.99,229,711.96,229,711.83 C229,711.73,229.08,711.61,229.21,711.61 C229.27,711.61,229.29,711.62,229.36,711.67 L230.31,712.31 L230.2,711.17 C230.2,711.08,230.28,710.97,230.42,710.97 C230.56,710.97,230.63,711.09,230.63,711.17 C230.63,711.21,230.52,712.28,230.52,712.31 C230.73,712.17,231.02,711.97,231.37,711.73 C231.56,711.61,231.58,711.61,231.62,711.61 C231.76,711.61,231.84,711.73,231.84,711.83 C231.84,711.97,231.74,712.01,231.7,712.03 C231.35,712.18,230.99,712.33,230.63,712.47 Z " />
<path
   id="path4921"
   fill="black"
   stroke-width="0"
   d="M230.02,706.98 L230.07,706.98 L230.12,706.98 L230.16,706.97 L230.21,706.97 L230.26,706.96 L230.3,706.94 L230.35,706.93 L230.39,706.91 L230.43,706.89 L230.47,706.87 L230.51,706.85 L230.55,706.83 L230.59,706.8 L230.62,706.77 L230.66,706.74 L230.69,706.7 L230.72,706.67 L230.75,706.63 L230.77,706.59 L230.8,706.54 L230.82,706.5 L230.84,706.45 L230.86,706.4 L230.88,706.35 L230.9,706.3 L230.91,706.24 L230.92,706.18 L230.93,706.12 L230.94,706.06 L230.95,706 L230.95,705.93 L230.95,705.86 C230.95,705,230.45,704.74,230.04,704.74 C229.76,704.74,229.15,704.82,228.86,705.23 C229.19,705.24,229.26,705.47,229.26,705.62 C229.26,705.84,229.1,706,228.88,706 C228.68,706,228.49,705.88,228.49,705.6 C228.49,704.94,229.21,704.52,230.06,704.52 C231.03,704.52,231.7,705.16,231.7,705.86 C231.7,706.41,231.25,706.95,230.48,707.11 C231.22,707.38,231.48,707.9,231.48,708.32 C231.48,708.87,230.85,709.29,230.07,709.29 C229.3,709.29,228.71,708.91,228.71,708.35 C228.71,708.11,228.86,707.98,229.07,707.98 C229.28,707.98,229.42,708.14,229.42,708.34 C229.42,708.54,229.28,708.69,229.07,708.7 C229.31,709.01,229.79,709.08,230.05,709.08 C230.37,709.08,230.8,708.93,230.8,708.32 C230.8,708.03,230.71,707.71,230.52,707.49 C230.29,707.23,230.1,707.21,229.75,707.19 C229.58,707.18,229.56,707.18,229.53,707.17 C229.51,707.17,229.46,707.16,229.46,707.08 C229.46,706.98,229.52,706.98,229.64,706.98 Z " />
</g>    <g
       id="g5088"
       transform="matrix(3.5211299,0,0,-3.5211299,-419.89508,2627.0123)"
       xml:space="preserve"
       stroke="black"
       stroke-linecap="butt"
       stroke-linejoin="miter"
       stroke-miterlimit="10.433"
       stroke-dasharray="none"
       stroke-dashoffset="0"
       stroke-opacity="1"
       fill="none"
       fill-rule="even-odd"
       fill-opacity="1"
       font-style="normal"
       font-variant="normal"
       font-weight="normal"
       font-stretch="normal"
       font-size-adjust="none"
       letter-spacing="normal"
       word-spacing="normal"
       text-anchor="start"
       ns0:text="$\\theta^*_{1}$"
       ns0:preamble=""
       style="font-style:normal;font-variant:normal;font-weight:normal;font-stretch:normal;letter-spacing:normal;word-spacing:normal;text-anchor:start;fill:none;fill-opacity:1;stroke:#000000;stroke-linecap:butt;stroke-linejoin:miter;stroke-miterlimit:10.43299961;stroke-dasharray:none;stroke-dashoffset:0;stroke-opacity:1">
<path
   d="M227.96,712.1 L227.96,712.17 L227.96,712.24 L227.96,712.31 L227.96,712.38 L227.95,712.46 L227.94,712.54 L227.93,712.62 L227.92,712.7 L227.91,712.78 L227.89,712.87 L227.87,712.95 L227.85,713.04 L227.83,713.12 L227.81,713.21 L227.78,713.29 L227.75,713.37 L227.71,713.45 L227.68,713.53 L227.64,713.6 L227.59,713.67 L227.55,713.74 L227.5,713.8 L227.44,713.86 L227.39,713.92 L227.32,713.97 L227.29,713.99 L227.26,714.01 L227.22,714.03 L227.19,714.05 L227.15,714.07 L227.11,714.09 L227.07,714.1 L227.03,714.11 L226.99,714.12 L226.95,714.13 L226.91,714.14 L226.86,714.14 L226.82,714.14 L226.77,714.15 L226.76,713.93 C227.25,713.93,227.31,713.29,227.31,712.72 C227.31,712.23,227.23,711.72,226.99,710.74 H224.91 C225.08,711.38,225.28,712.17,225.67,712.88 C225.94,713.37,226.31,713.93,226.76,713.93 L226.77,714.15 C225.38,714.15,223.85,711.34,223.85,709.05 C223.85,708.12,224.14,707.01,225.05,707.01 V707.23 C224.72,707.23,224.51,707.52,224.51,708.45 C224.51,708.87,224.57,709.44,224.83,710.42 H226.9 C226.79,709.96,226.58,709.11,226.2,708.4 C225.85,707.72,225.48,707.23,225.05,707.23 V707.01 C226.45,707.01,227.96,709.87,227.96,712.1 Z "
   stroke-width="0"
   fill="black"
   id="path5090" />
<path
   d="M231.67,712.92 L231.69,712.93 L231.7,712.94 L231.72,712.94 L231.73,712.95 L231.74,712.95 L231.74,712.96 L231.75,712.96 L231.76,712.96 L231.77,712.97 L231.77,712.97 L231.78,712.98 L231.79,712.98 L231.79,712.99 L231.8,713 L231.8,713 L231.81,713.01 L231.81,713.01 L231.82,713.02 L231.82,713.03 L231.82,713.04 L231.83,713.04 L231.83,713.05 L231.83,713.06 L231.84,713.07 L231.84,713.08 L231.84,713.09 L231.84,713.1 L231.84,713.11 L231.84,713.12 C231.84,713.22,231.76,713.35,231.62,713.35 C231.57,713.35,231.55,713.33,231.48,713.28 L230.52,712.65 L230.62,713.69 L230.63,713.78 C230.63,713.87,230.56,713.98,230.42,713.98 C230.28,713.98,230.2,713.88,230.2,713.78 L230.32,712.65 L229.37,713.28 C229.27,713.34,229.24,713.35,229.21,713.35 C229.08,713.35,229,713.22,229,713.12 C229,713,229.07,712.96,229.17,712.92 L230.2,712.48 L229.17,712.03 C229.07,711.99,229,711.96,229,711.83 C229,711.73,229.08,711.61,229.21,711.61 C229.27,711.61,229.29,711.62,229.36,711.67 L230.31,712.31 L230.2,711.17 C230.2,711.08,230.28,710.97,230.42,710.97 C230.56,710.97,230.63,711.09,230.63,711.17 C230.63,711.21,230.52,712.28,230.52,712.31 C230.73,712.17,231.02,711.97,231.37,711.73 C231.56,711.61,231.58,711.61,231.62,711.61 C231.76,711.61,231.84,711.73,231.84,711.83 C231.84,711.97,231.74,712.01,231.7,712.03 C231.35,712.18,230.99,712.33,230.63,712.47 Z "
   stroke-width="0"
   fill="black"
   id="path5092" />
<path
   d="M230.45,709.09 L230.45,709.1 L230.45,709.11 L230.45,709.12 L230.45,709.12 L230.45,709.13 L230.45,709.14 L230.45,709.15 L230.45,709.15 L230.45,709.16 L230.45,709.17 L230.45,709.17 L230.45,709.18 L230.45,709.18 L230.45,709.19 L230.44,709.2 L230.44,709.2 L230.44,709.21 L230.44,709.21 L230.44,709.22 L230.44,709.23 L230.43,709.24 L230.43,709.24 L230.43,709.25 L230.42,709.25 L230.42,709.26 L230.41,709.26 L230.41,709.27 L230.4,709.27 L230.39,709.27 L230.38,709.28 L230.37,709.28 L230.37,709.28 L230.36,709.28 L230.35,709.28 L230.35,709.28 L230.34,709.28 L230.34,709.28 L230.33,709.28 L230.33,709.28 L230.32,709.28 L230.31,709.29 L230.3,709.29 L230.3,709.29 L230.29,709.29 L230.28,709.29 L230.27,709.29 L230.27,709.29 L230.26,709.29 L230.25,709.29 L230.24,709.29 C229.79,708.85,229.16,708.84,228.87,708.84 V708.59 C229.04,708.59,229.5,708.59,229.88,708.78 V705.23 C229.88,705,229.88,704.91,229.19,704.91 H228.92 V704.66 C229.05,704.66,229.9,704.68,230.16,704.68 C230.38,704.68,231.26,704.66,231.41,704.66 V704.91 H231.15 C230.45,704.91,230.45,705,230.45,705.23 Z "
   stroke-width="0"
   fill="black"
   id="path5094" />
</g>    <g
       style="font-style:normal;font-variant:normal;font-weight:normal;font-stretch:normal;letter-spacing:normal;word-spacing:normal;text-anchor:start;fill:none;fill-opacity:1;stroke:#000000;stroke-linecap:butt;stroke-linejoin:miter;stroke-miterlimit:10.43299961;stroke-dasharray:none;stroke-dashoffset:0;stroke-opacity:1"
       ns0:preamble=""
       ns0:text="$\\theta^*_{2}$"
       text-anchor="start"
       word-spacing="normal"
       letter-spacing="normal"
       font-size-adjust="none"
       font-stretch="normal"
       font-weight="normal"
       font-variant="normal"
       font-style="normal"
       fill-opacity="1"
       fill-rule="even-odd"
       fill="none"
       stroke-opacity="1"
       stroke-dashoffset="0"
       stroke-dasharray="none"
       stroke-miterlimit="10.433"
       stroke-linejoin="miter"
       stroke-linecap="butt"
       stroke="black"
       xml:space="preserve"
       transform="matrix(3.5211299,0,0,-3.5211299,-221.35282,2626.5757)"
       id="g5263">
<path
   id="path5265"
   fill="black"
   stroke-width="0"
   d="M227.96,712.1 L227.96,712.17 L227.96,712.24 L227.96,712.31 L227.96,712.38 L227.95,712.46 L227.94,712.54 L227.93,712.62 L227.92,712.7 L227.91,712.78 L227.89,712.87 L227.87,712.95 L227.85,713.04 L227.83,713.12 L227.81,713.21 L227.78,713.29 L227.75,713.37 L227.71,713.45 L227.68,713.53 L227.64,713.6 L227.59,713.67 L227.55,713.74 L227.5,713.8 L227.44,713.86 L227.39,713.92 L227.32,713.97 L227.29,713.99 L227.26,714.01 L227.22,714.03 L227.19,714.05 L227.15,714.07 L227.11,714.09 L227.07,714.1 L227.03,714.11 L226.99,714.12 L226.95,714.13 L226.91,714.14 L226.86,714.14 L226.82,714.14 L226.77,714.15 L226.76,713.93 C227.25,713.93,227.31,713.29,227.31,712.72 C227.31,712.23,227.23,711.72,226.99,710.74 H224.91 C225.08,711.38,225.28,712.17,225.67,712.88 C225.94,713.37,226.31,713.93,226.76,713.93 L226.77,714.15 C225.38,714.15,223.85,711.34,223.85,709.05 C223.85,708.12,224.14,707.01,225.05,707.01 V707.23 C224.72,707.23,224.51,707.52,224.51,708.45 C224.51,708.87,224.57,709.44,224.83,710.42 H226.9 C226.79,709.96,226.58,709.11,226.2,708.4 C225.85,707.72,225.48,707.23,225.05,707.23 V707.01 C226.45,707.01,227.96,709.87,227.96,712.1 Z " />
<path
   id="path5267"
   fill="black"
   stroke-width="0"
   d="M231.67,712.92 L231.69,712.93 L231.7,712.94 L231.72,712.94 L231.73,712.95 L231.74,712.95 L231.74,712.96 L231.75,712.96 L231.76,712.96 L231.77,712.97 L231.77,712.97 L231.78,712.98 L231.79,712.98 L231.79,712.99 L231.8,713 L231.8,713 L231.81,713.01 L231.81,713.01 L231.82,713.02 L231.82,713.03 L231.82,713.04 L231.83,713.04 L231.83,713.05 L231.83,713.06 L231.84,713.07 L231.84,713.08 L231.84,713.09 L231.84,713.1 L231.84,713.11 L231.84,713.12 C231.84,713.22,231.76,713.35,231.62,713.35 C231.57,713.35,231.55,713.33,231.48,713.28 L230.52,712.65 L230.62,713.69 L230.63,713.78 C230.63,713.87,230.56,713.98,230.42,713.98 C230.28,713.98,230.2,713.88,230.2,713.78 L230.32,712.65 L229.37,713.28 C229.27,713.34,229.24,713.35,229.21,713.35 C229.08,713.35,229,713.22,229,713.12 C229,713,229.07,712.96,229.17,712.92 L230.2,712.48 L229.17,712.03 C229.07,711.99,229,711.96,229,711.83 C229,711.73,229.08,711.61,229.21,711.61 C229.27,711.61,229.29,711.62,229.36,711.67 L230.31,712.31 L230.2,711.17 C230.2,711.08,230.28,710.97,230.42,710.97 C230.56,710.97,230.63,711.09,230.63,711.17 C230.63,711.21,230.52,712.28,230.52,712.31 C230.73,712.17,231.02,711.97,231.37,711.73 C231.56,711.61,231.58,711.61,231.62,711.61 C231.76,711.61,231.84,711.73,231.84,711.83 C231.84,711.97,231.74,712.01,231.7,712.03 C231.35,712.18,230.99,712.33,230.63,712.47 Z " />
<path
   id="path5269"
   fill="black"
   stroke-width="0"
   d="M231.63,705.92 H231.4 C231.38,705.77,231.31,705.36,231.22,705.29 C231.16,705.25,230.62,705.25,230.52,705.25 H229.24 C229.98,705.9,230.22,706.09,230.64,706.42 C231.15,706.83,231.63,707.26,231.63,707.93 C231.63,708.77,230.9,709.29,230,709.29 C229.14,709.29,228.55,708.68,228.55,708.04 C228.55,707.68,228.85,707.65,228.92,707.65 C229.09,707.65,229.29,707.77,229.29,708.02 C229.29,708.14,229.24,708.39,228.88,708.39 C229.1,708.88,229.57,709.03,229.9,709.03 C230.6,709.03,230.96,708.49,230.96,707.93 C230.96,707.32,230.52,706.84,230.3,706.59 L228.62,704.93 C228.55,704.86,228.55,704.85,228.55,704.66 H231.43 Z " />
</g>    <g
       id="g5440"
       transform="matrix(3.5211299,0,0,-3.5211299,-619.19085,2847.787)"
       xml:space="preserve"
       stroke="black"
       stroke-linecap="butt"
       stroke-linejoin="miter"
       stroke-miterlimit="10.433"
       stroke-dasharray="none"
       stroke-dashoffset="0"
       stroke-opacity="1"
       fill="none"
       fill-rule="even-odd"
       fill-opacity="1"
       font-style="normal"
       font-variant="normal"
       font-weight="normal"
       font-stretch="normal"
       font-size-adjust="none"
       letter-spacing="normal"
       word-spacing="normal"
       text-anchor="start"
       ns0:text="$\\theta^*_{1}$"
       ns0:preamble=""
       style="font-style:normal;font-variant:normal;font-weight:normal;font-stretch:normal;letter-spacing:normal;word-spacing:normal;text-anchor:start;fill:none;fill-opacity:1;stroke:#000000;stroke-linecap:butt;stroke-linejoin:miter;stroke-miterlimit:10.43299961;stroke-dasharray:none;stroke-dashoffset:0;stroke-opacity:1">
<path
   d="M227.96,712.1 L227.96,712.17 L227.96,712.24 L227.96,712.31 L227.96,712.38 L227.95,712.46 L227.94,712.54 L227.93,712.62 L227.92,712.7 L227.91,712.78 L227.89,712.87 L227.87,712.95 L227.85,713.04 L227.83,713.12 L227.81,713.21 L227.78,713.29 L227.75,713.37 L227.71,713.45 L227.68,713.53 L227.64,713.6 L227.59,713.67 L227.55,713.74 L227.5,713.8 L227.44,713.86 L227.39,713.92 L227.32,713.97 L227.29,713.99 L227.26,714.01 L227.22,714.03 L227.19,714.05 L227.15,714.07 L227.11,714.09 L227.07,714.1 L227.03,714.11 L226.99,714.12 L226.95,714.13 L226.91,714.14 L226.86,714.14 L226.82,714.14 L226.77,714.15 L226.76,713.93 C227.25,713.93,227.31,713.29,227.31,712.72 C227.31,712.23,227.23,711.72,226.99,710.74 H224.91 C225.08,711.38,225.28,712.17,225.67,712.88 C225.94,713.37,226.31,713.93,226.76,713.93 L226.77,714.15 C225.38,714.15,223.85,711.34,223.85,709.05 C223.85,708.12,224.14,707.01,225.05,707.01 V707.23 C224.72,707.23,224.51,707.52,224.51,708.45 C224.51,708.87,224.57,709.44,224.83,710.42 H226.9 C226.79,709.96,226.58,709.11,226.2,708.4 C225.85,707.72,225.48,707.23,225.05,707.23 V707.01 C226.45,707.01,227.96,709.87,227.96,712.1 Z "
   stroke-width="0"
   fill="black"
   id="path5442" />
<path
   d="M231.67,712.92 L231.69,712.93 L231.7,712.94 L231.72,712.94 L231.73,712.95 L231.74,712.95 L231.74,712.96 L231.75,712.96 L231.76,712.96 L231.77,712.97 L231.77,712.97 L231.78,712.98 L231.79,712.98 L231.79,712.99 L231.8,713 L231.8,713 L231.81,713.01 L231.81,713.01 L231.82,713.02 L231.82,713.03 L231.82,713.04 L231.83,713.04 L231.83,713.05 L231.83,713.06 L231.84,713.07 L231.84,713.08 L231.84,713.09 L231.84,713.1 L231.84,713.11 L231.84,713.12 C231.84,713.22,231.76,713.35,231.62,713.35 C231.57,713.35,231.55,713.33,231.48,713.28 L230.52,712.65 L230.62,713.69 L230.63,713.78 C230.63,713.87,230.56,713.98,230.42,713.98 C230.28,713.98,230.2,713.88,230.2,713.78 L230.32,712.65 L229.37,713.28 C229.27,713.34,229.24,713.35,229.21,713.35 C229.08,713.35,229,713.22,229,713.12 C229,713,229.07,712.96,229.17,712.92 L230.2,712.48 L229.17,712.03 C229.07,711.99,229,711.96,229,711.83 C229,711.73,229.08,711.61,229.21,711.61 C229.27,711.61,229.29,711.62,229.36,711.67 L230.31,712.31 L230.2,711.17 C230.2,711.08,230.28,710.97,230.42,710.97 C230.56,710.97,230.63,711.09,230.63,711.17 C230.63,711.21,230.52,712.28,230.52,712.31 C230.73,712.17,231.02,711.97,231.37,711.73 C231.56,711.61,231.58,711.61,231.62,711.61 C231.76,711.61,231.84,711.73,231.84,711.83 C231.84,711.97,231.74,712.01,231.7,712.03 C231.35,712.18,230.99,712.33,230.63,712.47 Z "
   stroke-width="0"
   fill="black"
   id="path5444" />
<path
   d="M230.45,709.09 L230.45,709.1 L230.45,709.11 L230.45,709.12 L230.45,709.12 L230.45,709.13 L230.45,709.14 L230.45,709.15 L230.45,709.15 L230.45,709.16 L230.45,709.17 L230.45,709.17 L230.45,709.18 L230.45,709.18 L230.45,709.19 L230.44,709.2 L230.44,709.2 L230.44,709.21 L230.44,709.21 L230.44,709.22 L230.44,709.23 L230.43,709.24 L230.43,709.24 L230.43,709.25 L230.42,709.25 L230.42,709.26 L230.41,709.26 L230.41,709.27 L230.4,709.27 L230.39,709.27 L230.38,709.28 L230.37,709.28 L230.37,709.28 L230.36,709.28 L230.35,709.28 L230.35,709.28 L230.34,709.28 L230.34,709.28 L230.33,709.28 L230.33,709.28 L230.32,709.28 L230.31,709.29 L230.3,709.29 L230.3,709.29 L230.29,709.29 L230.28,709.29 L230.27,709.29 L230.27,709.29 L230.26,709.29 L230.25,709.29 L230.24,709.29 C229.79,708.85,229.16,708.84,228.87,708.84 V708.59 C229.04,708.59,229.5,708.59,229.88,708.78 V705.23 C229.88,705,229.88,704.91,229.19,704.91 H228.92 V704.66 C229.05,704.66,229.9,704.68,230.16,704.68 C230.38,704.68,231.26,704.66,231.41,704.66 V704.91 H231.15 C230.45,704.91,230.45,705,230.45,705.23 Z "
   stroke-width="0"
   fill="black"
   id="path5446" />
</g>    <g
       style="font-style:normal;font-variant:normal;font-weight:normal;font-stretch:normal;letter-spacing:normal;word-spacing:normal;text-anchor:start;fill:none;fill-opacity:1;stroke:#000000;stroke-linecap:butt;stroke-linejoin:miter;stroke-miterlimit:10.43299961;stroke-dasharray:none;stroke-dashoffset:0;stroke-opacity:1"
       ns0:preamble=""
       ns0:text="$\\theta^*_{4}$"
       text-anchor="start"
       word-spacing="normal"
       letter-spacing="normal"
       font-size-adjust="none"
       font-stretch="normal"
       font-weight="normal"
       font-variant="normal"
       font-style="normal"
       fill-opacity="1"
       fill-rule="even-odd"
       fill="none"
       stroke-opacity="1"
       stroke-dashoffset="0"
       stroke-dasharray="none"
       stroke-miterlimit="10.433"
       stroke-linejoin="miter"
       stroke-linecap="butt"
       stroke="black"
       xml:space="preserve"
       transform="matrix(3.5211299,0,0,-3.5211299,-418.07818,2847.8151)"
       id="g5619">
<path
   id="path5621"
   fill="black"
   stroke-width="0"
   d="M227.96,712.1 L227.96,712.17 L227.96,712.24 L227.96,712.31 L227.96,712.38 L227.95,712.46 L227.94,712.54 L227.93,712.62 L227.92,712.7 L227.91,712.78 L227.89,712.87 L227.87,712.95 L227.85,713.04 L227.83,713.12 L227.81,713.21 L227.78,713.29 L227.75,713.37 L227.71,713.45 L227.68,713.53 L227.64,713.6 L227.59,713.67 L227.55,713.74 L227.5,713.8 L227.44,713.86 L227.39,713.92 L227.32,713.97 L227.29,713.99 L227.26,714.01 L227.22,714.03 L227.19,714.05 L227.15,714.07 L227.11,714.09 L227.07,714.1 L227.03,714.11 L226.99,714.12 L226.95,714.13 L226.91,714.14 L226.86,714.14 L226.82,714.14 L226.77,714.15 L226.76,713.93 C227.25,713.93,227.31,713.29,227.31,712.72 C227.31,712.23,227.23,711.72,226.99,710.74 H224.91 C225.08,711.38,225.28,712.17,225.67,712.88 C225.94,713.37,226.31,713.93,226.76,713.93 L226.77,714.15 C225.38,714.15,223.85,711.34,223.85,709.05 C223.85,708.12,224.14,707.01,225.05,707.01 V707.23 C224.72,707.23,224.51,707.52,224.51,708.45 C224.51,708.87,224.57,709.44,224.83,710.42 H226.9 C226.79,709.96,226.58,709.11,226.2,708.4 C225.85,707.72,225.48,707.23,225.05,707.23 V707.01 C226.45,707.01,227.96,709.87,227.96,712.1 Z " />
<path
   id="path5623"
   fill="black"
   stroke-width="0"
   d="M231.67,712.92 L231.69,712.93 L231.7,712.94 L231.72,712.94 L231.73,712.95 L231.74,712.95 L231.74,712.96 L231.75,712.96 L231.76,712.96 L231.77,712.97 L231.77,712.97 L231.78,712.98 L231.79,712.98 L231.79,712.99 L231.8,713 L231.8,713 L231.81,713.01 L231.81,713.01 L231.82,713.02 L231.82,713.03 L231.82,713.04 L231.83,713.04 L231.83,713.05 L231.83,713.06 L231.84,713.07 L231.84,713.08 L231.84,713.09 L231.84,713.1 L231.84,713.11 L231.84,713.12 C231.84,713.22,231.76,713.35,231.62,713.35 C231.57,713.35,231.55,713.33,231.48,713.28 L230.52,712.65 L230.62,713.69 L230.63,713.78 C230.63,713.87,230.56,713.98,230.42,713.98 C230.28,713.98,230.2,713.88,230.2,713.78 L230.32,712.65 L229.37,713.28 C229.27,713.34,229.24,713.35,229.21,713.35 C229.08,713.35,229,713.22,229,713.12 C229,713,229.07,712.96,229.17,712.92 L230.2,712.48 L229.17,712.03 C229.07,711.99,229,711.96,229,711.83 C229,711.73,229.08,711.61,229.21,711.61 C229.27,711.61,229.29,711.62,229.36,711.67 L230.31,712.31 L230.2,711.17 C230.2,711.08,230.28,710.97,230.42,710.97 C230.56,710.97,230.63,711.09,230.63,711.17 C230.63,711.21,230.52,712.28,230.52,712.31 C230.73,712.17,231.02,711.97,231.37,711.73 C231.56,711.61,231.58,711.61,231.62,711.61 C231.76,711.61,231.84,711.73,231.84,711.83 C231.84,711.97,231.74,712.01,231.7,712.03 C231.35,712.18,230.99,712.33,230.63,712.47 Z " />
<path
   id="path5625"
   fill="black"
   stroke-width="0"
   d="M231.8,705.8 V706.05 H231.03 V709.16 C231.03,709.31,231.03,709.35,230.87,709.35 C230.79,709.35,230.76,709.35,230.69,709.26 L228.38,706.05 V705.8 H230.43 L230.48,706.05 H228.64 L230.48,708.6 V706.05 L230.43,705.8 V705.23 C230.43,704.99,230.43,704.91,229.87,704.91 H229.68 V704.66 C230.03,704.67,230.48,704.68,230.73,704.68 C230.99,704.68,231.43,704.67,231.78,704.66 V704.91 H231.59 C231.03,704.91,231.03,704.99,231.03,705.23 V705.8 Z " />
</g>  </g>
</svg>
