<?xml version="1.0" encoding="UTF-8" standalone="no"?>
<!-- Created with Inkscape (http://www.inkscape.org/) -->
<svg
   xmlns:ns0="http://www.iki.fi/pav/software/textext/"
   xmlns:dc="http://purl.org/dc/elements/1.1/"
   xmlns:cc="http://creativecommons.org/ns#"
   xmlns:rdf="http://www.w3.org/1999/02/22-rdf-syntax-ns#"
   xmlns:svg="http://www.w3.org/2000/svg"
   xmlns="http://www.w3.org/2000/svg"
   xmlns:sodipodi="http://sodipodi.sourceforge.net/DTD/sodipodi-0.dtd"
   xmlns:inkscape="http://www.inkscape.org/namespaces/inkscape"
   width="744.09448819"
   height="1052.3622047"
   id="svg2"
   sodipodi:version="0.32"
   inkscape:version="0.46"
   sodipodi:docname="tfbs_dp.svg"
   inkscape:output_extension="org.inkscape.output.svg.inkscape">
  <sodipodi:namedview
     id="base"
     pagecolor="#ffffff"
     bordercolor="#666666"
     borderopacity="1.0"
     gridtolerance="10000"
     guidetolerance="10"
     objecttolerance="10"
     inkscape:pageopacity="0.0"
     inkscape:pageshadow="2"
     inkscape:zoom="1"
     inkscape:cx="360.00262"
     inkscape:cy="523.31916"
     inkscape:document-units="px"
     inkscape:current-layer="layer1"
     showgrid="true"
     inkscape:window-width="1280"
     inkscape:window-height="953"
     inkscape:window-x="0"
     inkscape:window-y="25">
    <inkscape:grid
       enabled="true"
       visible="true"
       id="grid2403"
       type="xygrid" />
  </sodipodi:namedview>
  <defs
     id="defs4">
    <marker
       inkscape:stockid="Arrow1Lend"
       orient="auto"
       refY="0.0"
       refX="0.0"
       id="Arrow1Lend"
       style="overflow:visible;">
      <path
         id="path3198"
         d="M 0.0,0.0 L 5.0,-5.0 L -12.5,0.0 L 5.0,5.0 L 0.0,0.0 z "
         style="fill-rule:evenodd;stroke:#000000;stroke-width:1.0pt;marker-start:none;"
         transform="scale(0.8) rotate(180) translate(12.5,0)" />
    </marker>
    <marker
       inkscape:stockid="Arrow2Lend"
       orient="auto"
       refY="0.0"
       refX="0.0"
       id="Arrow2Lend"
       style="overflow:visible;">
      <path
         id="path3216"
         style="font-size:12.0;fill-rule:evenodd;stroke-width:0.62500000;stroke-linejoin:round;"
         d="M 8.7185878,4.0337352 L -2.2072895,0.016013256 L 8.7185884,-4.0017078 C 6.9730900,-1.6296469 6.9831476,1.6157441 8.7185878,4.0337352 z "
         transform="scale(1.1) rotate(180) translate(1,0)" />
    </marker>
    <inkscape:perspective
       id="perspective10"
       inkscape:persp3d-origin="372.04724 : 350.78739 : 1"
       inkscape:vp_z="744.09448 : 526.18109 : 1"
       inkscape:vp_y="0 : 1000 : 0"
       inkscape:vp_x="0 : 526.18109 : 1"
       sodipodi:type="inkscape:persp3d" />
  </defs>
  <metadata
     id="metadata7">
    <rdf:RDF>
      <cc:Work
         rdf:about="">
        <dc:format>image/svg+xml</dc:format>
        <dc:type
           rdf:resource="http://purl.org/dc/dcmitype/StillImage" />
      </cc:Work>
    </rdf:RDF>
  </metadata>
  <g
     id="layer1"
     inkscape:groupmode="layer"
     inkscape:label="Layer 1">
    <rect
       y="272.36218"
       x="138"
       height="80"
       width="90"
       id="rect3193"
       style="fill:none;fill-opacity:1;stroke:#000000;stroke-width:2;stroke-linejoin:round;stroke-miterlimit:4;stroke-dasharray:none;stroke-opacity:1" />
    <text
       id="text3195"
       y="340.36218"
       x="154"
       style="font-size:79.5922699px;font-style:normal;font-weight:normal;fill:#000000;fill-opacity:1;stroke:none;stroke-width:1px;stroke-linecap:butt;stroke-linejoin:miter;stroke-opacity:1;font-family:Bitstream Vera Sans"
       xml:space="preserve"><tspan
         y="340.36218"
         x="154"
         id="tspan3197"
         sodipodi:role="line" /></text>
    <svg
       preserveAspectRatio="none"
       viewBox="0 0 1 1"
       height="8in"
       width="8in"
       id="body"
       baseProfile="full"
       version="1.1" />
    <svg
       version="1.1"
       baseProfile="full"
       id="svg3233"
       width="8in"
       height="8in"
       viewBox="0 0 1 1"
       preserveAspectRatio="none" />
    <g
       ns0:preamble=""
       ns0:text="$G_0$"
       word-spacing="normal"
       letter-spacing="normal"
       font-size-adjust="none"
       font-stretch="normal"
       font-weight="normal"
       font-variant="normal"
       font-style="normal"
       fill-rule="even-odd"
       stroke-miterlimit="10.433"
       xml:space="preserve"
       transform="matrix(5.4397525,0,0,-5.531579,-1059.7187,4383.7455)"
       id="content"
       style="font-style:normal;font-variant:normal;font-weight:normal;font-stretch:normal;letter-spacing:normal;word-spacing:normal;text-anchor:start;fill:none;fill-opacity:1;stroke:#000000;stroke-linecap:butt;stroke-linejoin:miter;stroke-miterlimit:10.43299961;stroke-dasharray:none;stroke-dashoffset:0;stroke-opacity:1">
<path
   id="path2400"
   d="M 232.10298,712.96532 L 232.10298,712.96532 L 232.10298,712.96532 L 232.10298,712.97532 L 232.10298,712.97532 L 232.10298,712.97532 L 232.10298,712.98532 L 232.10298,712.98532 L 232.10298,712.98532 L 232.10298,712.99532 L 232.10298,712.99532 L 232.09298,713.00532 L 232.09298,713.00532 L 232.09298,713.01532 L 232.09298,713.01532 L 232.09298,713.01532 L 232.08298,713.02532 L 232.08298,713.02532 L 232.08298,713.03532 L 232.07298,713.03532 L 232.07298,713.03532 L 232.06298,713.04532 L 232.06298,713.04532 L 232.05298,713.04532 L 232.05298,713.04532 L 232.04298,713.05532 L 232.04298,713.05532 L 232.04298,713.05532 L 232.03298,713.05532 L 232.03298,713.05532 L 232.03298,713.05532 L 232.02298,713.05532 L 232.02298,713.05532 L 232.02298,713.05532 L 232.01298,713.05532 L 232.01298,713.06532 L 232.01298,713.06532 L 232.00298,713.06532 L 232.00298,713.06532 L 231.99298,713.06532 C 231.97298,713.06532 231.95298,713.05532 231.84298,712.94532 L 231.15298,712.17532 C 231.06298,712.31532 230.60298,713.06532 229.49298,713.06532 C 227.27298,713.06532 225.03298,710.85532 225.03298,708.54532 C 225.03298,706.96532 226.14298,705.81532 227.75298,705.81532 C 228.19298,705.81532 228.64298,705.90532 229.00298,706.05532 C 229.49298,706.25532 229.68298,706.46532 229.86298,706.66532 C 229.95298,706.41532 230.21298,706.04532 230.31298,706.04532 C 230.36298,706.04532 230.38298,706.07532 230.38298,706.08532 C 230.40298,706.10532 230.50298,706.48532 230.55298,706.69532 L 230.74298,707.46532 C 230.78298,707.63532 230.83298,707.80532 230.87298,707.96532 C 230.98298,708.41532 230.99298,708.43532 231.56298,708.44532 C 231.61298,708.44532 231.72298,708.45532 231.72298,708.64532 C 231.72298,708.71532 231.67298,708.75532 231.59298,708.75532 C 231.36298,708.75532 230.77298,708.72532 230.54298,708.72532 C 230.23298,708.72532 229.45298,708.75532 229.14298,708.75532 C 229.06298,708.75532 228.94298,708.75532 228.94298,708.55532 C 228.94298,708.44532 229.02298,708.44532 229.23298,708.44532 C 229.25298,708.44532 229.53298,708.44532 229.76298,708.42532 C 230.02298,708.39532 230.07298,708.36532 230.07298,708.23532 C 230.07298,708.14532 229.96298,707.70532 229.86298,707.33532 C 229.58298,706.23532 228.29298,706.12532 227.94298,706.12532 C 226.98298,706.12532 225.94298,706.69532 225.94298,708.21532 C 225.94298,708.52532 226.04298,710.17532 227.08298,711.46532 C 227.62298,712.14532 228.59298,712.75532 229.57298,712.75532 C 230.59298,712.75532 231.18298,711.98532 231.18298,710.82532 C 231.18298,710.43532 231.15298,710.42532 231.15298,710.32532 C 231.15298,710.22532 231.26298,710.22532 231.30298,710.22532 C 231.43298,710.22532 231.43298,710.24532 231.48298,710.42532 L 232.10298,712.96532 z"
   style="fill:#000000;stroke-width:0" />

</g>    <path
       sodipodi:type="arc"
       style="fill:none;fill-opacity:1;stroke:#000000;stroke-width:2;stroke-linejoin:round;stroke-miterlimit:4;stroke-dasharray:none;stroke-opacity:1"
       id="path2418"
       sodipodi:cx="370"
       sodipodi:cy="317.36218"
       sodipodi:rx="50"
       sodipodi:ry="45"
       d="M 420,317.36218 A 50,45 0 1 1 320,317.36218 A 50,45 0 1 1 420,317.36218 z"
       transform="matrix(0.8990258,0,0,1.0011398,-148.63955,141.68956)" />
    <path
       style="fill:none;fill-rule:evenodd;stroke:#000000;stroke-width:2.2249999;stroke-linecap:butt;stroke-linejoin:miter;marker-end:url(#Arrow2Lend);stroke-miterlimit:4;stroke-dasharray:none;stroke-opacity:1"
       d="M 184,352.36218 L 184,412.20578"
       id="path2420" />
    <path
       sodipodi:type="arc"
       style="fill:none;fill-opacity:1;stroke:#000000;stroke-width:2;stroke-linejoin:round;stroke-miterlimit:4;stroke-dasharray:none;stroke-opacity:1"
       id="path6703"
       sodipodi:cx="370"
       sodipodi:cy="317.36218"
       sodipodi:rx="50"
       sodipodi:ry="45"
       d="M 420,317.36218 A 50,45 0 1 1 320,317.36218 A 50,45 0 1 1 420,317.36218 z"
       transform="matrix(0.8990258,0,0,1.0011398,-147.68826,313.68956)" />
    <path
       sodipodi:type="arc"
       style="fill:#000000;fill-opacity:0.39484978;stroke:#000000;stroke-width:2;stroke-linejoin:round;stroke-miterlimit:4;stroke-dasharray:none;stroke-opacity:1;opacity:1"
       id="path6719"
       sodipodi:cx="370"
       sodipodi:cy="317.36218"
       sodipodi:rx="50"
       sodipodi:ry="45"
       d="M 420,317.36218 A 50,45 0 1 1 320,317.36218 A 50,45 0 1 1 420,317.36218 z"
       transform="matrix(0.8990258,0,0,1.0011398,-147.68826,483.58698)" />
    <path
       style="fill:none;fill-rule:evenodd;stroke:#000000;stroke-width:2.84917593;stroke-linecap:butt;stroke-linejoin:miter;marker-end:url(#Arrow2Lend);stroke-miterlimit:4;stroke-dasharray:none;stroke-opacity:1"
       d="M 183.98959,504.83066 L 183.98959,582.36089"
       id="path7163" />
    <path
       style="fill:none;fill-rule:evenodd;stroke:#000000;stroke-width:2.84917593;stroke-linecap:butt;stroke-linejoin:miter;marker-end:url(#Arrow2Lend);stroke-miterlimit:4;stroke-dasharray:none;stroke-opacity:1"
       d="M 184,676.36218 L 184,753.89241"
       id="path7694" />
    <rect
       style="opacity:1;fill:none;fill-opacity:0.39484976999999999;stroke:#000000;stroke-width:2.20000004999999987;stroke-linejoin:round;stroke-miterlimit:4;stroke-dasharray:none;stroke-opacity:1"
       id="rect7698"
       width="150"
       height="320"
       x="110"
       y="542.36218" />
    <flowRoot
       xml:space="preserve"
       id="flowRoot2577"
       style="fill:black;stroke:none;stroke-opacity:1;stroke-width:1px;stroke-linejoin:miter;stroke-linecap:butt;fill-opacity:1;font-family:Bitstream Vera Sans;font-style:normal;font-weight:normal;font-size:40px"><flowRegion
         id="flowRegion2579"><rect
           id="rect2581"
           width="91"
           height="41"
           x="217"
           y="414.36218" /></flowRegion><flowPara
         id="flowPara2583" /></flowRoot>    <g
       ns0:preamble=""
       ns0:text="$G_0$"
       word-spacing="normal"
       letter-spacing="normal"
       font-size-adjust="none"
       font-stretch="normal"
       font-weight="normal"
       font-variant="normal"
       font-style="normal"
       fill-rule="even-odd"
       stroke-miterlimit="10.433"
       xml:space="preserve"
       transform="matrix(5.4397525,0,0,-5.531579,-1059.4715,4238.8774)"
       id="g2980"
       style="font-style:normal;font-variant:normal;font-weight:normal;font-stretch:normal;letter-spacing:normal;word-spacing:normal;text-anchor:start;fill:none;fill-opacity:1;stroke:#000000;stroke-linecap:butt;stroke-linejoin:miter;stroke-miterlimit:10.43299961;stroke-dasharray:none;stroke-dashoffset:0;stroke-opacity:1">
<path
   id="path2982"
   d="M 231,714.05 L 231,714.05 L 231,714.05 L 231,714.06 L 231,714.06 L 231,714.06 L 231,714.07 L 231,714.07 L 231,714.07 L 231,714.08 L 231,714.08 L 230.99,714.09 L 230.99,714.09 L 230.99,714.1 L 230.99,714.1 L 230.99,714.1 L 230.98,714.11 L 230.98,714.11 L 230.98,714.12 L 230.97,714.12 L 230.97,714.12 L 230.96,714.13 L 230.96,714.13 L 230.95,714.13 L 230.95,714.13 L 230.94,714.14 L 230.94,714.14 L 230.94,714.14 L 230.93,714.14 L 230.93,714.14 L 230.93,714.14 L 230.92,714.14 L 230.92,714.14 L 230.92,714.14 L 230.91,714.14 L 230.91,714.15 L 230.91,714.15 L 230.9,714.15 L 230.9,714.15 L 230.89,714.15 C 230.87,714.15 230.85,714.14 230.74,714.03 L 230.05,713.26 C 229.96,713.4 229.5,714.15 228.39,714.15 C 226.17,714.15 223.93,711.94 223.93,709.63 C 223.93,708.05 225.04,706.9 226.65,706.9 C 227.09,706.9 227.54,706.99 227.9,707.14 C 228.39,707.34 228.58,707.55 228.76,707.75 C 228.85,707.5 229.11,707.13 229.21,707.13 C 229.26,707.13 229.28,707.16 229.28,707.17 C 229.3,707.19 229.4,707.57 229.45,707.78 L 229.64,708.55 C 229.68,708.72 229.73,708.89 229.77,709.05 C 229.88,709.5 229.89,709.52 230.46,709.53 C 230.51,709.53 230.62,709.54 230.62,709.73 C 230.62,709.8 230.57,709.84 230.49,709.84 C 230.26,709.84 229.67,709.81 229.44,709.81 C 229.13,709.81 228.35,709.84 228.04,709.84 C 227.96,709.84 227.84,709.84 227.84,709.64 C 227.84,709.53 227.92,709.53 228.13,709.53 C 228.15,709.53 228.43,709.53 228.66,709.51 C 228.92,709.48 228.97,709.45 228.97,709.32 C 228.97,709.23 228.86,708.79 228.76,708.42 C 228.48,707.32 227.19,707.21 226.84,707.21 C 225.88,707.21 224.84,707.78 224.84,709.3 C 224.84,709.61 224.94,711.26 225.98,712.55 C 226.52,713.23 227.49,713.84 228.47,713.84 C 229.49,713.84 230.08,713.07 230.08,711.91 C 230.08,711.52 230.05,711.51 230.05,711.41 C 230.05,711.31 230.16,711.31 230.2,711.31 C 230.33,711.31 230.33,711.33 230.38,711.51 L 231,714.05 z"
   style="fill:#000000;stroke-width:0" />
<path
   id="path2984"
   d="M 234.86,707.85 L 234.86,708 L 234.86,708.13 L 234.85,708.26 L 234.84,708.39 L 234.83,708.52 L 234.82,708.63 L 234.8,708.75 L 234.78,708.86 L 234.75,708.97 L 234.72,709.08 L 234.69,709.18 L 234.65,709.28 L 234.61,709.38 L 234.56,709.47 L 234.51,709.57 L 234.48,709.62 L 234.45,709.66 C 234.23,709.98 233.8,710.26 233.24,710.26 C 231.62,710.26 231.62,708.36 231.62,707.85 C 231.62,707.35 231.62,705.49 233.24,705.49 L 233.24,705.69 C 232.92,705.69 232.5,705.87 232.36,706.45 C 232.26,706.86 232.26,707.43 232.26,707.95 C 232.26,708.45 232.26,708.98 232.36,709.37 C 232.51,709.92 232.96,710.07 233.24,710.07 C 233.62,710.07 233.98,709.84 234.11,709.43 C 234.22,709.05 234.23,708.55 234.23,707.95 C 234.23,707.43 234.23,706.91 234.14,706.47 C 234,705.84 233.52,705.69 233.24,705.69 L 233.24,705.69 L 233.24,705.49 C 234.86,705.49 234.86,707.35 234.86,707.85 z"
   style="fill:#000000;stroke-width:0" />
</g>    <g
       id="g3023"
       transform="matrix(5.4397525,0,0,-5.531579,-1048.7674,4557.7455)"
       xml:space="preserve"
       stroke-miterlimit="10.433"
       fill-rule="even-odd"
       font-style="normal"
       font-variant="normal"
       font-weight="normal"
       font-stretch="normal"
       font-size-adjust="none"
       letter-spacing="normal"
       word-spacing="normal"
       ns0:text="$\\theta_{i}$"
       ns0:preamble=""
       style="font-style:normal;font-variant:normal;font-weight:normal;font-stretch:normal;letter-spacing:normal;word-spacing:normal;text-anchor:start;fill:none;fill-opacity:1;stroke:#000000;stroke-linecap:butt;stroke-linejoin:miter;stroke-miterlimit:10.43299961;stroke-dasharray:none;stroke-dashoffset:0;stroke-opacity:1">
<path
   style="fill:#000000;stroke-width:0"
   d="M 227.96,712.1 L 227.96,712.17 L 227.96,712.24 L 227.96,712.31 L 227.96,712.38 L 227.95,712.46 L 227.94,712.54 L 227.93,712.62 L 227.92,712.7 L 227.91,712.78 L 227.89,712.87 L 227.87,712.95 L 227.85,713.04 L 227.83,713.12 L 227.81,713.21 L 227.78,713.29 L 227.75,713.37 L 227.71,713.45 L 227.68,713.53 L 227.64,713.6 L 227.59,713.67 L 227.55,713.74 L 227.5,713.8 L 227.44,713.86 L 227.39,713.92 L 227.32,713.97 L 227.29,713.99 L 227.26,714.01 L 227.22,714.03 L 227.19,714.05 L 227.15,714.07 L 227.11,714.09 L 227.07,714.1 L 227.03,714.11 L 226.99,714.12 L 226.95,714.13 L 226.91,714.14 L 226.86,714.14 L 226.82,714.14 L 226.77,714.15 L 226.76,713.93 C 227.25,713.93 227.31,713.29 227.31,712.72 C 227.31,712.23 227.23,711.72 226.99,710.74 L 224.91,710.74 C 225.08,711.38 225.28,712.17 225.67,712.88 C 225.94,713.37 226.31,713.93 226.76,713.93 L 226.77,714.15 C 225.38,714.15 223.85,711.34 223.85,709.05 C 223.85,708.12 224.14,707.01 225.05,707.01 L 225.05,707.23 C 224.72,707.23 224.51,707.52 224.51,708.45 C 224.51,708.87 224.57,709.44 224.83,710.42 L 226.9,710.42 C 226.79,709.96 226.58,709.11 226.2,708.4 C 225.85,707.72 225.48,707.23 225.05,707.23 L 225.05,707.01 C 226.45,707.01 227.96,709.87 227.96,712.1 z"
   id="path3025" />
<path
   style="fill:#000000;stroke-width:0"
   d="M 230.37,709.99 L 230.37,710 L 230.37,710.01 L 230.37,710.02 L 230.37,710.03 L 230.37,710.04 L 230.36,710.05 L 230.36,710.07 L 230.36,710.08 L 230.35,710.09 L 230.35,710.1 L 230.34,710.11 L 230.34,710.12 L 230.33,710.13 L 230.32,710.14 L 230.31,710.15 L 230.31,710.16 L 230.3,710.17 L 230.29,710.18 L 230.28,710.19 L 230.27,710.2 L 230.26,710.21 L 230.24,710.21 L 230.23,710.22 L 230.22,710.23 L 230.21,710.23 L 230.19,710.24 L 230.18,710.24 L 230.16,710.25 L 230.14,710.25 L 230.13,710.25 L 230.11,710.25 L 230.09,710.25 C 229.9,710.25 229.7,710.07 229.7,709.87 C 229.7,709.75 229.79,709.6 229.98,709.6 C 230.18,709.6 230.37,709.8 230.37,709.99 z"
   id="path3027" />
<path
   style="fill:#000000;stroke-width:0"
   d="M 228.95,706.45 L 228.94,706.43 L 228.94,706.41 L 228.93,706.38 L 228.92,706.36 L 228.92,706.34 L 228.91,706.33 L 228.91,706.31 L 228.9,706.29 L 228.9,706.27 L 228.9,706.26 L 228.89,706.24 L 228.89,706.23 L 228.89,706.22 L 228.89,706.21 L 228.89,706.2 L 228.89,706.19 L 228.89,706.17 L 228.89,706.16 L 228.89,706.15 C 228.89,705.83 229.17,705.56 229.55,705.56 C 230.25,705.56 230.55,706.52 230.55,706.63 C 230.55,706.72 230.46,706.72 230.44,706.72 C 230.34,706.72 230.34,706.68 230.31,706.6 C 230.15,706.04 229.84,705.76 229.57,705.76 C 229.43,705.76 229.4,705.85 229.4,706 C 229.4,706.16 229.44,706.29 229.51,706.45 C 229.58,706.63 229.65,706.82 229.73,707 C 229.79,707.17 230.04,707.81 230.07,707.89 C 230.09,707.96 230.11,708.04 230.11,708.11 C 230.11,708.44 229.84,708.71 229.45,708.71 C 228.76,708.71 228.44,707.76 228.44,707.64 C 228.44,707.55 228.54,707.55 228.56,707.55 C 228.66,707.55 228.66,707.58 228.68,707.66 C 228.87,708.26 229.17,708.51 229.43,708.51 C 229.54,708.51 229.6,708.45 229.6,708.27 C 229.6,708.11 229.56,708 229.39,707.57 L 228.95,706.45 z"
   id="path3029" />
</g>    <g
       style="font-style:normal;font-variant:normal;font-weight:normal;font-stretch:normal;letter-spacing:normal;word-spacing:normal;text-anchor:start;fill:none;fill-opacity:1;stroke:#000000;stroke-linecap:butt;stroke-linejoin:miter;stroke-miterlimit:10.43299961;stroke-dasharray:none;stroke-dashoffset:0;stroke-opacity:1"
       ns0:preamble=""
       ns0:text="$x_{i}$"
       word-spacing="normal"
       letter-spacing="normal"
       font-size-adjust="none"
       font-stretch="normal"
       font-weight="normal"
       font-variant="normal"
       font-style="normal"
       fill-rule="even-odd"
       stroke-miterlimit="10.433"
       xml:space="preserve"
       transform="matrix(5.4397525,0,0,-5.531579,-1050.7674,4721.6429)"
       id="g3106">
<path
   id="path3108"
   d="M 226.76,710.13 L 226.77,710.16 L 226.77,710.19 L 226.78,710.22 L 226.79,710.26 L 226.8,710.29 L 226.81,710.34 L 226.83,710.38 L 226.84,710.42 L 226.86,710.47 L 226.87,710.52 L 226.89,710.57 L 226.91,710.62 L 226.94,710.67 L 226.96,710.72 L 226.99,710.77 L 227.01,710.82 L 227.04,710.86 L 227.07,710.91 L 227.11,710.96 L 227.14,711 L 227.18,711.05 L 227.22,711.09 L 227.26,711.12 L 227.31,711.16 L 227.35,711.19 L 227.4,711.22 L 227.43,711.23 L 227.45,711.25 L 227.48,711.26 L 227.51,711.27 L 227.53,711.28 L 227.56,711.28 L 227.59,711.29 L 227.62,711.3 L 227.65,711.3 L 227.68,711.3 L 227.71,711.31 L 227.75,711.31 C 227.8,711.31 228.04,711.31 228.24,711.18 C 227.96,711.13 227.77,710.88 227.77,710.64 C 227.77,710.48 227.88,710.29 228.15,710.29 C 228.36,710.29 228.68,710.47 228.68,710.87 C 228.68,711.39 228.1,711.53 227.76,711.53 C 227.18,711.53 226.83,711 226.71,710.77 C 226.46,711.43 225.92,711.53 225.63,711.53 C 224.6,711.53 224.03,710.24 224.03,709.99 C 224.03,709.89 224.13,709.89 224.15,709.89 C 224.23,709.89 224.26,709.91 224.28,710 C 224.62,711.06 225.28,711.31 225.61,711.31 C 225.8,711.31 226.15,711.22 226.15,710.64 C 226.15,710.33 225.98,709.66 225.61,708.27 C 225.46,707.65 225.11,707.23 224.67,707.23 C 224.61,707.23 224.38,707.23 224.17,707.36 C 224.42,707.41 224.64,707.62 224.64,707.9 C 224.64,708.17 224.42,708.25 224.27,708.25 C 223.97,708.25 223.72,707.99 223.72,707.67 C 223.72,707.21 224.22,707.01 224.66,707.01 C 225.32,707.01 225.67,707.71 225.7,707.77 C 225.82,707.4 226.18,707.01 226.78,707.01 C 227.81,707.01 228.37,708.3 228.37,708.55 C 228.37,708.65 228.28,708.65 228.25,708.65 C 228.16,708.65 228.15,708.61 228.12,708.54 C 227.8,707.47 227.12,707.23 226.8,707.23 C 226.41,707.23 226.25,707.55 226.25,707.89 C 226.25,708.11 226.31,708.33 226.42,708.77 L 226.76,710.13 z"
   style="fill:#000000;stroke-width:0" />
<path
   id="path3110"
   d="M 231.38,709.99 L 231.38,710 L 231.38,710.01 L 231.38,710.02 L 231.38,710.03 L 231.38,710.04 L 231.38,710.05 L 231.37,710.07 L 231.37,710.08 L 231.36,710.09 L 231.36,710.1 L 231.35,710.11 L 231.35,710.12 L 231.34,710.13 L 231.33,710.14 L 231.33,710.15 L 231.32,710.16 L 231.31,710.17 L 231.3,710.18 L 231.29,710.19 L 231.28,710.2 L 231.27,710.21 L 231.26,710.21 L 231.24,710.22 L 231.23,710.23 L 231.22,710.23 L 231.2,710.24 L 231.19,710.24 L 231.17,710.25 L 231.16,710.25 L 231.14,710.25 L 231.12,710.25 L 231.11,710.25 C 230.92,710.25 230.71,710.07 230.71,709.87 C 230.71,709.75 230.81,709.6 230.99,709.6 C 231.2,709.6 231.38,709.8 231.38,709.99 z"
   style="fill:#000000;stroke-width:0" />
<path
   id="path3112"
   d="M 229.96,706.45 L 229.96,706.43 L 229.95,706.41 L 229.94,706.38 L 229.93,706.36 L 229.93,706.34 L 229.92,706.33 L 229.92,706.31 L 229.92,706.29 L 229.91,706.27 L 229.91,706.26 L 229.9,706.24 L 229.9,706.23 L 229.9,706.22 L 229.9,706.21 L 229.9,706.2 L 229.9,706.19 L 229.9,706.17 L 229.9,706.16 L 229.9,706.15 C 229.9,705.83 230.18,705.56 230.56,705.56 C 231.26,705.56 231.57,706.52 231.57,706.63 C 231.57,706.72 231.48,706.72 231.45,706.72 C 231.36,706.72 231.35,706.68 231.32,706.6 C 231.16,706.04 230.85,705.76 230.58,705.76 C 230.44,705.76 230.41,705.85 230.41,706 C 230.41,706.16 230.46,706.29 230.52,706.45 C 230.59,706.63 230.67,706.82 230.74,707 C 230.81,707.17 231.06,707.81 231.09,707.89 C 231.11,707.96 231.13,708.04 231.13,708.11 C 231.13,708.44 230.85,708.71 230.46,708.71 C 229.77,708.71 229.45,707.76 229.45,707.64 C 229.45,707.55 229.55,707.55 229.57,707.55 C 229.67,707.55 229.68,707.58 229.7,707.66 C 229.88,708.26 230.18,708.51 230.44,708.51 C 230.55,708.51 230.62,708.45 230.62,708.27 C 230.62,708.11 230.58,708 230.4,707.57 L 229.96,706.45 z"
   style="fill:#000000;stroke-width:0" />
</g>  </g>
</svg>
