<?xml version="1.0" encoding="UTF-8" standalone="no"?>
<!-- Created with Inkscape (http://www.inkscape.org/) -->
<svg
   xmlns:ns0="http://www.iki.fi/pav/software/textext/"
   xmlns:dc="http://purl.org/dc/elements/1.1/"
   xmlns:cc="http://creativecommons.org/ns#"
   xmlns:rdf="http://www.w3.org/1999/02/22-rdf-syntax-ns#"
   xmlns:svg="http://www.w3.org/2000/svg"
   xmlns="http://www.w3.org/2000/svg"
   xmlns:sodipodi="http://sodipodi.sourceforge.net/DTD/sodipodi-0.dtd"
   xmlns:inkscape="http://www.inkscape.org/namespaces/inkscape"
   width="556.48224"
   height="759.88226"
   id="svg2"
   sodipodi:version="0.32"
   inkscape:version="0.46"
   sodipodi:docname="tfbs_hdp2.svg"
   inkscape:output_extension="org.inkscape.output.svg.inkscape"
   version="1.0">
  <sodipodi:namedview
     id="base"
     pagecolor="#ffffff"
     bordercolor="#666666"
     borderopacity="1.0"
     gridtolerance="10000"
     guidetolerance="10"
     objecttolerance="10"
     inkscape:pageopacity="0.0"
     inkscape:pageshadow="2"
     inkscape:zoom="1"
     inkscape:cx="360.00262"
     inkscape:cy="758.68402"
     inkscape:document-units="px"
     inkscape:current-layer="layer1"
     showgrid="true"
     inkscape:window-width="1278"
     inkscape:window-height="948"
     inkscape:window-x="0"
     inkscape:window-y="25">
    <inkscape:grid
       enabled="true"
       visible="true"
       id="grid2403"
       type="xygrid" />
  </sodipodi:namedview>
  <defs
     id="defs4">
    <marker
       inkscape:stockid="Arrow1Lend"
       orient="auto"
       refY="0"
       refX="0"
       id="Arrow1Lend"
       style="overflow:visible">
      <path
         id="path3198"
         d="M 0,0 L 5,-5 L -12.5,0 L 5,5 L 0,0 z"
         style="fill-rule:evenodd;stroke:#000000;stroke-width:1pt;marker-start:none"
         transform="matrix(-0.8,0,0,-0.8,-10,0)" />
    </marker>
    <marker
       inkscape:stockid="Arrow2Lend"
       orient="auto"
       refY="0"
       refX="0"
       id="Arrow2Lend"
       style="overflow:visible">
      <path
         id="path3216"
         style="font-size:12px;fill-rule:evenodd;stroke-width:0.625;stroke-linejoin:round"
         d="M 8.7185878,4.0337352 L -2.2072895,0.016013256 L 8.7185884,-4.0017078 C 6.97309,-1.6296469 6.9831476,1.6157441 8.7185878,4.0337352 z"
         transform="matrix(-1.1,0,0,-1.1,-1.1,0)" />
    </marker>
    <inkscape:perspective
       id="perspective10"
       inkscape:persp3d-origin="372.04724 : 350.78739 : 1"
       inkscape:vp_z="744.09448 : 526.18109 : 1"
       inkscape:vp_y="0 : 1000 : 0"
       inkscape:vp_x="0 : 526.18109 : 1"
       sodipodi:type="inkscape:persp3d" />
  </defs>
  <metadata
     id="metadata7">
    <rdf:RDF>
      <cc:Work
         rdf:about="">
        <dc:format>image/svg+xml</dc:format>
        <dc:type
           rdf:resource="http://purl.org/dc/dcmitype/StillImage" />
      </cc:Work>
    </rdf:RDF>
  </metadata>
  <g
     id="layer1"
     inkscape:groupmode="layer"
     inkscape:label="Layer 1"
     transform="translate(-108.9,-103.57991)">
    <rect
       y="132.36218"
       x="270"
       height="80"
       width="90"
       id="rect3193"
       style="fill:none;fill-opacity:1;stroke:#000000;stroke-width:2;stroke-linejoin:round;stroke-miterlimit:4;stroke-dasharray:none;stroke-opacity:1" />
    <text
       id="text3195"
       y="200.36218"
       x="286"
       style="font-size:79.5922699px;font-style:normal;font-weight:normal;fill:#000000;fill-opacity:1;stroke:none;stroke-width:1px;stroke-linecap:butt;stroke-linejoin:miter;stroke-opacity:1;font-family:Bitstream Vera Sans"
       xml:space="preserve"><tspan
         y="200.36218"
         x="286"
         id="tspan3197"
         sodipodi:role="line">H</tspan></text>
    <svg
       preserveAspectRatio="none"
       viewBox="0 0 1 1"
       height="8in"
       width="8in"
       id="body"
       baseProfile="full"
       version="1.0"
       sodipodi:version="0.32"
       inkscape:version="0.46" />
    <svg
       version="1.0"
       baseProfile="full"
       id="svg3233"
       width="8in"
       height="8in"
       viewBox="0 0 1 1"
       preserveAspectRatio="none"
       sodipodi:version="0.32"
       inkscape:version="0.46" />
    <g
       ns0:preamble=""
       ns0:text="$G_0$"
       word-spacing="normal"
       letter-spacing="normal"
       font-size-adjust="none"
       font-stretch="normal"
       font-weight="normal"
       font-variant="normal"
       font-style="normal"
       fill-rule="even-odd"
       stroke-miterlimit="10.433"
       xml:space="preserve"
       transform="matrix(5.4397525,0,0,-5.531579,-928.81871,4244.6942)"
       id="content"
       style="font-style:normal;font-variant:normal;font-weight:normal;font-stretch:normal;letter-spacing:normal;word-spacing:normal;text-anchor:start;fill:none;fill-opacity:1;stroke:#000000;stroke-linecap:butt;stroke-linejoin:miter;stroke-miterlimit:10.43299961;stroke-dasharray:none;stroke-dashoffset:0;stroke-opacity:1">
<path
   id="path2400"
   d="M 231,714.05 L 231,714.05 L 231,714.05 L 231,714.06 L 231,714.06 L 231,714.06 L 231,714.07 L 231,714.07 L 231,714.07 L 231,714.08 L 231,714.08 L 230.99,714.09 L 230.99,714.09 L 230.99,714.1 L 230.99,714.1 L 230.99,714.1 L 230.98,714.11 L 230.98,714.11 L 230.98,714.12 L 230.97,714.12 L 230.97,714.12 L 230.96,714.13 L 230.96,714.13 L 230.95,714.13 L 230.95,714.13 L 230.94,714.14 L 230.94,714.14 L 230.94,714.14 L 230.93,714.14 L 230.93,714.14 L 230.93,714.14 L 230.92,714.14 L 230.92,714.14 L 230.92,714.14 L 230.91,714.14 L 230.91,714.15 L 230.91,714.15 L 230.9,714.15 L 230.9,714.15 L 230.89,714.15 C 230.87,714.15 230.85,714.14 230.74,714.03 L 230.05,713.26 C 229.96,713.4 229.5,714.15 228.39,714.15 C 226.17,714.15 223.93,711.94 223.93,709.63 C 223.93,708.05 225.04,706.9 226.65,706.9 C 227.09,706.9 227.54,706.99 227.9,707.14 C 228.39,707.34 228.58,707.55 228.76,707.75 C 228.85,707.5 229.11,707.13 229.21,707.13 C 229.26,707.13 229.28,707.16 229.28,707.17 C 229.3,707.19 229.4,707.57 229.45,707.78 L 229.64,708.55 C 229.68,708.72 229.73,708.89 229.77,709.05 C 229.88,709.5 229.89,709.52 230.46,709.53 C 230.51,709.53 230.62,709.54 230.62,709.73 C 230.62,709.8 230.57,709.84 230.49,709.84 C 230.26,709.84 229.67,709.81 229.44,709.81 C 229.13,709.81 228.35,709.84 228.04,709.84 C 227.96,709.84 227.84,709.84 227.84,709.64 C 227.84,709.53 227.92,709.53 228.13,709.53 C 228.15,709.53 228.43,709.53 228.66,709.51 C 228.92,709.48 228.97,709.45 228.97,709.32 C 228.97,709.23 228.86,708.79 228.76,708.42 C 228.48,707.32 227.19,707.21 226.84,707.21 C 225.88,707.21 224.84,707.78 224.84,709.3 C 224.84,709.61 224.94,711.26 225.98,712.55 C 226.52,713.23 227.49,713.84 228.47,713.84 C 229.49,713.84 230.08,713.07 230.08,711.91 C 230.08,711.52 230.05,711.51 230.05,711.41 C 230.05,711.31 230.16,711.31 230.2,711.31 C 230.33,711.31 230.33,711.33 230.38,711.51 L 231,714.05 z"
   style="fill:#000000;stroke-width:0" />
<path
   id="path2402"
   d="M 234.86,707.85 L 234.86,708 L 234.86,708.13 L 234.85,708.26 L 234.84,708.39 L 234.83,708.52 L 234.82,708.63 L 234.8,708.75 L 234.78,708.86 L 234.75,708.97 L 234.72,709.08 L 234.69,709.18 L 234.65,709.28 L 234.61,709.38 L 234.56,709.47 L 234.51,709.57 L 234.48,709.62 L 234.45,709.66 C 234.23,709.98 233.8,710.26 233.24,710.26 C 231.62,710.26 231.62,708.36 231.62,707.85 C 231.62,707.35 231.62,705.49 233.24,705.49 L 233.24,705.69 C 232.92,705.69 232.5,705.87 232.36,706.45 C 232.26,706.86 232.26,707.43 232.26,707.95 C 232.26,708.45 232.26,708.98 232.36,709.37 C 232.51,709.92 232.96,710.07 233.24,710.07 C 233.62,710.07 233.98,709.84 234.11,709.43 C 234.22,709.05 234.23,708.55 234.23,707.95 C 234.23,707.43 234.23,706.91 234.14,706.47 C 234,705.84 233.52,705.69 233.24,705.69 L 233.24,705.69 L 233.24,705.49 C 234.86,705.49 234.86,707.35 234.86,707.85 z"
   style="fill:#000000;stroke-width:0" />
</g>    <path
       sodipodi:type="arc"
       style="fill:none;fill-opacity:1;stroke:#000000;stroke-width:2;stroke-linejoin:round;stroke-miterlimit:4;stroke-dasharray:none;stroke-opacity:1"
       id="path2418"
       sodipodi:cx="370"
       sodipodi:cy="317.36218"
       sodipodi:rx="50"
       sodipodi:ry="45"
       d="M 420,317.36218 A 50,45 0 1 1 320,317.36218 A 50,45 0 1 1 420,317.36218 z"
       transform="matrix(0.8990258,0,0,1.0011398,-17.739547,0.638277)" />
    <path
       style="fill:none;fill-rule:evenodd;stroke:#000000;stroke-width:2.2249999;stroke-linecap:butt;stroke-linejoin:miter;marker-end:url(#Arrow2Lend);stroke-miterlimit:4;stroke-dasharray:none;stroke-opacity:1"
       d="M 316,212.36218 L 316,272.20578"
       id="path2420" />
    <path
       sodipodi:type="arc"
       style="fill:none;fill-opacity:1;stroke:#000000;stroke-width:2;stroke-linejoin:round;stroke-miterlimit:4;stroke-dasharray:none;stroke-opacity:1"
       id="path3976"
       sodipodi:cx="370"
       sodipodi:cy="317.36218"
       sodipodi:rx="50"
       sodipodi:ry="45"
       d="M 420,317.36218 A 50,45 0 1 1 320,317.36218 A 50,45 0 1 1 420,317.36218 z"
       transform="matrix(0.8990258,0,0,1.0011398,-144.86919,140.79561)" />
    <path
       sodipodi:type="arc"
       style="fill:none;fill-opacity:1;stroke:#000000;stroke-width:2;stroke-linejoin:round;stroke-miterlimit:4;stroke-dasharray:none;stroke-opacity:1"
       id="path3984"
       sodipodi:cx="370"
       sodipodi:cy="317.36218"
       sodipodi:rx="50"
       sodipodi:ry="45"
       d="M 420,317.36218 A 50,45 0 1 1 320,317.36218 A 50,45 0 1 1 420,317.36218 z"
       transform="matrix(0.8990258,0,0,1.0011398,114.26044,140.63829)" />
    <g
       id="g4010"
       transform="matrix(5.4397525,0,0,-5.531579,-1055.9483,4384.8515)"
       xml:space="preserve"
       stroke-miterlimit="10.433"
       fill-rule="even-odd"
       font-style="normal"
       font-variant="normal"
       font-weight="normal"
       font-stretch="normal"
       font-size-adjust="none"
       letter-spacing="normal"
       word-spacing="normal"
       ns0:text="$G_1$"
       ns0:preamble=""
       style="font-style:normal;font-variant:normal;font-weight:normal;font-stretch:normal;letter-spacing:normal;word-spacing:normal;text-anchor:start;fill:none;fill-opacity:1;stroke:#000000;stroke-linecap:butt;stroke-linejoin:miter;stroke-miterlimit:10.43299961;stroke-dasharray:none;stroke-dashoffset:0;stroke-opacity:1">
<path
   d="M 231,714.05 L 231,714.05 L 231,714.05 L 231,714.06 L 231,714.06 L 231,714.06 L 231,714.07 L 231,714.07 L 231,714.07 L 231,714.08 L 231,714.08 L 230.99,714.09 L 230.99,714.09 L 230.99,714.1 L 230.99,714.1 L 230.99,714.1 L 230.98,714.11 L 230.98,714.11 L 230.98,714.12 L 230.97,714.12 L 230.97,714.12 L 230.96,714.13 L 230.96,714.13 L 230.95,714.13 L 230.95,714.13 L 230.94,714.14 L 230.94,714.14 L 230.94,714.14 L 230.93,714.14 L 230.93,714.14 L 230.93,714.14 L 230.92,714.14 L 230.92,714.14 L 230.92,714.14 L 230.91,714.14 L 230.91,714.15 L 230.91,714.15 L 230.9,714.15 L 230.9,714.15 L 230.89,714.15 C 230.87,714.15 230.85,714.14 230.74,714.03 L 230.05,713.26 C 229.96,713.4 229.5,714.15 228.39,714.15 C 226.17,714.15 223.93,711.94 223.93,709.63 C 223.93,708.05 225.04,706.9 226.65,706.9 C 227.09,706.9 227.54,706.99 227.9,707.14 C 228.39,707.34 228.58,707.55 228.76,707.75 C 228.85,707.5 229.11,707.13 229.21,707.13 C 229.26,707.13 229.28,707.16 229.28,707.17 C 229.3,707.19 229.4,707.57 229.45,707.78 L 229.64,708.55 C 229.68,708.72 229.73,708.89 229.77,709.05 C 229.88,709.5 229.89,709.52 230.46,709.53 C 230.51,709.53 230.62,709.54 230.62,709.73 C 230.62,709.8 230.57,709.84 230.49,709.84 C 230.26,709.84 229.67,709.81 229.44,709.81 C 229.13,709.81 228.35,709.84 228.04,709.84 C 227.96,709.84 227.84,709.84 227.84,709.64 C 227.84,709.53 227.92,709.53 228.13,709.53 C 228.15,709.53 228.43,709.53 228.66,709.51 C 228.92,709.48 228.97,709.45 228.97,709.32 C 228.97,709.23 228.86,708.79 228.76,708.42 C 228.48,707.32 227.19,707.21 226.84,707.21 C 225.88,707.21 224.84,707.78 224.84,709.3 C 224.84,709.61 224.94,711.26 225.98,712.55 C 226.52,713.23 227.49,713.84 228.47,713.84 C 229.49,713.84 230.08,713.07 230.08,711.91 C 230.08,711.52 230.05,711.51 230.05,711.41 C 230.05,711.31 230.16,711.31 230.2,711.31 C 230.33,711.31 230.33,711.33 230.38,711.51 L 231,714.05 z"
   id="path4012"
   style="fill:#000000;stroke-width:0" />
<path
   d="M 233.6,710.07 L 233.6,710.07 L 233.6,710.08 L 233.6,710.09 L 233.6,710.1 L 233.6,710.11 L 233.6,710.11 L 233.6,710.12 L 233.6,710.13 L 233.6,710.13 L 233.6,710.14 L 233.6,710.15 L 233.6,710.15 L 233.6,710.16 L 233.6,710.16 L 233.59,710.17 L 233.59,710.18 L 233.59,710.18 L 233.59,710.19 L 233.59,710.19 L 233.59,710.2 L 233.58,710.21 L 233.58,710.22 L 233.58,710.22 L 233.57,710.23 L 233.57,710.23 L 233.56,710.24 L 233.56,710.24 L 233.55,710.25 L 233.54,710.25 L 233.53,710.25 L 233.52,710.25 L 233.52,710.26 L 233.51,710.26 L 233.5,710.26 L 233.5,710.26 L 233.49,710.26 L 233.49,710.26 L 233.48,710.26 L 233.48,710.26 L 233.47,710.26 L 233.46,710.26 L 233.45,710.26 L 233.45,710.26 L 233.44,710.26 L 233.43,710.26 L 233.42,710.26 L 233.42,710.26 L 233.41,710.26 L 233.4,710.26 L 233.39,710.26 C 232.94,709.82 232.31,709.81 232.02,709.81 L 232.02,709.56 C 232.19,709.56 232.65,709.56 233.03,709.76 L 233.03,706.2 C 233.03,705.97 233.03,705.88 232.34,705.88 L 232.07,705.88 L 232.07,705.63 C 232.2,705.64 233.05,705.66 233.31,705.66 C 233.53,705.66 234.41,705.64 234.56,705.63 L 234.56,705.88 L 234.3,705.88 C 233.6,705.88 233.6,705.97 233.6,706.2 L 233.6,710.07 z"
   id="path4014"
   style="fill:#000000;stroke-width:0" />
</g>    <g
       style="font-style:normal;font-variant:normal;font-weight:normal;font-stretch:normal;letter-spacing:normal;word-spacing:normal;text-anchor:start;fill:none;fill-opacity:1;stroke:#000000;stroke-linecap:butt;stroke-linejoin:miter;stroke-miterlimit:10.43299961;stroke-dasharray:none;stroke-dashoffset:0;stroke-opacity:1"
       ns0:preamble=""
       ns0:text="$G_2$"
       word-spacing="normal"
       letter-spacing="normal"
       font-size-adjust="none"
       font-stretch="normal"
       font-weight="normal"
       font-variant="normal"
       font-style="normal"
       fill-rule="even-odd"
       stroke-miterlimit="10.433"
       xml:space="preserve"
       transform="matrix(5.4397525,0,0,-5.531579,-796.81871,4384.6942)"
       id="g4065">
<path
   id="path4067"
   d="M 231,714.05 L 231,714.05 L 231,714.05 L 231,714.06 L 231,714.06 L 231,714.06 L 231,714.07 L 231,714.07 L 231,714.07 L 231,714.08 L 231,714.08 L 230.99,714.09 L 230.99,714.09 L 230.99,714.1 L 230.99,714.1 L 230.99,714.1 L 230.98,714.11 L 230.98,714.11 L 230.98,714.12 L 230.97,714.12 L 230.97,714.12 L 230.96,714.13 L 230.96,714.13 L 230.95,714.13 L 230.95,714.13 L 230.94,714.14 L 230.94,714.14 L 230.94,714.14 L 230.93,714.14 L 230.93,714.14 L 230.93,714.14 L 230.92,714.14 L 230.92,714.14 L 230.92,714.14 L 230.91,714.14 L 230.91,714.15 L 230.91,714.15 L 230.9,714.15 L 230.9,714.15 L 230.89,714.15 C 230.87,714.15 230.85,714.14 230.74,714.03 L 230.05,713.26 C 229.96,713.4 229.5,714.15 228.39,714.15 C 226.17,714.15 223.93,711.94 223.93,709.63 C 223.93,708.05 225.04,706.9 226.65,706.9 C 227.09,706.9 227.54,706.99 227.9,707.14 C 228.39,707.34 228.58,707.55 228.76,707.75 C 228.85,707.5 229.11,707.13 229.21,707.13 C 229.26,707.13 229.28,707.16 229.28,707.17 C 229.3,707.19 229.4,707.57 229.45,707.78 L 229.64,708.55 C 229.68,708.72 229.73,708.89 229.77,709.05 C 229.88,709.5 229.89,709.52 230.46,709.53 C 230.51,709.53 230.62,709.54 230.62,709.73 C 230.62,709.8 230.57,709.84 230.49,709.84 C 230.26,709.84 229.67,709.81 229.44,709.81 C 229.13,709.81 228.35,709.84 228.04,709.84 C 227.96,709.84 227.84,709.84 227.84,709.64 C 227.84,709.53 227.92,709.53 228.13,709.53 C 228.15,709.53 228.43,709.53 228.66,709.51 C 228.92,709.48 228.97,709.45 228.97,709.32 C 228.97,709.23 228.86,708.79 228.76,708.42 C 228.48,707.32 227.19,707.21 226.84,707.21 C 225.88,707.21 224.84,707.78 224.84,709.3 C 224.84,709.61 224.94,711.26 225.98,712.55 C 226.52,713.23 227.49,713.84 228.47,713.84 C 229.49,713.84 230.08,713.07 230.08,711.91 C 230.08,711.52 230.05,711.51 230.05,711.41 C 230.05,711.31 230.16,711.31 230.2,711.31 C 230.33,711.31 230.33,711.33 230.38,711.51 L 231,714.05 z"
   style="fill:#000000;stroke-width:0" />
<path
   id="path4069"
   d="M 234.78,706.9 L 234.55,706.9 C 234.53,706.75 234.46,706.33 234.37,706.27 C 234.31,706.22 233.77,706.22 233.68,706.22 L 232.39,706.22 C 233.12,706.87 233.37,707.07 233.79,707.39 C 234.3,707.81 234.78,708.24 234.78,708.9 C 234.78,709.74 234.04,710.26 233.15,710.26 C 232.29,710.26 231.7,709.65 231.7,709.01 C 231.7,708.66 232,708.62 232.07,708.62 C 232.24,708.62 232.44,708.74 232.44,708.99 C 232.44,709.12 232.39,709.36 232.03,709.36 C 232.25,709.86 232.72,710.01 233.05,710.01 C 233.74,710.01 234.11,709.47 234.11,708.9 C 234.11,708.29 233.68,707.81 233.45,707.56 L 231.77,705.9 C 231.7,705.84 231.7,705.83 231.7,705.63 L 234.57,705.63 L 234.78,706.9 z"
   style="fill:#000000;stroke-width:0" />
</g>    <path
       style="fill:none;fill-rule:evenodd;stroke:#000000;stroke-width:2.20000005;stroke-linecap:butt;stroke-linejoin:miter;marker-start:none;marker-end:url(#Arrow2Lend);stroke-miterlimit:4;stroke-dasharray:none;stroke-opacity:1"
       d="M 280,348.36218 L 217,421.36218"
       id="path4096" />
    <path
       sodipodi:type="arc"
       style="fill:none;fill-opacity:1;stroke:#000000;stroke-width:2;stroke-linejoin:round;stroke-miterlimit:4;stroke-dasharray:none;stroke-opacity:1"
       id="path6703"
       sodipodi:cx="370"
       sodipodi:cy="317.36218"
       sodipodi:rx="50"
       sodipodi:ry="45"
       d="M 420,317.36218 A 50,45 0 1 1 320,317.36218 A 50,45 0 1 1 420,317.36218 z"
       transform="matrix(0.8990258,0,0,1.0011398,-147.68826,313.68956)" />
    <path
       sodipodi:type="arc"
       style="fill:none;fill-opacity:1;stroke:#000000;stroke-width:2;stroke-linejoin:round;stroke-miterlimit:4;stroke-dasharray:none;stroke-opacity:1"
       id="path6711"
       sodipodi:cx="370"
       sodipodi:cy="317.36218"
       sodipodi:rx="50"
       sodipodi:ry="45"
       d="M 420,317.36218 A 50,45 0 1 1 320,317.36218 A 50,45 0 1 1 420,317.36218 z"
       transform="matrix(0.8990258,0,0,1.0011398,112.40916,311.68956)" />
    <path
       sodipodi:type="arc"
       style="opacity:1;fill:#000000;fill-opacity:0.39484977;stroke:#000000;stroke-width:2;stroke-linejoin:round;stroke-miterlimit:4;stroke-dasharray:none;stroke-opacity:1"
       id="path6719"
       sodipodi:cx="370"
       sodipodi:cy="317.36218"
       sodipodi:rx="50"
       sodipodi:ry="45"
       d="M 420,317.36218 A 50,45 0 1 1 320,317.36218 A 50,45 0 1 1 420,317.36218 z"
       transform="matrix(0.8990258,0,0,1.0011398,-147.68826,483.58698)" />
    <path
       sodipodi:type="arc"
       style="fill:#000000;fill-opacity:0.39484977;stroke:#000000;stroke-width:2;stroke-linejoin:round;stroke-miterlimit:4;stroke-dasharray:none;stroke-opacity:1"
       id="path6727"
       sodipodi:cx="370"
       sodipodi:cy="317.36218"
       sodipodi:rx="50"
       sodipodi:ry="45"
       d="M 420,317.36218 A 50,45 0 1 1 320,317.36218 A 50,45 0 1 1 420,317.36218 z"
       transform="matrix(0.8990258,0,0,1.0011398,112.31174,483.68956)" />
    <g
       id="g6779"
       transform="matrix(5.4397525,0,0,-5.531579,-1058.7674,4721.6429)"
       xml:space="preserve"
       stroke-miterlimit="10.433"
       fill-rule="even-odd"
       font-style="normal"
       font-variant="normal"
       font-weight="normal"
       font-stretch="normal"
       font-size-adjust="none"
       letter-spacing="normal"
       word-spacing="normal"
       ns0:text="$x_{1i}$"
       ns0:preamble=""
       style="font-style:normal;font-variant:normal;font-weight:normal;font-stretch:normal;letter-spacing:normal;word-spacing:normal;text-anchor:start;fill:none;fill-opacity:1;stroke:#000000;stroke-linecap:butt;stroke-linejoin:miter;stroke-miterlimit:10.43299961;stroke-dasharray:none;stroke-dashoffset:0;stroke-opacity:1">
<path
   d="M 226.76,710.13 L 226.77,710.16 L 226.77,710.19 L 226.78,710.22 L 226.79,710.26 L 226.8,710.29 L 226.81,710.34 L 226.83,710.38 L 226.84,710.42 L 226.86,710.47 L 226.87,710.52 L 226.89,710.57 L 226.91,710.62 L 226.94,710.67 L 226.96,710.72 L 226.99,710.77 L 227.01,710.82 L 227.04,710.86 L 227.07,710.91 L 227.11,710.96 L 227.14,711 L 227.18,711.05 L 227.22,711.09 L 227.26,711.12 L 227.31,711.16 L 227.35,711.19 L 227.4,711.22 L 227.43,711.23 L 227.45,711.25 L 227.48,711.26 L 227.51,711.27 L 227.53,711.28 L 227.56,711.28 L 227.59,711.29 L 227.62,711.3 L 227.65,711.3 L 227.68,711.3 L 227.71,711.31 L 227.75,711.31 C 227.8,711.31 228.04,711.31 228.24,711.18 C 227.96,711.13 227.77,710.88 227.77,710.64 C 227.77,710.48 227.88,710.29 228.15,710.29 C 228.36,710.29 228.68,710.47 228.68,710.87 C 228.68,711.39 228.1,711.53 227.76,711.53 C 227.18,711.53 226.83,711 226.71,710.77 C 226.46,711.43 225.92,711.53 225.63,711.53 C 224.6,711.53 224.03,710.24 224.03,709.99 C 224.03,709.89 224.13,709.89 224.15,709.89 C 224.23,709.89 224.26,709.91 224.28,710 C 224.62,711.06 225.28,711.31 225.61,711.31 C 225.8,711.31 226.15,711.22 226.15,710.64 C 226.15,710.33 225.98,709.66 225.61,708.27 C 225.46,707.65 225.11,707.23 224.67,707.23 C 224.61,707.23 224.38,707.23 224.17,707.36 C 224.42,707.41 224.64,707.62 224.64,707.9 C 224.64,708.17 224.42,708.25 224.27,708.25 C 223.97,708.25 223.72,707.99 223.72,707.67 C 223.72,707.21 224.22,707.01 224.66,707.01 C 225.32,707.01 225.67,707.71 225.7,707.77 C 225.82,707.4 226.18,707.01 226.78,707.01 C 227.81,707.01 228.37,708.3 228.37,708.55 C 228.37,708.65 228.28,708.65 228.25,708.65 C 228.16,708.65 228.15,708.61 228.12,708.54 C 227.8,707.47 227.12,707.23 226.8,707.23 C 226.41,707.23 226.25,707.55 226.25,707.89 C 226.25,708.11 226.31,708.33 226.42,708.77 L 226.76,710.13 z"
   id="path6781"
   style="fill:#000000;stroke-width:0" />
<path
   d="M 231.46,710.07 L 231.46,710.07 L 231.46,710.08 L 231.46,710.09 L 231.46,710.1 L 231.46,710.11 L 231.46,710.11 L 231.46,710.12 L 231.46,710.13 L 231.46,710.13 L 231.46,710.14 L 231.46,710.15 L 231.46,710.15 L 231.46,710.16 L 231.46,710.16 L 231.46,710.17 L 231.46,710.18 L 231.45,710.18 L 231.45,710.19 L 231.45,710.19 L 231.45,710.2 L 231.45,710.21 L 231.44,710.22 L 231.44,710.22 L 231.43,710.23 L 231.43,710.23 L 231.42,710.24 L 231.42,710.24 L 231.41,710.25 L 231.4,710.25 L 231.4,710.25 L 231.39,710.25 L 231.38,710.26 L 231.37,710.26 L 231.37,710.26 L 231.36,710.26 L 231.36,710.26 L 231.35,710.26 L 231.34,710.26 L 231.34,710.26 L 231.33,710.26 L 231.32,710.26 L 231.32,710.26 L 231.31,710.26 L 231.3,710.26 L 231.29,710.26 L 231.29,710.26 L 231.28,710.26 L 231.27,710.26 L 231.26,710.26 L 231.25,710.26 C 230.81,709.82 230.17,709.81 229.88,709.81 L 229.88,709.56 C 230.05,709.56 230.51,709.56 230.9,709.76 L 230.9,706.2 C 230.9,705.97 230.9,705.88 230.2,705.88 L 229.93,705.88 L 229.93,705.63 C 230.06,705.64 230.92,705.66 231.18,705.66 C 231.39,705.66 232.27,705.64 232.42,705.63 L 232.42,705.88 L 232.16,705.88 C 231.46,705.88 231.46,705.97 231.46,706.2 L 231.46,710.07 z"
   id="path6783"
   style="fill:#000000;stroke-width:0" />
<path
   d="M 235.36,709.99 L 235.36,710 L 235.36,710.01 L 235.36,710.02 L 235.36,710.03 L 235.35,710.04 L 235.35,710.05 L 235.35,710.07 L 235.34,710.08 L 235.34,710.09 L 235.33,710.1 L 235.33,710.11 L 235.32,710.12 L 235.32,710.13 L 235.31,710.14 L 235.3,710.15 L 235.29,710.16 L 235.28,710.17 L 235.28,710.18 L 235.27,710.19 L 235.25,710.2 L 235.24,710.21 L 235.23,710.21 L 235.22,710.22 L 235.21,710.23 L 235.19,710.23 L 235.18,710.24 L 235.16,710.24 L 235.15,710.25 L 235.13,710.25 L 235.12,710.25 L 235.1,710.25 L 235.08,710.25 C 234.89,710.25 234.69,710.07 234.69,709.87 C 234.69,709.75 234.78,709.6 234.97,709.6 C 235.17,709.6 235.36,709.8 235.36,709.99 z"
   id="path6785"
   style="fill:#000000;stroke-width:0" />
<path
   d="M 233.94,706.45 L 233.93,706.43 L 233.93,706.41 L 233.92,706.38 L 233.91,706.36 L 233.9,706.34 L 233.9,706.33 L 233.89,706.31 L 233.89,706.29 L 233.89,706.27 L 233.88,706.26 L 233.88,706.24 L 233.88,706.23 L 233.88,706.22 L 233.88,706.21 L 233.88,706.2 L 233.87,706.19 L 233.87,706.17 L 233.87,706.16 L 233.87,706.15 C 233.87,705.83 234.15,705.56 234.54,705.56 C 235.23,705.56 235.54,706.52 235.54,706.63 C 235.54,706.72 235.45,706.72 235.43,706.72 C 235.33,706.72 235.32,706.68 235.3,706.6 C 235.14,706.04 234.83,705.76 234.56,705.76 C 234.42,705.76 234.38,705.85 234.38,706 C 234.38,706.16 234.43,706.29 234.49,706.45 C 234.56,706.63 234.64,706.82 234.72,707 C 234.78,707.17 235.03,707.81 235.06,707.89 C 235.08,707.96 235.1,708.04 235.1,708.11 C 235.1,708.44 234.82,708.71 234.44,708.71 C 233.75,708.71 233.43,707.76 233.43,707.64 C 233.43,707.55 233.52,707.55 233.55,707.55 C 233.64,707.55 233.65,707.58 233.67,707.66 C 233.85,708.26 234.16,708.51 234.42,708.51 C 234.53,708.51 234.59,708.45 234.59,708.27 C 234.59,708.11 234.55,708 234.38,707.57 L 233.94,706.45 z"
   id="path6787"
   style="fill:#000000;stroke-width:0" />
</g>    <g
       style="font-style:normal;font-variant:normal;font-weight:normal;font-stretch:normal;letter-spacing:normal;word-spacing:normal;text-anchor:start;fill:none;fill-opacity:1;stroke:#000000;stroke-linecap:butt;stroke-linejoin:miter;stroke-miterlimit:10.43299961;stroke-dasharray:none;stroke-dashoffset:0;stroke-opacity:1"
       ns0:preamble=""
       ns0:text="$x_{2i}$"
       word-spacing="normal"
       letter-spacing="normal"
       font-size-adjust="none"
       font-stretch="normal"
       font-weight="normal"
       font-variant="normal"
       font-style="normal"
       fill-rule="even-odd"
       stroke-miterlimit="10.433"
       xml:space="preserve"
       transform="matrix(5.4397525,0,0,-5.531579,-798.7674,4721.7455)"
       id="g6882">
<path
   id="path6884"
   d="M 226.76,710.13 L 226.77,710.16 L 226.77,710.19 L 226.78,710.22 L 226.79,710.26 L 226.8,710.29 L 226.81,710.34 L 226.83,710.38 L 226.84,710.42 L 226.86,710.47 L 226.87,710.52 L 226.89,710.57 L 226.91,710.62 L 226.94,710.67 L 226.96,710.72 L 226.99,710.77 L 227.01,710.82 L 227.04,710.86 L 227.07,710.91 L 227.11,710.96 L 227.14,711 L 227.18,711.05 L 227.22,711.09 L 227.26,711.12 L 227.31,711.16 L 227.35,711.19 L 227.4,711.22 L 227.43,711.23 L 227.45,711.25 L 227.48,711.26 L 227.51,711.27 L 227.53,711.28 L 227.56,711.28 L 227.59,711.29 L 227.62,711.3 L 227.65,711.3 L 227.68,711.3 L 227.71,711.31 L 227.75,711.31 C 227.8,711.31 228.04,711.31 228.24,711.18 C 227.96,711.13 227.77,710.88 227.77,710.64 C 227.77,710.48 227.88,710.29 228.15,710.29 C 228.36,710.29 228.68,710.47 228.68,710.87 C 228.68,711.39 228.1,711.53 227.76,711.53 C 227.18,711.53 226.83,711 226.71,710.77 C 226.46,711.43 225.92,711.53 225.63,711.53 C 224.6,711.53 224.03,710.24 224.03,709.99 C 224.03,709.89 224.13,709.89 224.15,709.89 C 224.23,709.89 224.26,709.91 224.28,710 C 224.62,711.06 225.28,711.31 225.61,711.31 C 225.8,711.31 226.15,711.22 226.15,710.64 C 226.15,710.33 225.98,709.66 225.61,708.27 C 225.46,707.65 225.11,707.23 224.67,707.23 C 224.61,707.23 224.38,707.23 224.17,707.36 C 224.42,707.41 224.64,707.62 224.64,707.9 C 224.64,708.17 224.42,708.25 224.27,708.25 C 223.97,708.25 223.72,707.99 223.72,707.67 C 223.72,707.21 224.22,707.01 224.66,707.01 C 225.32,707.01 225.67,707.71 225.7,707.77 C 225.82,707.4 226.18,707.01 226.78,707.01 C 227.81,707.01 228.37,708.3 228.37,708.55 C 228.37,708.65 228.28,708.65 228.25,708.65 C 228.16,708.65 228.15,708.61 228.12,708.54 C 227.8,707.47 227.12,707.23 226.8,707.23 C 226.41,707.23 226.25,707.55 226.25,707.89 C 226.25,708.11 226.31,708.33 226.42,708.77 L 226.76,710.13 z"
   style="fill:#000000;stroke-width:0" />
<path
   id="path6886"
   d="M 232.65,706.9 L 232.41,706.9 C 232.39,706.75 232.32,706.33 232.23,706.27 C 232.17,706.22 231.64,706.22 231.54,706.22 L 230.26,706.22 C 230.99,706.87 231.23,707.07 231.65,707.39 C 232.17,707.81 232.65,708.24 232.65,708.9 C 232.65,709.74 231.91,710.26 231.01,710.26 C 230.15,710.26 229.56,709.65 229.56,709.01 C 229.56,708.66 229.86,708.62 229.93,708.62 C 230.1,708.62 230.3,708.74 230.3,708.99 C 230.3,709.12 230.26,709.36 229.89,709.36 C 230.11,709.86 230.58,710.01 230.91,710.01 C 231.61,710.01 231.97,709.47 231.97,708.9 C 231.97,708.29 231.54,707.81 231.32,707.56 L 229.63,705.9 C 229.56,705.84 229.56,705.83 229.56,705.63 L 232.44,705.63 L 232.65,706.9 z"
   style="fill:#000000;stroke-width:0" />
<path
   id="path6888"
   d="M 235.36,709.99 L 235.36,710 L 235.36,710.01 L 235.36,710.02 L 235.36,710.03 L 235.35,710.04 L 235.35,710.05 L 235.35,710.07 L 235.34,710.08 L 235.34,710.09 L 235.33,710.1 L 235.33,710.11 L 235.32,710.12 L 235.32,710.13 L 235.31,710.14 L 235.3,710.15 L 235.29,710.16 L 235.28,710.17 L 235.28,710.18 L 235.27,710.19 L 235.25,710.2 L 235.24,710.21 L 235.23,710.21 L 235.22,710.22 L 235.21,710.23 L 235.19,710.23 L 235.18,710.24 L 235.16,710.24 L 235.15,710.25 L 235.13,710.25 L 235.12,710.25 L 235.1,710.25 L 235.08,710.25 C 234.89,710.25 234.69,710.07 234.69,709.87 C 234.69,709.75 234.78,709.6 234.97,709.6 C 235.17,709.6 235.36,709.8 235.36,709.99 z"
   style="fill:#000000;stroke-width:0" />
<path
   id="path6890"
   d="M 233.94,706.45 L 233.93,706.43 L 233.93,706.41 L 233.92,706.38 L 233.91,706.36 L 233.9,706.34 L 233.9,706.33 L 233.89,706.31 L 233.89,706.29 L 233.89,706.27 L 233.88,706.26 L 233.88,706.24 L 233.88,706.23 L 233.88,706.22 L 233.88,706.21 L 233.88,706.2 L 233.87,706.19 L 233.87,706.17 L 233.87,706.16 L 233.87,706.15 C 233.87,705.83 234.15,705.56 234.54,705.56 C 235.23,705.56 235.54,706.52 235.54,706.63 C 235.54,706.72 235.45,706.72 235.43,706.72 C 235.33,706.72 235.32,706.68 235.3,706.6 C 235.14,706.04 234.83,705.76 234.56,705.76 C 234.42,705.76 234.38,705.85 234.38,706 C 234.38,706.16 234.43,706.29 234.49,706.45 C 234.56,706.63 234.64,706.82 234.72,707 C 234.78,707.17 235.03,707.81 235.06,707.89 C 235.08,707.96 235.1,708.04 235.1,708.11 C 235.1,708.44 234.82,708.71 234.44,708.71 C 233.75,708.71 233.43,707.76 233.43,707.64 C 233.43,707.55 233.52,707.55 233.55,707.55 C 233.64,707.55 233.65,707.58 233.67,707.66 C 233.85,708.26 234.16,708.51 234.42,708.51 C 234.53,708.51 234.59,708.45 234.59,708.27 C 234.59,708.11 234.55,708 234.38,707.57 L 233.94,706.45 z"
   style="fill:#000000;stroke-width:0" />
</g>    <g
       id="g6989"
       transform="matrix(5.4397525,0,0,-5.531579,-1058.7674,4557.7455)"
       xml:space="preserve"
       stroke-miterlimit="10.433"
       fill-rule="even-odd"
       font-style="normal"
       font-variant="normal"
       font-weight="normal"
       font-stretch="normal"
       font-size-adjust="none"
       letter-spacing="normal"
       word-spacing="normal"
       ns0:text="$\\theta_{1i}$"
       ns0:preamble=""
       style="font-style:normal;font-variant:normal;font-weight:normal;font-stretch:normal;letter-spacing:normal;word-spacing:normal;text-anchor:start;fill:none;fill-opacity:1;stroke:#000000;stroke-linecap:butt;stroke-linejoin:miter;stroke-miterlimit:10.43299961;stroke-dasharray:none;stroke-dashoffset:0;stroke-opacity:1">
<path
   d="M 227.96,712.1 L 227.96,712.17 L 227.96,712.24 L 227.96,712.31 L 227.96,712.38 L 227.95,712.46 L 227.94,712.54 L 227.93,712.62 L 227.92,712.7 L 227.91,712.78 L 227.89,712.87 L 227.87,712.95 L 227.85,713.04 L 227.83,713.12 L 227.81,713.21 L 227.78,713.29 L 227.75,713.37 L 227.71,713.45 L 227.68,713.53 L 227.64,713.6 L 227.59,713.67 L 227.55,713.74 L 227.5,713.8 L 227.44,713.86 L 227.39,713.92 L 227.32,713.97 L 227.29,713.99 L 227.26,714.01 L 227.22,714.03 L 227.19,714.05 L 227.15,714.07 L 227.11,714.09 L 227.07,714.1 L 227.03,714.11 L 226.99,714.12 L 226.95,714.13 L 226.91,714.14 L 226.86,714.14 L 226.82,714.14 L 226.77,714.15 L 226.76,713.93 C 227.25,713.93 227.31,713.29 227.31,712.72 C 227.31,712.23 227.23,711.72 226.99,710.74 L 224.91,710.74 C 225.08,711.38 225.28,712.17 225.67,712.88 C 225.94,713.37 226.31,713.93 226.76,713.93 L 226.77,714.15 C 225.38,714.15 223.85,711.34 223.85,709.05 C 223.85,708.12 224.14,707.01 225.05,707.01 L 225.05,707.23 C 224.72,707.23 224.51,707.52 224.51,708.45 C 224.51,708.87 224.57,709.44 224.83,710.42 L 226.9,710.42 C 226.79,709.96 226.58,709.11 226.2,708.4 C 225.85,707.72 225.48,707.23 225.05,707.23 L 225.05,707.01 C 226.45,707.01 227.96,709.87 227.96,712.1 z"
   id="path6991"
   style="fill:#000000;stroke-width:0" />
<path
   d="M 230.45,710.07 L 230.45,710.07 L 230.45,710.08 L 230.45,710.09 L 230.45,710.1 L 230.45,710.11 L 230.45,710.11 L 230.45,710.12 L 230.45,710.13 L 230.45,710.13 L 230.45,710.14 L 230.45,710.15 L 230.45,710.15 L 230.45,710.16 L 230.45,710.16 L 230.44,710.17 L 230.44,710.18 L 230.44,710.18 L 230.44,710.19 L 230.44,710.19 L 230.44,710.2 L 230.43,710.21 L 230.43,710.22 L 230.43,710.22 L 230.42,710.23 L 230.42,710.23 L 230.41,710.24 L 230.41,710.24 L 230.4,710.25 L 230.39,710.25 L 230.38,710.25 L 230.37,710.25 L 230.37,710.26 L 230.36,710.26 L 230.35,710.26 L 230.35,710.26 L 230.34,710.26 L 230.34,710.26 L 230.33,710.26 L 230.33,710.26 L 230.32,710.26 L 230.31,710.26 L 230.3,710.26 L 230.3,710.26 L 230.29,710.26 L 230.28,710.26 L 230.27,710.26 L 230.27,710.26 L 230.26,710.26 L 230.25,710.26 L 230.24,710.26 C 229.79,709.82 229.16,709.81 228.87,709.81 L 228.87,709.56 C 229.04,709.56 229.5,709.56 229.88,709.76 L 229.88,706.2 C 229.88,705.97 229.88,705.88 229.19,705.88 L 228.92,705.88 L 228.92,705.63 C 229.05,705.64 229.9,705.66 230.16,705.66 C 230.38,705.66 231.26,705.64 231.41,705.63 L 231.41,705.88 L 231.15,705.88 C 230.45,705.88 230.45,705.97 230.45,706.2 L 230.45,710.07 z"
   id="path6993"
   style="fill:#000000;stroke-width:0" />
<path
   d="M 234.34,709.99 L 234.34,710 L 234.34,710.01 L 234.34,710.02 L 234.34,710.03 L 234.33,710.04 L 234.33,710.05 L 234.33,710.07 L 234.32,710.08 L 234.32,710.09 L 234.31,710.1 L 234.31,710.11 L 234.3,710.12 L 234.3,710.13 L 234.29,710.14 L 234.28,710.15 L 234.27,710.16 L 234.26,710.17 L 234.26,710.18 L 234.25,710.19 L 234.23,710.2 L 234.22,710.21 L 234.21,710.21 L 234.2,710.22 L 234.19,710.23 L 234.17,710.23 L 234.16,710.24 L 234.14,710.24 L 234.13,710.25 L 234.11,710.25 L 234.1,710.25 L 234.08,710.25 L 234.06,710.25 C 233.87,710.25 233.67,710.07 233.67,709.87 C 233.67,709.75 233.76,709.6 233.95,709.6 C 234.15,709.6 234.34,709.8 234.34,709.99 z"
   id="path6995"
   style="fill:#000000;stroke-width:0" />
<path
   d="M 232.92,706.45 L 232.91,706.43 L 232.91,706.41 L 232.9,706.38 L 232.89,706.36 L 232.88,706.34 L 232.88,706.33 L 232.88,706.31 L 232.87,706.29 L 232.87,706.27 L 232.86,706.26 L 232.86,706.24 L 232.86,706.23 L 232.86,706.22 L 232.86,706.21 L 232.86,706.2 L 232.85,706.19 L 232.85,706.17 L 232.85,706.16 L 232.85,706.15 C 232.85,705.83 233.13,705.56 233.52,705.56 C 234.21,705.56 234.52,706.52 234.52,706.63 C 234.52,706.72 234.43,706.72 234.41,706.72 C 234.31,706.72 234.3,706.68 234.28,706.6 C 234.12,706.04 233.81,705.76 233.54,705.76 C 233.4,705.76 233.36,705.85 233.36,706 C 233.36,706.16 233.41,706.29 233.48,706.45 C 233.54,706.63 233.62,706.82 233.7,707 C 233.76,707.17 234.01,707.81 234.04,707.89 C 234.06,707.96 234.08,708.04 234.08,708.11 C 234.08,708.44 233.8,708.71 233.42,708.71 C 232.73,708.71 232.41,707.76 232.41,707.64 C 232.41,707.55 232.51,707.55 232.53,707.55 C 232.62,707.55 232.63,707.58 232.65,707.66 C 232.83,708.26 233.14,708.51 233.4,708.51 C 233.51,708.51 233.57,708.45 233.57,708.27 C 233.57,708.11 233.53,708 233.36,707.57 L 232.92,706.45 z"
   id="path6997"
   style="fill:#000000;stroke-width:0" />
</g>    <g
       style="font-style:normal;font-variant:normal;font-weight:normal;font-stretch:normal;letter-spacing:normal;word-spacing:normal;text-anchor:start;fill:none;fill-opacity:1;stroke:#000000;stroke-linecap:butt;stroke-linejoin:miter;stroke-miterlimit:10.43299961;stroke-dasharray:none;stroke-dashoffset:0;stroke-opacity:1"
       ns0:preamble=""
       ns0:text="$\\theta_{2i}$"
       word-spacing="normal"
       letter-spacing="normal"
       font-size-adjust="none"
       font-stretch="normal"
       font-weight="normal"
       font-variant="normal"
       font-style="normal"
       fill-rule="even-odd"
       stroke-miterlimit="10.433"
       xml:space="preserve"
       transform="matrix(5.4397525,0,0,-5.531579,-798.66998,4555.7455)"
       id="g7100">
<path
   id="path7102"
   d="M 227.96,712.1 L 227.96,712.17 L 227.96,712.24 L 227.96,712.31 L 227.96,712.38 L 227.95,712.46 L 227.94,712.54 L 227.93,712.62 L 227.92,712.7 L 227.91,712.78 L 227.89,712.87 L 227.87,712.95 L 227.85,713.04 L 227.83,713.12 L 227.81,713.21 L 227.78,713.29 L 227.75,713.37 L 227.71,713.45 L 227.68,713.53 L 227.64,713.6 L 227.59,713.67 L 227.55,713.74 L 227.5,713.8 L 227.44,713.86 L 227.39,713.92 L 227.32,713.97 L 227.29,713.99 L 227.26,714.01 L 227.22,714.03 L 227.19,714.05 L 227.15,714.07 L 227.11,714.09 L 227.07,714.1 L 227.03,714.11 L 226.99,714.12 L 226.95,714.13 L 226.91,714.14 L 226.86,714.14 L 226.82,714.14 L 226.77,714.15 L 226.76,713.93 C 227.25,713.93 227.31,713.29 227.31,712.72 C 227.31,712.23 227.23,711.72 226.99,710.74 L 224.91,710.74 C 225.08,711.38 225.28,712.17 225.67,712.88 C 225.94,713.37 226.31,713.93 226.76,713.93 L 226.77,714.15 C 225.38,714.15 223.85,711.34 223.85,709.05 C 223.85,708.12 224.14,707.01 225.05,707.01 L 225.05,707.23 C 224.72,707.23 224.51,707.52 224.51,708.45 C 224.51,708.87 224.57,709.44 224.83,710.42 L 226.9,710.42 C 226.79,709.96 226.58,709.11 226.2,708.4 C 225.85,707.72 225.48,707.23 225.05,707.23 L 225.05,707.01 C 226.45,707.01 227.96,709.87 227.96,712.1 z"
   style="fill:#000000;stroke-width:0" />
<path
   id="path7104"
   d="M 231.63,706.9 L 231.4,706.9 C 231.38,706.75 231.31,706.33 231.22,706.27 C 231.16,706.22 230.62,706.22 230.52,706.22 L 229.24,706.22 C 229.98,706.87 230.22,707.07 230.64,707.39 C 231.15,707.81 231.63,708.24 231.63,708.9 C 231.63,709.74 230.9,710.26 230,710.26 C 229.14,710.26 228.55,709.65 228.55,709.01 C 228.55,708.66 228.85,708.62 228.92,708.62 C 229.09,708.62 229.29,708.74 229.29,708.99 C 229.29,709.12 229.24,709.36 228.88,709.36 C 229.1,709.86 229.57,710.01 229.9,710.01 C 230.6,710.01 230.96,709.47 230.96,708.9 C 230.96,708.29 230.52,707.81 230.3,707.56 L 228.62,705.9 C 228.55,705.84 228.55,705.83 228.55,705.63 L 231.43,705.63 L 231.63,706.9 z"
   style="fill:#000000;stroke-width:0" />
<path
   id="path7106"
   d="M 234.34,709.99 L 234.34,710 L 234.34,710.01 L 234.34,710.02 L 234.34,710.03 L 234.33,710.04 L 234.33,710.05 L 234.33,710.07 L 234.32,710.08 L 234.32,710.09 L 234.31,710.1 L 234.31,710.11 L 234.3,710.12 L 234.3,710.13 L 234.29,710.14 L 234.28,710.15 L 234.27,710.16 L 234.26,710.17 L 234.26,710.18 L 234.25,710.19 L 234.23,710.2 L 234.22,710.21 L 234.21,710.21 L 234.2,710.22 L 234.19,710.23 L 234.17,710.23 L 234.16,710.24 L 234.14,710.24 L 234.13,710.25 L 234.11,710.25 L 234.1,710.25 L 234.08,710.25 L 234.06,710.25 C 233.87,710.25 233.67,710.07 233.67,709.87 C 233.67,709.75 233.76,709.6 233.95,709.6 C 234.15,709.6 234.34,709.8 234.34,709.99 z"
   style="fill:#000000;stroke-width:0" />
<path
   id="path7108"
   d="M 232.92,706.45 L 232.91,706.43 L 232.91,706.41 L 232.9,706.38 L 232.89,706.36 L 232.88,706.34 L 232.88,706.33 L 232.88,706.31 L 232.87,706.29 L 232.87,706.27 L 232.86,706.26 L 232.86,706.24 L 232.86,706.23 L 232.86,706.22 L 232.86,706.21 L 232.86,706.2 L 232.85,706.19 L 232.85,706.17 L 232.85,706.16 L 232.85,706.15 C 232.85,705.83 233.13,705.56 233.52,705.56 C 234.21,705.56 234.52,706.52 234.52,706.63 C 234.52,706.72 234.43,706.72 234.41,706.72 C 234.31,706.72 234.3,706.68 234.28,706.6 C 234.12,706.04 233.81,705.76 233.54,705.76 C 233.4,705.76 233.36,705.85 233.36,706 C 233.36,706.16 233.41,706.29 233.48,706.45 C 233.54,706.63 233.62,706.82 233.7,707 C 233.76,707.17 234.01,707.81 234.04,707.89 C 234.06,707.96 234.08,708.04 234.08,708.11 C 234.08,708.44 233.8,708.71 233.42,708.71 C 232.73,708.71 232.41,707.76 232.41,707.64 C 232.41,707.55 232.51,707.55 232.53,707.55 C 232.62,707.55 232.63,707.58 232.65,707.66 C 232.83,708.26 233.14,708.51 233.4,708.51 C 233.51,708.51 233.57,708.45 233.57,708.27 C 233.57,708.11 233.53,708 233.36,707.57 L 232.92,706.45 z"
   style="fill:#000000;stroke-width:0" />
</g>    <path
       style="fill:none;fill-rule:evenodd;stroke:#000000;stroke-width:2.84917593;stroke-linecap:butt;stroke-linejoin:miter;marker-end:url(#Arrow2Lend);stroke-miterlimit:4;stroke-dasharray:none;stroke-opacity:1"
       d="M 185.98959,504.83066 L 185.98959,582.36089"
       id="path7163" />
    <path
       style="fill:none;fill-rule:evenodd;stroke:#000000;stroke-width:2.84917593;stroke-linecap:butt;stroke-linejoin:miter;marker-end:url(#Arrow2Lend);stroke-miterlimit:4;stroke-dasharray:none;stroke-opacity:1"
       d="M 446,502.83195 L 446,580.36218"
       id="path7165" />
    <path
       style="fill:none;fill-rule:evenodd;stroke:#000000;stroke-width:2.20000005;stroke-linecap:butt;stroke-linejoin:miter;marker-end:url(#Arrow2Lend);stroke-miterlimit:4;stroke-dasharray:none;stroke-opacity:1"
       d="M 348,348.36218 L 418,421.36218"
       id="path7171" />
    <path
       style="fill:none;fill-rule:evenodd;stroke:#000000;stroke-width:2.84917593;stroke-linecap:butt;stroke-linejoin:miter;marker-end:url(#Arrow2Lend);stroke-miterlimit:4;stroke-dasharray:none;stroke-opacity:1"
       d="M 186,676.36218 L 186,753.89241"
       id="path7694" />
    <path
       style="fill:none;fill-rule:evenodd;stroke:#000000;stroke-width:2.84917593;stroke-linecap:butt;stroke-linejoin:miter;marker-end:url(#Arrow2Lend);stroke-miterlimit:4;stroke-dasharray:none;stroke-opacity:1"
       d="M 446,674.36218 L 446,751.89241"
       id="path7696" />
    <rect
       style="opacity:1;fill:none;fill-opacity:0.39484977;stroke:#000000;stroke-width:2.20000005;stroke-linejoin:round;stroke-miterlimit:4;stroke-dasharray:none;stroke-opacity:1"
       id="rect7698"
       width="150"
       height="320"
       x="110"
       y="542.36218" />
    <rect
       style="opacity:1;fill:none;fill-opacity:0.39484977;stroke:#000000;stroke-width:2.20000005;stroke-linejoin:round;stroke-miterlimit:4;stroke-dasharray:none;stroke-opacity:1"
       id="rect7700"
       width="150"
       height="320"
       x="370"
       y="542.36218" />
    <text
       xml:space="preserve"
       style="font-size:40px;font-style:normal;font-weight:normal;fill:#000000;fill-opacity:1;stroke:none;stroke-width:1px;stroke-linecap:butt;stroke-linejoin:miter;stroke-opacity:1;font-family:Bitstream Vera Sans"
       x="144.41922"
       y="410.65897"
       id="text2545"
       transform="matrix(0.7498125,-0.6616504,0.6616504,0.7498125,0,0)"><tspan
         sodipodi:role="line"
         id="tspan2547"
         x="144.41922"
         y="410.65897"
         style="font-size:32px;font-style:italic;font-variant:normal;font-weight:bold;font-stretch:normal;fill:#ff0000;font-family:URW Chancery L;-inkscape-font-specification:URW Chancery L Bold Italic">space of all</tspan><tspan
         sodipodi:role="line"
         x="144.41922"
         y="450.65897"
         id="tspan2549"
         style="font-size:32px;font-style:italic;font-variant:normal;font-weight:bold;font-stretch:normal;fill:#ff0000;font-family:URW Chancery L;-inkscape-font-specification:URW Chancery L Bold Italic">possible menus</tspan></text>
    <text
       xml:space="preserve"
       style="font-size:40px;font-style:normal;font-weight:normal;fill:#000000;fill-opacity:1;stroke:none;stroke-width:1px;stroke-linecap:butt;stroke-linejoin:miter;stroke-opacity:1;font-family:Bitstream Vera Sans"
       x="72.519302"
       y="507.25296"
       id="text2551"
       transform="matrix(0.7498125,-0.6616504,0.6616504,0.7498125,0,0)"><tspan
         sodipodi:role="line"
         x="72.519302"
         y="507.25296"
         id="tspan2555"
         style="font-size:32px;font-style:italic;font-variant:normal;font-weight:bold;font-stretch:normal;fill:#ff0000;font-family:URW Chancery L;-inkscape-font-specification:URW Chancery L Bold Italic">global</tspan><tspan
         sodipodi:role="line"
         x="72.519302"
         y="547.25293"
         style="font-size:32px;font-style:italic;font-variant:normal;font-weight:bold;font-stretch:normal;fill:#ff0000;font-family:URW Chancery L;-inkscape-font-specification:URW Chancery L Bold Italic"
         id="tspan2559">menu</tspan></text>
    <text
       xml:space="preserve"
       style="font-size:40px;font-style:normal;font-weight:normal;fill:#000000;fill-opacity:1;stroke:none;stroke-width:1px;stroke-linecap:butt;stroke-linejoin:miter;stroke-opacity:1;font-family:Bitstream Vera Sans"
       x="56.63274"
       y="706.62103"
       id="text2561"
       transform="matrix(0.7498125,-0.6616504,0.6616504,0.7498125,0,0)"><tspan
         sodipodi:role="line"
         x="56.63274"
         y="706.62103"
         style="font-size:32px;font-style:italic;font-variant:normal;font-weight:bold;font-stretch:normal;fill:#ff0000;font-family:URW Chancery L;-inkscape-font-specification:URW Chancery L Bold Italic"
         id="tspan2565">set of menus in</tspan><tspan
         sodipodi:role="line"
         x="56.63274"
         y="746.62103"
         style="font-size:32px;font-style:italic;font-variant:normal;font-weight:bold;font-stretch:normal;fill:#ff0000;font-family:URW Chancery L;-inkscape-font-specification:URW Chancery L Bold Italic"
         id="tspan2569">the restaurant</tspan></text>
    <text
       xml:space="preserve"
       style="font-size:40px;font-style:normal;font-weight:normal;fill:#000000;fill-opacity:1;stroke:none;stroke-width:1px;stroke-linecap:butt;stroke-linejoin:miter;stroke-opacity:1;font-family:Bitstream Vera Sans"
       x="313.77344"
       y="402.36218"
       id="text2571"><tspan
         sodipodi:role="line"
         id="tspan2573"
         x="313.77344"
         y="402.36218"
         style="font-size:18px;text-align:center;text-anchor:middle;fill:#ff0000">recollection of</tspan><tspan
         sodipodi:role="line"
         x="313.77344"
         y="424.86218"
         id="tspan2575"
         style="font-size:18px;text-align:center;text-anchor:middle;fill:#ff0000">menus</tspan></text>
    <flowRoot
       xml:space="preserve"
       id="flowRoot2577"
       style="font-size:40px;font-style:normal;font-weight:normal;fill:#000000;fill-opacity:1;stroke:none;stroke-width:1px;stroke-linecap:butt;stroke-linejoin:miter;stroke-opacity:1;font-family:Bitstream Vera Sans"><flowRegion
         id="flowRegion2579"><rect
           id="rect2581"
           width="91"
           height="41"
           x="217"
           y="414.36218" /></flowRegion><flowPara
         id="flowPara2583" /></flowRoot>  </g>
</svg>
